<svg xmlns="http://www.w3.org/2000/svg" width="132.3" height="80" viewBox="0 0 132.3 80"><g transform="translate(-21.042 -26.922)"><path d="M86.8,182.716a239.844,239.844,0,0,0,69.729,0l4.617,10.826a225.241,225.241,0,0,1-79.122-.955Z" transform="translate(-35.095 -89.654)" fill="#d0d1d1" fill-rule="evenodd"/><g transform="translate(52.026 81.16)"><path d="M155.628,164.155,154.148,182.8q-2.017-.03-4.033-.105l1.477-18.622Q153.61,164.139,155.628,164.155Z" transform="translate(-126.304 -160.086)" fill="#ffbc00" fill-rule="evenodd"/><path d="M226.319,158.311l1.85,18.629q-1.989.344-3.985.641l-1.848-18.6Q224.33,158.67,226.319,158.311Z" transform="translate(-167.865 -156.77)" fill="#ffbc00" fill-rule="evenodd"/><path d="M243.9,154.681l2.624,18.546q-1.971.439-3.95.832l-2.62-18.516Q241.927,155.137,243.9,154.681Z" transform="translate(-178.001 -154.681)" fill="#ffbc00" fill-rule="evenodd"/><path d="M138.207,163.364l-1.477,18.615q-2.012-.115-4.02-.273l1.477-18.612Q136.2,163.255,138.207,163.364Z" transform="translate(-116.288 -159.522)" fill="#ffbc00" fill-rule="evenodd"/><path d="M208.177,161.135l.734,18.723q-2.006.243-4.015.438l-.731-18.69Q206.173,161.4,208.177,161.135Z" transform="translate(-157.407 -158.395)" fill="#ffbc00" fill-rule="evenodd"/><path d="M118.456,161.45l-1.477,18.622q-2-.211-4-.466l1.479-18.643Q116.452,161.232,118.456,161.45Z" transform="translate(-104.93 -158.296)" fill="#ffbc00" fill-rule="evenodd"/><path d="M190.584,162.982l-.247,18.742q-2.015.147-4.032.247l.247-18.707Q188.569,163.148,190.584,162.982Z" transform="translate(-147.13 -159.458)" fill="#ffbc00" fill-rule="evenodd"/><path d="M100.138,158.878l-2.131,18.569q-1.993-.3-3.98-.652L96.161,158.2Q98.147,158.564,100.138,158.878Z" transform="translate(-94.027 -156.706)" fill="#ffbc00" fill-rule="evenodd"/><path d="M173.1,164.014l-.505,18.69q-2.016.061-4.032.075l.5-18.671Q171.083,164.086,173.1,164.014Z" transform="translate(-136.919 -160.052)" fill="#ffbc00" fill-rule="evenodd"/></g><path d="M21.042,86.846l.677-5.558,1.269.155L22.5,85.417l1.417.172.233-1.908a3.02,3.02,0,0,1,.753-1.84,1.824,1.824,0,0,1,1.585-.471,1.934,1.934,0,0,1,1.514.923,3.286,3.286,0,0,1,.32,2.125l-.4,3.266-6.885-.839Zm6.092-2.482a1.559,1.559,0,0,0-.127-.964.826.826,0,0,0-.664-.411q-.9-.111-1.058,1.149l-.194,1.593,1.849.225.194-1.593Zm2.134-9.6,1.242.342-1.427,5.178L22.4,78.444l1.393-5.054,1.242.342-.969,3.516,1.452.4.856-3.1,1.2.332-.856,3.105,1.547.426,1-3.64Zm-.228-6.051a1.73,1.73,0,0,0-.286-.9,1.512,1.512,0,0,0-.723-.571,1.543,1.543,0,0,0-1.136-.009A2.542,2.542,0,0,0,25.851,68a4.534,4.534,0,0,0-.768,1.306,5.13,5.13,0,0,0-.342,2.42l1.34,0a3.707,3.707,0,0,1-.01-.993,3.8,3.8,0,0,1,.228-.922,1.98,1.98,0,0,1,.579-.853.7.7,0,0,1,.734-.133.638.638,0,0,1,.408.453,1.272,1.272,0,0,1-.092.778l-.575,1.467,1.125.441.618-1.577a1.662,1.662,0,0,1,.5-.744.643.643,0,0,1,.662-.087.8.8,0,0,1,.5.7,2.443,2.443,0,0,1-.192,1.2,4.251,4.251,0,0,1-.526.949,3.737,3.737,0,0,1-.759.782l.889.881a5.225,5.225,0,0,0,1-1.051,5.806,5.806,0,0,0,.685-1.259,4.672,4.672,0,0,0,.335-1.535,2.64,2.64,0,0,0-.254-1.307,1.6,1.6,0,0,0-.872-.789,1.627,1.627,0,0,0-1.08-.056,1.969,1.969,0,0,0-.949.644Zm6.129-4.045A4.052,4.052,0,0,1,33.8,66.133a3.457,3.457,0,0,1-1.787.545,3.689,3.689,0,0,1-3.195-1.819,3.454,3.454,0,0,1-.444-1.814,4.291,4.291,0,0,1,1.924-3.38,3.538,3.538,0,0,1,5.426,3.088,4.024,4.024,0,0,1-.556,1.918Zm-1.189-.676a2.2,2.2,0,0,0,.3-1.1,2.03,2.03,0,0,0-.3-1.066,2.482,2.482,0,0,0-2-1.137,2.027,2.027,0,0,0-1.069.287,2.324,2.324,0,0,0-1.1,1.929,2.03,2.03,0,0,0,.3,1.066,2.482,2.482,0,0,0,2,1.137,2.031,2.031,0,0,0,1.069-.286,2.2,2.2,0,0,0,.794-.825Zm2.042-13.118L32.186,55.9,37.7,60.11l.968-1.268-4.474-3.415,1.9-2.489,4.474,3.415.968-1.268-5.514-4.208Zm8.956-1.628-2.225,2.328.65,1.471-1.137,1.189-2.877-7.028,1.1-1.146,7.157,2.551-1.164,1.218-1.5-.583Zm-1.23-.477-2.68-1.04,1.159,2.63,1.52-1.59Zm7.413-2.636a4.081,4.081,0,0,0,1.092-1.257,3.213,3.213,0,0,0,.4-1.483l-1.4-.114A2.205,2.205,0,0,1,50.389,45a2.31,2.31,0,0,1-1.079.486,2.009,2.009,0,0,1-1.106-.135,2.483,2.483,0,0,1-1.417-1.811,2.006,2.006,0,0,1,.135-1.106,2.311,2.311,0,0,1,.731-.931,2.216,2.216,0,0,1,1.874-.435l.225-1.384a3.261,3.261,0,0,0-1.525.036,4.047,4.047,0,0,0-1.479.755,4,4,0,0,0-1.234,1.551,3.437,3.437,0,0,0-.274,1.837,3.726,3.726,0,0,0,2.278,2.911,3.442,3.442,0,0,0,1.849.176,3.986,3.986,0,0,0,1.794-.819Zm5.305-11.7,3.443,6.022-1.394.8L57.1,38.785l-2.735,1.564,1.412,2.469-1.393.8-3.443-6.022,1.393-.8L53.7,39.171l2.735-1.564-1.357-2.374,1.393-.8Zm8.865,1.932-2.951,1.289.032,1.608-1.508.658.056-7.594,1.453-.635,5.619,5.115-1.544.675-1.158-1.116Zm-.951-.915L62.31,33.459l.056,2.874,2.016-.881Zm8.031-6.866-2.9.751a3.744,3.744,0,0,0-1.457.7,2.383,2.383,0,0,0-.784,1.125,2.535,2.535,0,0,0-.008,1.43,2.5,2.5,0,0,0,.714,1.254,2.271,2.271,0,0,0,1.263.568L68.368,36.8l1.64-.425.727-2.093,1.42-.368.462,1.784,1.535-.4-1.74-6.715Zm-2.531,2.007,1.324-.343.631,2.437-1.362.353a1.436,1.436,0,0,1-1.07-.061,1.218,1.218,0,0,1-.569-.815,1.185,1.185,0,0,1,.114-1,1.538,1.538,0,0,1,.932-.569Zm18.8,1.931.068,2.744-1.486.037-.035-1.437-4.894.12.035,1.437-1.486.037-.057-2.744.278-.007q.623-.034.859-.933a11.135,11.135,0,0,0,.255-2.554l.026-2.171,5.33-.131.138,5.627.971-.024Zm-5.044-3.187a14.577,14.577,0,0,1-.157,2.08,2.754,2.754,0,0,1-.455,1.246l3.1-.076-.106-4.319-2.377.058,0,1.011Zm9.619,4.982a4.049,4.049,0,0,1-1.9-.625A3.455,3.455,0,0,1,90.113,32.3a3.689,3.689,0,0,1,.3-3.664,3.457,3.457,0,0,1,1.459-1.167,4.294,4.294,0,0,1,3.876.321,3.537,3.537,0,0,1-.515,6.221,4.018,4.018,0,0,1-1.974.3Zm.113-1.363a2.2,2.2,0,0,0,1.13-.19,2.029,2.029,0,0,0,.84-.721,2.482,2.482,0,0,0,.19-2.291,2.029,2.029,0,0,0-.71-.849,2.324,2.324,0,0,0-2.212-.183,2.029,2.029,0,0,0-.84.721,2.482,2.482,0,0,0-.19,2.291,2.028,2.028,0,0,0,.71.849,2.2,2.2,0,0,0,1.083.373Zm9.551-4.084a3.851,3.851,0,0,1,1.489.662,2.3,2.3,0,0,1,.873,2.472,2.409,2.409,0,0,1-.66,1.215,2.337,2.337,0,0,1-1.216.612,3.907,3.907,0,0,1-1.627-.069l-1.361-.317-.434,1.862-1.563-.364L100,28.191l2.924.682Zm-.931,3.6a1.686,1.686,0,0,0,1.142-.054,1.244,1.244,0,0,0,.405-1.737,1.686,1.686,0,0,0-1-.554l-1.274-.3-.547,2.345,1.274.3Zm6.615,5.544a4.049,4.049,0,0,1-1.643-1.144,3.457,3.457,0,0,1-.8-1.69,3.688,3.688,0,0,1,1.342-3.423,3.452,3.452,0,0,1,1.732-.7,4.295,4.295,0,0,1,3.621,1.419,3.538,3.538,0,0,1-2.278,5.813,4.02,4.02,0,0,1-1.978-.275Zm.5-1.273a2.2,2.2,0,0,0,1.136.142,2.025,2.025,0,0,0,1.012-.45,2.481,2.481,0,0,0,.839-2.14,2.029,2.029,0,0,0-.437-1.017,2.321,2.321,0,0,0-2.067-.81,2.029,2.029,0,0,0-1.011.45,2.48,2.48,0,0,0-.839,2.14,2.032,2.032,0,0,0,.437,1.018,2.2,2.2,0,0,0,.93.668Zm11.4.679.655-1.132-4.254-2.422L113.475,39.9l1.387.789,2.776-4.9,2.868,1.633Zm2.942,6.938L120.813,42.5l-1.358.861-1.345-.947,6.522-3.89,1.3.913L124.47,46.9l-1.377-.97.354-1.569Zm.289-1.288.63-2.8L121.937,41.8l1.8,1.267Zm5.678,3.125,2.92,2.636-.967,1.022-2.92-2.636.968-1.022Zm8.214,12.959-2.162,1.692-.916-1.17,1.132-.886-3.017-3.855-1.131.886-.916-1.171,2.168-1.684.171.218q.4.48,1.261.133a11.12,11.12,0,0,0,2.2-1.32l1.758-1.275,3.285,4.2-4.432,3.469.6.765Zm-.453-5.949a14.517,14.517,0,0,1-1.763,1.116,2.762,2.762,0,0,1-1.271.378l1.911,2.442,3.4-2.663-1.466-1.873-.814.6ZM141,65.1l-1.874-3.278,1.393-.8,1.6,2.8,1.084-.62-1.6-2.8,1.308-.748,1.81,3.166,1.118-.639-2.6-4.551-6.022,3.443,2.666,4.663L141,65.1Zm6.877,4.535-.889-2.034-5.158,2.253-.635-1.453,5.158-2.253-.885-2.025,1.2-.523,2.408,5.512-1.2.523Zm3.46,6.324L144.7,78l-.467-1.515L146,75.94l-.432-1.4-2.123-.632-.5-1.62,2.424.768a2.269,2.269,0,0,1,.511-1.288A2.5,2.5,0,0,1,147.1,71a2.533,2.533,0,0,1,1.429-.056,2.382,2.382,0,0,1,1.159.732,3.75,3.75,0,0,1,.765,1.423l.88,2.86Zm-2.119-2.437a1.538,1.538,0,0,0-.61-.906,1.185,1.185,0,0,0-1.006-.069,1.219,1.219,0,0,0-.788.606,1.437,1.437,0,0,0-.012,1.072l.414,1.344,2.405-.74-.4-1.307ZM146.256,86.07l4.1-.667-3.7-1.475-.113-.7,2.975-2.544-4.022.644-.238-1.487,6.849-1.1.21,1.311L148.472,83.3l4.66,1.842.21,1.311-6.848,1.106Z" fill="#fff" fill-rule="evenodd"/><g transform="translate(53.558 47.019)"><path d="M98.413,117.819c-.89,0-1.061.219-.285,1.344l6.944,9.651c.927,1.215.645.986.189,1.854l-3.865,8.493c-.251.518-1.693,3.019-.747,3.019a12.778,12.778,0,0,0,2.549-1.334c2.208-1.119,4.554-2.622,6.716-3.876,1.112-.8,1.144-.569,2.072,1.287l2.736,5.5c.674,1.534,1.351,1.078,1.343-.875,0-1.13.342-4.141.351-5.533a54.76,54.76,0,0,1,.672-7.8l6.038-8.438c.689-.976,1.7-2.315,2.418-3.461.377-.6.351-.87.108-.946-.6-.189-2.553.834-2.957,1.034L112.678,122.9a1.422,1.422,0,0,1-.852.326c-1.894.174-1.85-.191-3.8-1.023C106.848,121.7,98.984,117.819,98.413,117.819Z" transform="translate(-97.634 -98.674)" fill="#d21113" fill-rule="evenodd"/><path d="M164.2,101.455a20.467,20.467,0,0,0,2.155,3.023c1.745,2.143,4.218,5.343,4.2,8.154-.008,1.62.194,3.658.236,5.059.121,4.042-.085,8.109.467,12.008.983.229,1.133.215,1.534-.585l1.606-3.337c.692-1.383,2.139-4.666,2.819-5.772.841-1.366,1.993-.453,2.435-.23l11.051,5.771c.79.413,1.592,1.193,2.309.6.478-.629-.116-1.326-.648-2.374-.83-1.633-2.443-4.229-3.412-6a63.369,63.369,0,0,1-3.266-6.032,3.3,3.3,0,0,1,.034-2.532,1.626,1.626,0,0,1,.512-1.018c.267-.292.446-.529.7-.826L195.49,97.2a3.06,3.06,0,0,0,1.076-2.1c-.933-.217-1.375.1-2.475.585l-11.862,4.85a6.749,6.749,0,0,1-2.443.852c-3.692.652-11.177-3.919-14.33-5.426-.433-.2-.749-.312-1.139-.509s-.784-.392-1.177-.589l-4.59-2.118c-.4.27-.365.284-.588.706C158.976,95.366,162.651,99.473,164.2,101.455Z" transform="translate(-132.351 -84.899)" fill="#fff" fill-rule="evenodd"/><path d="M198.912,93.612a5.073,5.073,0,1,0-5.1-5.073A5.1,5.1,0,0,0,198.912,93.612Z" transform="translate(-152.978 -79.559)" fill="#fff" fill-rule="evenodd"/><ellipse cx="3.944" cy="3.92" rx="3.944" ry="3.92" transform="translate(9.367 14.552)" fill="#d21113"/><path d="M130.818,74.262l2.269,2.947,3.908-.459-2.347,3.017,1.567,3.337L132.5,82.022l-2.94,2.521.048-3.686-3.383-1.779,3.749-1.2Z" transform="translate(-114.085 -74.262)" fill="#ffbc00" fill-rule="evenodd"/></g></g></svg>