<svg xmlns="http://www.w3.org/2000/svg" width="109.869" height="100" viewBox="0 0 109.869 100"><g transform="translate(-20.235 -27.688)"><path d="M109.859,44.953a.716.716,0,0,1-.694-.361c-.251-.49.189-1.225.429-1.564l.9-3.214c.082-.679,1.373-8.946,16.239-10.3l.695-.064-.368.593c-3.652,5.938-7.443,10.377-15.009,14.163a5.751,5.751,0,0,1-2.192.752Z" transform="translate(-68.189 -1.348)" fill="#cc8c51" fill-rule="evenodd"/><path d="M126.947,27.688l-1.392.125c-8,.731-12.068,3.532-14.067,5.754a9.622,9.622,0,0,0-2.481,4.821l-.883,3.141a1.99,1.99,0,0,0-.413,1.873,1.052,1.052,0,0,0,1,.55,5.918,5.918,0,0,0,2.346-.786c7.647-3.824,11.468-8.3,15.153-14.292l.735-1.186Zm-1.33.821c-3.792,6.162-7.578,10.386-14.867,14.03a5.417,5.417,0,0,1-2.037.713c-.975,0,.052-1.422.052-1.422l.93-3.3S110.56,29.884,125.617,28.509Z" transform="translate(-67.043)" fill="#ffdcaf" fill-rule="evenodd"/><path d="M114.327,51.871l.065-.09c.251-.352,6.258-8.723,13.234-10.652a41.146,41.146,0,0,1,10.665-1.487c1.111,0,1.743.056,1.769.06l.653.06-.413.507c-.258.318-6.368,7.8-12.131,10.145-5.449,2.217-9.316,3.6-9.658,3.725l-4.17,2.217Z" transform="translate(-72.208 -9.174)" fill="#cc8c51" fill-rule="evenodd"/><path d="M137.127,38.146h0a41.456,41.456,0,0,0-10.762,1.5C119.273,41.6,113.2,50.07,112.941,50.431l-.131.185,0,.219.01,3.8.009,1.156,1.022-.541,3.631-1.934c.473-.167,4.306-1.547,9.651-3.726,5.844-2.376,12.008-9.926,12.27-10.248l.819-1.014-1.3-.12c-.03,0-.677-.06-1.8-.06Zm0,.7c1.109,0,1.737.06,1.737.06s-6.244,7.7-11.991,10.037-9.669,3.734-9.669,3.734l-3.678,1.955-.013-3.794s6.107-8.6,13.042-10.519A40.5,40.5,0,0,1,137.127,38.842Z" transform="translate(-71.044 -8.026)" fill="#ffdcaf" fill-rule="evenodd"/><path d="M123.868,79.26a.9.9,0,0,1-.554-.1l-.258-.193,2.937-4.757.027-.03a19.222,19.222,0,0,1,11.22-5.156c1.339-.1,2.587-.15,3.7-.15,3.577,0,4.759.511,4.808.533l.469.215-.373.357c-.064.065-6.565,6.3-14.156,7.962a46.228,46.228,0,0,1-7.822,1.323Z" transform="translate(-78.907 -31.604)" fill="#cc8c51" fill-rule="evenodd"/><path d="M139.4,67.373h0c-1.124,0-2.378.047-3.727.151a19.545,19.545,0,0,0-11.443,5.26l-.054.056-.043.069-2.748,4.452-.337.545.517.383a1.2,1.2,0,0,0,.761.172,46.667,46.667,0,0,0,7.9-1.328c7.687-1.68,14.06-7.8,14.326-8.053l.739-.718-.939-.421c-.129-.06-1.362-.568-4.95-.568Zm0,.7c3.541,0,4.664.5,4.664.5s-6.407,6.209-13.991,7.872a46.483,46.483,0,0,1-7.747,1.315c-.3,0-.345-.039-.345-.039l2.748-4.452a19.048,19.048,0,0,1,11-5.054C137.173,68.112,138.389,68.073,139.4,68.073Z" transform="translate(-77.37 -30.455)" fill="#ffdcaf" fill-rule="evenodd"/><path d="M127.057,37.278a31.535,31.535,0,0,0-14.191,11.091l.355.975C118.21,41.42,127.057,37.278,127.057,37.278Z" transform="translate(-71.087 -7.36)" fill="#60300e" fill-rule="evenodd"/><path d="M146.518,46.81A40.38,40.38,0,0,0,127.36,57.277v1.156C134.7,50.235,146.518,46.81,146.518,46.81Z" transform="translate(-82.21 -14.675)" fill="#60300e" fill-rule="evenodd"/><path d="M147.218,75.8s-10.623.645-17.678,4.967l.269.8C136.463,77.177,147.218,75.8,147.218,75.8Z" transform="translate(-83.883 -36.92)" fill="#60300e" fill-rule="evenodd"/><path d="M57.42,73.474c.009-.124.853-12.835,15.033-18.5l.5-.2-.02.537c-.288,8.59-7.309,18.937-10.469,22.336C58.9,81.467,57.31,82,57.244,82.026l-.494.155Z" transform="translate(-28.022 -20.786)" fill="#cc8c51" fill-rule="evenodd"/><path d="M72.043,52.519l-1,.4A24.166,24.166,0,0,0,57.977,64.473,20.1,20.1,0,0,0,55.8,71.731L55.168,79.9l-.081,1.036.988-.314c.174-.056,1.809-.649,5.367-4.473C64.629,72.724,71.712,62.282,72,53.589l.039-1.07Zm-.735,1.044c-.282,8.375-7.071,18.555-10.377,22.112-3.536,3.8-5.066,4.284-5.066,4.284l.627-8.19S57.171,59.214,71.308,53.563Z" transform="translate(-26.746 -19.056)" fill="#ffdcaf" fill-rule="evenodd"/><path d="M80.043,69.7A38.1,38.1,0,0,0,69.866,88.136l.812.864C72.386,78.425,80.043,69.7,80.043,69.7Z" transform="translate(-38.088 -32.242)" fill="#60300e" fill-rule="evenodd"/><path d="M67.362,96.216A17.7,17.7,0,0,1,69.8,88.095c2.243-3.962,7.064-9.226,17.289-11.787l.632-.159-.213.61c-1.972,5.646-13.041,18.881-19.757,19.8l-.391.051Z" transform="translate(-36.166 -37.19)" fill="#cc8c51" fill-rule="evenodd"/><path d="M87.111,74.025l-1.257.314C75.509,76.93,70.621,82.275,68.348,86.293a18.024,18.024,0,0,0-2.492,8.293l0,.795.791-.107c7.075-.963,18.056-14.352,20.039-20.028l.423-1.22Zm-1.087.993c-1.893,5.431-12.756,18.649-19.472,19.564C66.552,94.582,66.461,79.92,86.023,75.018Z" transform="translate(-35.01 -35.56)" fill="#ffdcaf" fill-rule="evenodd"/><path d="M91.354,86.993a32.333,32.333,0,0,0-14.3,14.829l.335,1.019A36.166,36.166,0,0,1,91.354,86.993Z" transform="translate(-43.604 -45.512)" fill="#60300e" fill-rule="evenodd"/><path d="M73.758,116.087a2.74,2.74,0,0,1-.554-.039l-.383-.065.112-.378c.09-.3,2.286-7.468,7.451-11.185,5.135-3.691,15.074-5.491,15.5-5.56l.967-.172-.643.744c-.075.086-7.6,8.779-12.422,12.336-5.288,3.9-8.777,4.319-10.027,4.319Z" transform="translate(-40.356 -54.487)" fill="#cc8c51" fill-rule="evenodd"/><path d="M96.268,96.471l-1.934.34c-.429.077-10.443,1.886-15.641,5.625-5.262,3.786-7.492,11.065-7.582,11.37l-.23.752.774.137a4.314,4.314,0,0,0,.614.039c1.287,0,4.864-.425,10.235-4.387,4.856-3.579,12.169-12.032,12.481-12.388l1.283-1.487ZM94.455,97.5s-7.515,8.705-12.364,12.28c-5.212,3.846-8.611,4.254-9.821,4.254a3.1,3.1,0,0,1-.49-.03s2.194-7.313,7.322-11S94.455,97.5,94.455,97.5Z" transform="translate(-38.867 -52.785)" fill="#ffdcaf" fill-rule="evenodd"/><path d="M30.285,132.142c-.06-.206-1.508-5.109,1.65-12.023a32.094,32.094,0,0,1,6.253-8.89l.408-.421.176.559c2.212,7.06-.662,15.714-2.57,20.243a20.416,20.416,0,0,0-1.478,7.455l0,.254-2.015.739Z" transform="translate(-7.419 -63.788)" fill="#cc8c51" fill-rule="evenodd"/><path d="M37.608,107.945l-.818.842a32.51,32.51,0,0,0-6.319,8.99c-3.21,7.034-1.732,12.062-1.667,12.272l2.32,7.563.215.7.7-.254,1.437-.529.466-.176-.011-.5a20.063,20.063,0,0,1,1.449-7.309c1.929-4.572,4.827-13.317,2.58-20.484l-.348-1.122Zm-.318,1.328c2.263,7.223-.941,16.165-2.557,20.007a20.536,20.536,0,0,0-1.5,7.6l-1.435.529-2.32-7.562s-1.5-4.9,1.633-11.774A31.652,31.652,0,0,1,37.29,109.273Z" transform="translate(-6.273 -61.591)" fill="#ffdcaf" fill-rule="evenodd"/><path d="M101.493,108.9s-10.008,3.051-16.57,11.37l.533.335C91.846,112.54,101.493,108.9,101.493,108.9Z" transform="translate(-49.643 -62.327)" fill="#60300e" fill-rule="evenodd"/><path d="M44.916,127.436A38.061,38.061,0,0,0,39.985,147.9l1.005.627C39.839,137.878,44.916,127.436,44.916,127.436Z" transform="translate(-15.112 -76.548)" fill="#60300e" fill-rule="evenodd"/><path d="M44.716,148.949a25.936,25.936,0,0,1,3.023-15.92c4.428-7.713,9.748-10.82,9.973-10.953l.507-.292.015.588a33.542,33.542,0,0,1-3.523,14.481c-3.126,6.05-7.688,11.945-9.572,12.375l-.357.077Z" transform="translate(-18.616 -72.21)" fill="#cc8c51" fill-rule="evenodd"/><path d="M57.335,119.214l-1.016.589c-.23.129-5.627,3.287-10.1,11.082a25.731,25.731,0,0,0-3.059,16.152l.131.718.709-.159c2-.455,6.585-6.321,9.808-12.551a33.281,33.281,0,0,0,3.564-14.653l-.032-1.177Zm-.668,1.19a32.809,32.809,0,0,1-3.487,14.313c-3.249,6.3-7.705,11.825-9.338,12.2a25.3,25.3,0,0,1,2.98-15.684C51.256,123.511,56.666,120.4,56.666,120.4Z" transform="translate(-17.396 -70.239)" fill="#ffdcaf" fill-rule="evenodd"/><path d="M60.337,137.967s-7.829,7.653-10.025,21.554l1.063,1.01A46.789,46.789,0,0,1,60.337,137.967Z" transform="translate(-23.082 -84.63)" fill="#60300e" fill-rule="evenodd"/><path d="M58.184,169.51c-2.323-13.273,13.982-20.9,15.162-21.429a.439.439,0,0,1,.291-.12h.187l.129.172c.146.228.331.507-3,8.126-4.905,11.207-12.021,13.441-12.322,13.527l-.376.112Z" transform="translate(-28.949 -92.299)" fill="#cc8c51" fill-rule="evenodd"/><path d="M72.493,146.465a.769.769,0,0,0-.479.172,36.152,36.152,0,0,0-8.473,5.509c-5.494,4.839-7.859,10.468-6.845,16.277l.138.774.752-.224c.3-.09,7.571-2.367,12.542-13.72,3.405-7.8,3.232-8.057,2.974-8.461a.733.733,0,0,0-.608-.327Zm0,.7c.127,0,.067.786-3.006,7.807-4.9,11.189-12.1,13.334-12.1,13.334C55,154.715,72.408,147.226,72.408,147.226S72.455,147.161,72.493,147.161Z" transform="translate(-27.805 -91.151)" fill="#ffdcaf" fill-rule="evenodd"/><path d="M28.9,221.582c-1.689-4.6-2.334-6.674-2.454-7.064A23.5,23.5,0,0,1,23.8,190.911l.241-.568.365.5c7.344,10.136,6.233,19.959,5.5,26.465a36.4,36.4,0,0,0-.326,4.142Z" transform="translate(-1.175 -124.824)" fill="#cc8c51" fill-rule="evenodd"/><path d="M22.789,187.313l-.483,1.135a23.808,23.808,0,0,0-.866,17.192,22.434,22.434,0,0,0,3.519,6.72c.165.529.814,2.578,2.439,7.013l1.356-.245a36.984,36.984,0,0,1,.324-4.108c.741-6.553,1.858-16.457-5.567-26.706l-.722-1Zm.157,1.41c9.128,12.6,5.038,24.853,5.111,30.41-1.9-5.169-2.466-7.107-2.466-7.107A22.946,22.946,0,0,1,22.946,188.723Z" transform="translate(0 -122.499)" fill="#ffdcaf" fill-rule="evenodd"/><path d="M33.323,205.733s-.307,8.611,5.614,21.339l1.663.623A61,61,0,0,1,33.323,205.733Z" transform="translate(-10.042 -136.635)" fill="#60300e" fill-rule="evenodd"/><path d="M76.328,161.172S70.665,165,64.812,174.759l.634,1.156A46.827,46.827,0,0,1,76.328,161.172Z" transform="translate(-34.209 -102.438)" fill="#60300e" fill-rule="evenodd"/><path d="M52.281,217.114c-.17,0-.624,0-.849-1.689-.589-1.057-7.8-14.653,1.113-28.287l.32-.49.28.516c5.251,9.7,1.921,21.588.5,26.663-.2.7-.349,1.238-.435,1.625-.27,1.229-.515,1.663-.932,1.663Z" transform="translate(-21.401 -121.988)" fill="#cc8c51" fill-rule="evenodd"/><path d="M51.674,183.71l-.645.98a27.291,27.291,0,0,0-4.093,19.783,28.965,28.965,0,0,0,2.937,8.814c.184,1.328.554,1.925,1.186,1.925.782,0,1.051-.919,1.271-1.942.084-.37.237-.915.428-1.6,1.433-5.118,4.789-17.1-.531-26.925l-.554-1.032Zm-.058,1.362c5.91,10.932.741,24.888.034,28.047-.232,1.044-.425,1.392-.591,1.392-.329,0-.512-1.452-.512-1.452S42.4,199.184,51.616,185.072Z" transform="translate(-20.179 -119.734)" fill="#ffdcaf" fill-rule="evenodd"/><path d="M61.532,201.649s-3.771,9.54.358,23.393l1.386.46A42.245,42.245,0,0,1,61.532,201.649Z" transform="translate(-30.484 -133.501)" fill="#60300e" fill-rule="evenodd"/><path d="M66.636,218.2l-.014-.039c-.116-.37-2.847-9.093,7.264-20.08l.426-.464.167.606c2.587,9.363-1.327,23.565-4.2,25.232l-.295.167Z" transform="translate(-35.276 -130.41)" fill="#cc8c51" fill-rule="evenodd"/><path d="M73.386,194.611l-.85.924c-5.331,5.8-7.048,11-7.554,14.352a14.18,14.18,0,0,0,.219,6.076l.028.077.039.073,3.153,5.1.359.58.589-.339c1.736-1.014,3.4-5.672,4.288-9.836.718-3.386,1.685-9.939.067-15.8l-.338-1.212Zm-.337,1.4c2.649,9.6-1.51,23.371-4.032,24.836l-3.155-5.1S62.962,206.978,73.049,196.008Z" transform="translate(-34.183 -128.099)" fill="#ffdcaf" fill-rule="evenodd"/><path d="M79.627,212.809S76,218.6,74.6,229.9l1.047.8A46.9,46.9,0,0,1,79.627,212.809Z" transform="translate(-41.717 -142.065)" fill="#60300e" fill-rule="evenodd"/><path d="M45.29,291.641c-.344,0-1.4,0-7.215-4.237-10.682-7.782-9.686-21.1-9.673-21.24l.043-.554.481.284c2.338,1.379,6,4.971,9.8,9.608,3.1,3.777,6.181,12.9,6.469,13.772.4.545.989,1.491.72,2.028a.647.647,0,0,1-.625.339Z" transform="translate(-6.245 -182.585)" fill="#cc8c51" fill-rule="evenodd"/><path d="M26.967,263.116l-.094,1.1A26.2,26.2,0,0,0,27.666,272a23.881,23.881,0,0,0,9.028,13.773c5.235,3.815,6.714,4.3,7.416,4.3a.989.989,0,0,0,.937-.532c.266-.533.026-1.32-.718-2.346-.377-1.135-3.424-10.068-6.514-13.832-3.82-4.662-7.518-8.289-9.889-9.685l-.958-.563Zm.6,1.165c2.655,1.568,6.529,5.646,9.706,9.526S43.7,287.523,43.7,287.523s1.379,1.857.408,1.857c-.692,0-2.578-.941-7.008-4.168C26.454,277.455,27.569,264.281,27.569,264.281Z" transform="translate(-5.066 -180.671)" fill="#ffdcaf" fill-rule="evenodd"/><path d="M36.141,279.891s2.494,7.8,12.038,17.334l1.727.039A58.1,58.1,0,0,1,36.141,279.891Z" transform="translate(-12.207 -193.545)" fill="#60300e" fill-rule="evenodd"/><path d="M68.552,279.593a.836.836,0,0,1-.6-.314c-.632-.563-12.148-11.082-8.3-26.835l.142-.58.436.408c.08.077,7.981,7.623,9.021,18.331.748,7.709.028,8.5-.208,8.762a.645.645,0,0,1-.488.227Z" transform="translate(-29.645 -172.037)" fill="#cc8c51" fill-rule="evenodd"/><path d="M58.436,249l-.286,1.165a27.138,27.138,0,0,0,2.7,19.787,28.98,28.98,0,0,0,5.7,7.373,1.171,1.171,0,0,0,.849.422,1.019,1.019,0,0,0,.748-.344c.316-.352,1.061-1.168.3-9.028-1.053-10.837-8.8-18.245-9.129-18.554L58.436,249Zm.4,1.332s7.872,7.408,8.914,18.108c.724,7.481.1,8.607-.35,8.607a.528.528,0,0,1-.348-.21S54.9,266.417,58.831,250.333Z" transform="translate(-28.488 -169.839)" fill="#ffdcaf" fill-rule="evenodd"/><path d="M66.423,269.176s1.028,10.2,11.058,20.609l1.443-.219A42.224,42.224,0,0,1,66.423,269.176Z" transform="translate(-35.446 -185.322)" fill="#60300e" fill-rule="evenodd"/><path d="M93.579,277.6a12.532,12.532,0,0,1-3.826-5.711c-1.35-3.652-2.278-10.051.975-19.792l.247-.735.386.666c.067.116,6.66,11.55,5.053,22.048-.533,3.494-2.544,3.588-2.626,3.588l-.116,0Z" transform="translate(-52.399 -171.654)" fill="#cc8c51" fill-rule="evenodd"/><path d="M89.732,247.764l-.486,1.461c-3.287,9.84-2.346,16.32-.971,20.024a12.935,12.935,0,0,0,3.945,5.874l.194.138.234,0c.1,0,2.385-.1,2.961-3.889,1.626-10.618-4.821-21.8-5.1-22.275l-.777-1.328Zm.176,1.68s6.617,11.322,5.01,21.821c-.5,3.248-2.29,3.291-2.29,3.291S83.673,268.123,89.908,249.444Z" transform="translate(-51.246 -168.89)" fill="#ffdcaf" fill-rule="evenodd"/><path d="M101.42,272.981s.179,11,3.819,18.537l1.149.267C102.486,283.8,101.42,272.981,101.42,272.981Z" transform="translate(-62.303 -188.242)" fill="#60300e" fill-rule="evenodd"/><path d="M84.164,370a18.615,18.615,0,0,1-10.543-3.587,29.084,29.084,0,0,1-10.334-13.729l-.231-.649.659.193a92.361,92.361,0,0,1,12.019,4.744c6.875,3.348,11.561,7.215,13.93,11.495l.193.343-.365.146A13.825,13.825,0,0,1,84.164,370Z" transform="translate(-32.863 -248.911)" fill="#cc8c51" fill-rule="evenodd"/><path d="M60.664,349.744l.455,1.294a29.41,29.41,0,0,0,10.466,13.9,18.947,18.947,0,0,0,10.743,3.656,14.241,14.241,0,0,0,5.464-1.069l.726-.3-.378-.684c-2.406-4.344-7.146-8.263-14.09-11.64a90.745,90.745,0,0,0-12.07-4.761l-1.315-.4Zm1.113,1.066a89.879,89.879,0,0,1,11.969,4.718c5.3,2.579,11,6.334,13.78,11.353a13.607,13.607,0,0,1-5.2,1.014,18.307,18.307,0,0,1-10.343-3.532A28.821,28.821,0,0,1,61.777,350.81Z" transform="translate(-31.026 -247.151)" fill="#ffdcaf" fill-rule="evenodd"/><path d="M76.242,363.788s5.1,6.4,17.413,11.928l1.626-.576A58.124,58.124,0,0,1,76.242,363.788Z" transform="translate(-42.981 -257.929)" fill="#60300e" fill-rule="evenodd"/><path d="M109.757,349.724a.341.341,0,0,1-.3-.18c-2.073-.262-18.756-2.982-21.4-22.5l-.085-.61.563.24c.559.232,13.714,5.831,18,15.049,2.2,4.73,3.057,6.531,3.365,7.172h.008l.1.189a.949.949,0,0,1,.077.19l.177.36-.245-.026-.078.12Z" transform="translate(-51.984 -229.26)" fill="#cc8c51" fill-rule="evenodd"/><path d="M86.144,324.029l.158,1.216c2.631,19.384,18.94,22.422,21.569,22.783a.629.629,0,0,0,.483.2h.38l.062-.1.666.069-.453-.911a2.026,2.026,0,0,0-.076-.193l-.163-.374-.041-.009c-.371-.765-1.253-2.634-3.274-6.983-4.346-9.337-17.622-14.988-18.191-15.224l-1.121-.477Zm22.132,23.345h.021a1.445,1.445,0,0,1,.058.155s-.021-.034-.079-.155ZM87,325.151s13.544,5.672,17.827,14.876c2.436,5.234,3.222,6.893,3.452,7.347C107.574,347.3,89.727,345.29,87,325.151Z" transform="translate(-50.58 -227.417)" fill="#ffdcaf" fill-rule="evenodd"/><path d="M97.607,340.49s4.5,9.217,17.508,15.511l.962-.79A40.3,40.3,0,0,1,97.607,340.49Z" transform="translate(-59.377 -240.049)" fill="#60300e" fill-rule="evenodd"/><path d="M133.176,336.144c-1.367,0-3.776-1.4-7.359-4.271a27.978,27.978,0,0,1-6.985-8.1,21.634,21.634,0,0,1-2.922-12.646l.081-.563.467.327c.071.051,7.083,5.058,10.645,10.184,3.838,5.525,6.734,10.8,6.76,10.85.129.283,1.13,2.595.432,3.673a1.248,1.248,0,0,1-1.119.55Z" transform="translate(-73.356 -217.081)" fill="#cc8c51" fill-rule="evenodd"/><path d="M114.581,307.882l-.163,1.134a22.014,22.014,0,0,0,2.963,12.87,28.177,28.177,0,0,0,7.073,8.2c4.859,3.9,6.647,4.348,7.575,4.348a1.586,1.586,0,0,0,1.416-.708c.78-1.208-.194-3.528-.4-3.979l-.009-.026-.013-.021c-.03-.052-2.933-5.35-6.782-10.889-3.592-5.169-10.44-10.059-10.726-10.265l-.936-.666Zm.531,1.237s6.991,4.963,10.56,10.094c3.873,5.578,6.74,10.824,6.74,10.824s1.661,3.7-.382,3.7c-1.083,0-3.2-1.036-7.142-4.194a27.444,27.444,0,0,1-6.9-8A21.462,21.462,0,0,1,115.111,309.119Z" transform="translate(-72.208 -215.025)" fill="#ffdcaf" fill-rule="evenodd"/><path d="M124.885,327.243s3.214,8.092,14.588,17.536l.883-.3C129.268,335.695,124.885,327.243,124.885,327.243Z" transform="translate(-80.31 -229.883)" fill="#60300e" fill-rule="evenodd"/><path d="M160.578,429.161a30.332,30.332,0,0,1-4.778-.382c-6.136-.967-11.037-5.818-11.243-6.025l-.441-.438.606-.146a48.236,48.236,0,0,1,9.841-1.186,23.739,23.739,0,0,1,3.361.219c5.672.8,11.541,2.011,11.6,2.024l.275.055.062,4.087-.2.1a21.679,21.679,0,0,1-9.085,1.692Z" transform="translate(-95.069 -301.822)" fill="#cc8c51" fill-rule="evenodd"/><path d="M152.289,419.488a47.415,47.415,0,0,0-9.922,1.2l-1.214.291.885.881c.207.206,5.182,5.139,11.437,6.119a30.879,30.879,0,0,0,4.829.387,21.912,21.912,0,0,0,9.241-1.732l.4-.2-.009-.434-.058-3.588-.009-.558-.544-.117c-.064-.013-5.943-1.225-11.627-2.028a24.425,24.425,0,0,0-3.408-.219Zm0,.7a24.075,24.075,0,0,1,3.312.219c5.724.808,11.576,2.02,11.576,2.02l.056,3.584a21.545,21.545,0,0,1-8.929,1.654,30.735,30.735,0,0,1-4.722-.375c-6.1-.962-11.051-5.925-11.051-5.925A47.509,47.509,0,0,1,152.289,420.184Z" transform="translate(-92.795 -300.674)" fill="#ffdcaf" fill-rule="evenodd"/><path d="M156.967,427.672s9.112,4.068,22.712.674l.5-1.319A41.078,41.078,0,0,1,156.967,427.672Z" transform="translate(-104.931 -306.459)" fill="#60300e" fill-rule="evenodd"/><path d="M169.4,407.335a22.255,22.255,0,0,1-6.13-.812c-7.5-2.139-12.386-9-12.59-9.3l-.386-.55h.67a91.71,91.71,0,0,1,12.985,1.014c4.671.768,10.725,5.534,10.983,5.736l.148.12-.329,3.218-.243.056a23.7,23.7,0,0,1-5.109.515Z" transform="translate(-99.806 -283.167)" fill="#cc8c51" fill-rule="evenodd"/><path d="M148.731,395.158h-1.345l.778,1.1c.2.292,5.165,7.258,12.779,9.436a22.751,22.751,0,0,0,6.224.825,24.548,24.548,0,0,0,5.193-.524l.481-.12.049-.49.286-2.78.039-.382-.3-.237c-.26-.206-6.383-5.023-11.14-5.809a92.588,92.588,0,0,0-13.046-1.023Zm0,.7a92.086,92.086,0,0,1,12.93,1.01c4.637.765,10.82,5.672,10.82,5.672l-.284,2.775a23.553,23.553,0,0,1-5.029.507,22.132,22.132,0,0,1-6.035-.8c-7.46-2.136-12.4-9.165-12.4-9.165Z" transform="translate(-97.578 -282.003)" fill="#ffdcaf" fill-rule="evenodd"/><path d="M163.745,403.175s7.647,5.676,21.651,5.131v-.932C172.357,408.439,163.745,403.175,163.745,403.175Z" transform="translate(-110.132 -288.155)" fill="#60300e" fill-rule="evenodd"/><path d="M186.027,383.118a20.762,20.762,0,0,1-10.3-2.9c-5.468-3.262-8.9-10.142-9.048-10.434l-.354-.713.767.224a116.212,116.212,0,0,1,11.222,3.876c3.021,1.456,8.033,6.114,8.246,6.316l.094.09.337,3.5-.357.026s-.215.017-.608.017Z" transform="translate(-112.112 -261.983)" fill="#cc8c51" fill-rule="evenodd"/><path d="M163.471,366.652l.7,1.43c.148.3,3.631,7.266,9.182,10.574a21.052,21.052,0,0,0,10.481,2.952c.4,0,.623-.016.636-.016l.71-.052-.067-.713-.285-3.012-.028-.263-.193-.18c-.213-.2-5.266-4.895-8.334-6.372A113.3,113.3,0,0,0,165,367.107l-1.527-.454Zm1.33,1.121a116.513,116.513,0,0,1,11.17,3.859c3.01,1.448,8.16,6.253,8.16,6.253l.291,3.012s-.209.017-.585.017a20.473,20.473,0,0,1-10.124-2.853C168.272,374.815,164.8,367.773,164.8,367.773Z" transform="translate(-109.922 -260.127)" fill="#ffdcaf" fill-rule="evenodd"/><path d="M181.14,379.751s4.611,4.619,16.943,9.14l-.091-1.066C187.169,384.455,181.14,379.751,181.14,379.751Z" transform="translate(-123.481 -270.179)" fill="#60300e" fill-rule="evenodd"/><path d="M342.479,44.953a5.718,5.718,0,0,1-2.187-.752c-7.571-3.786-11.355-8.224-15.016-14.163l-.363-.593.692.064c14.867,1.358,16.161,9.625,16.24,10.3l.9,3.214c.241.34.678,1.075.427,1.564a.714.714,0,0,1-.7.361Z" transform="translate(-233.815 -1.348)" fill="#cc8c51" fill-rule="evenodd"/><path d="M322.059,27.688l.733,1.186c3.686,5.99,7.509,10.467,15.153,14.292a5.9,5.9,0,0,0,2.344.786,1.058,1.058,0,0,0,1.007-.55,2.019,2.019,0,0,0-.416-1.873L340,38.388a9.587,9.587,0,0,0-2.484-4.821c-2-2.222-6.06-5.023-14.066-5.754l-1.39-.125Zm1.326.821c15.06,1.375,15.929,10.021,15.929,10.021l.924,3.3s1.031,1.422.051,1.422a5.4,5.4,0,0,1-2.033-.713C330.962,38.895,327.179,34.671,323.385,28.509Z" transform="translate(-231.625)" fill="#ffdcaf" fill-rule="evenodd"/><path d="M307.289,54.14c-.341-.12-4.213-1.508-9.658-3.725-5.766-2.346-11.874-9.827-12.13-10.145l-.41-.507.649-.06c.026,0,.66-.06,1.772-.06a41.161,41.161,0,0,1,10.665,1.487c6.974,1.929,12.981,10.3,13.235,10.652l.063.09-.015,4.486Z" transform="translate(-203.255 -9.174)" fill="#cc8c51" fill-rule="evenodd"/><path d="M285.249,38.146c-1.13,0-1.777.06-1.8.06l-1.3.12.823,1.014c.261.322,6.427,7.872,12.271,10.248,5.345,2.179,9.176,3.558,9.647,3.726l3.634,1.934,1.028.541,0-1.156.014-3.8v-.219l-.129-.185C309.177,50.07,303.1,41.6,296,39.646a41.4,41.4,0,0,0-10.756-1.5Zm0,.7a40.5,40.5,0,0,1,10.571,1.474c6.936,1.921,13.044,10.519,13.044,10.519l-.016,3.794-3.682-1.955s-3.928-1.4-9.669-3.734S283.508,38.9,283.508,38.9,284.138,38.842,285.249,38.842Z" transform="translate(-200.992 -8.026)" fill="#ffdcaf" fill-rule="evenodd"/><path d="M312.554,79.26a46.213,46.213,0,0,1-7.819-1.323c-7.594-1.659-14.092-7.9-14.158-7.962l-.37-.357.468-.215c.05-.022,1.232-.533,4.809-.533,1.115,0,2.361.052,3.7.15a19.241,19.241,0,0,1,11.22,5.156l.027.03,2.937,4.757-.258.193a.923.923,0,0,1-.558.1Z" transform="translate(-207.181 -31.604)" fill="#cc8c51" fill-rule="evenodd"/><path d="M293.468,67.373c-3.59,0-4.824.507-4.952.568l-.936.421.738.718c.267.258,6.638,6.373,14.326,8.053a46.713,46.713,0,0,0,7.894,1.328,1.21,1.21,0,0,0,.764-.172l.515-.383-.335-.545-2.75-4.452-.041-.069-.056-.056a19.554,19.554,0,0,0-11.441-5.26c-1.349-.1-2.6-.151-3.727-.151Zm0,.7c1.016,0,2.228.039,3.673.146a19.049,19.049,0,0,1,11,5.054l2.746,4.452s-.048.039-.348.039a46.583,46.583,0,0,1-7.748-1.315c-7.58-1.663-13.984-7.872-13.984-7.872S289.921,68.073,293.468,68.073Z" transform="translate(-205.164 -30.455)" fill="#ffdcaf" fill-rule="evenodd"/><path d="M338.955,37.278a31.531,31.531,0,0,1,14.192,11.091l-.352.975C347.807,41.42,338.955,37.278,338.955,37.278Z" transform="translate(-244.591 -7.36)" fill="#60300e" fill-rule="evenodd"/><path d="M303.114,46.81a40.4,40.4,0,0,1,19.16,10.467v1.156C314.937,50.235,303.114,46.81,303.114,46.81Z" transform="translate(-217.086 -14.675)" fill="#60300e" fill-rule="evenodd"/><path d="M307.307,75.8s10.62.645,17.673,4.967l-.266.8C318.063,77.177,307.307,75.8,307.307,75.8Z" transform="translate(-220.304 -36.92)" fill="#60300e" fill-rule="evenodd"/><path d="M402.147,82.026c-.069-.021-1.663-.559-5.219-4.379-3.16-3.4-10.179-13.742-10.472-22.336l-.019-.537.5.2c14.18,5.668,15.026,18.378,15.031,18.507l.672,8.7Z" transform="translate(-281.03 -20.786)" fill="#cc8c51" fill-rule="evenodd"/><path d="M384.856,52.519l.036,1.07c.3,8.7,7.38,19.135,10.566,22.563,3.554,3.824,5.193,4.417,5.367,4.474l.99.314-.084-1.036-.632-8.19a20.04,20.04,0,0,0-2.176-7.24,24.173,24.173,0,0,0-13.074-11.555l-.995-.4Zm.737,1.044C399.73,59.214,400.4,71.77,400.4,71.77l.631,8.19s-1.529-.486-5.068-4.284C392.661,72.118,385.876,61.938,385.593,53.563Z" transform="translate(-279.816 -19.056)" fill="#ffdcaf" fill-rule="evenodd"/><path d="M399.238,69.7a38.1,38.1,0,0,1,10.175,18.434L408.6,89C406.892,78.425,399.238,69.7,399.238,69.7Z" transform="translate(-290.853 -32.242)" fill="#60300e" fill-rule="evenodd"/><path d="M377.915,96.56c-6.714-.919-17.782-14.154-19.755-19.8l-.21-.61.624.159c10.226,2.561,15.05,7.825,17.3,11.787a17.756,17.756,0,0,1,2.443,8.121l0,.4Z" transform="translate(-259.168 -37.19)" fill="#cc8c51" fill-rule="evenodd"/><path d="M355.593,74.025l.427,1.22C358,80.921,368.984,94.311,376.06,95.274l.788.107.007-.795a18.142,18.142,0,0,0-2.494-8.293c-2.277-4.018-7.165-9.363-17.512-11.954l-1.256-.314Zm1.087.993c19.564,4.9,19.476,19.564,19.476,19.564C369.435,93.667,358.577,80.449,356.68,75.018Z" transform="translate(-257.36 -35.56)" fill="#ffdcaf" fill-rule="evenodd"/><path d="M374.31,86.993a32.355,32.355,0,0,1,14.3,14.829l-.339,1.019A36.171,36.171,0,0,0,374.31,86.993Z" transform="translate(-271.723 -45.512)" fill="#60300e" fill-rule="evenodd"/><path d="M359.816,116.087c-1.252,0-4.737-.421-10.027-4.319-4.825-3.558-12.345-12.251-12.418-12.336l-.643-.744.965.172c.421.069,10.362,1.869,15.5,5.56,5.163,3.717,7.358,10.884,7.451,11.185l.112.378-.387.065a2.648,2.648,0,0,1-.553.039Z" transform="translate(-242.883 -54.487)" fill="#cc8c51" fill-rule="evenodd"/><path d="M332.821,96.471l1.284,1.487c.306.357,7.621,8.809,12.479,12.388,5.371,3.962,8.946,4.387,10.233,4.387a4.187,4.187,0,0,0,.613-.039l.774-.137-.224-.752c-.1-.305-2.322-7.584-7.587-11.37-5.193-3.739-15.214-5.547-15.639-5.625l-1.934-.34Zm1.813,1.032s10.227,1.817,15.353,5.5,7.322,11,7.322,11a3.13,3.13,0,0,1-.493.03c-1.205,0-4.6-.408-9.821-4.254C342.148,106.208,334.635,97.5,334.635,97.5Z" transform="translate(-239.884 -52.785)" fill="#ffdcaf" fill-rule="evenodd"/><path d="M446.221,139.319l0-.254a20.36,20.36,0,0,0-1.48-7.455c-1.906-4.529-4.779-13.184-2.567-20.243l.176-.559.408.421a32.177,32.177,0,0,1,6.252,8.89c3.158,6.914,1.713,11.816,1.65,12.023l-2.428,7.916Z" transform="translate(-323.192 -63.788)" fill="#cc8c51" fill-rule="evenodd"/><path d="M441.038,107.945l-.351,1.122c-2.243,7.167.654,15.912,2.586,20.484a19.976,19.976,0,0,1,1.445,7.309l-.008.5.469.176,1.434.529.7.254.215-.7,2.318-7.563c.069-.21,1.549-5.238-1.666-12.272a32.475,32.475,0,0,0-6.319-8.989l-.818-.842Zm.316,1.328a31.567,31.567,0,0,1,6.186,8.8c3.141,6.871,1.635,11.774,1.635,11.774l-2.318,7.562-1.438-.529a20.5,20.5,0,0,0-1.5-7.6C442.3,125.438,439.1,116.5,441.354,109.273Z" transform="translate(-322.037 -61.591)" fill="#ffdcaf" fill-rule="evenodd"/><path d="M356.684,108.9s10.009,3.051,16.569,11.37l-.531.335C366.333,112.54,356.684,108.9,356.684,108.9Z" transform="translate(-258.197 -62.327)" fill="#60300e" fill-rule="evenodd"/><path d="M451.466,127.436A38.066,38.066,0,0,1,456.4,147.9l-1.012.627C456.541,137.878,451.466,127.436,451.466,127.436Z" transform="translate(-330.934 -76.548)" fill="#60300e" fill-rule="evenodd"/><path d="M422.372,149.228c-1.886-.43-6.449-6.325-9.578-12.375a33.523,33.523,0,0,1-3.519-14.481l.016-.589.507.292c.226.133,5.543,3.24,9.973,10.953a25.873,25.873,0,0,1,3.021,15.92l-.065.357Z" transform="translate(-298.555 -72.21)" fill="#cc8c51" fill-rule="evenodd"/><path d="M407.8,119.214l-.027,1.177a33.235,33.235,0,0,0,3.564,14.653c3.22,6.23,7.8,12.1,9.808,12.551l.706.159.133-.718a25.753,25.753,0,0,0-3.064-16.152c-4.475-7.794-9.877-10.953-10.1-11.082l-1.019-.589Zm.668,1.19s5.414,3.107,9.849,10.824a25.292,25.292,0,0,1,2.977,15.684c-1.633-.37-6.089-5.9-9.34-12.2A32.861,32.861,0,0,1,408.465,120.4Z" transform="translate(-297.399 -70.239)" fill="#ffdcaf" fill-rule="evenodd"/><path d="M419.431,137.967s7.834,7.653,10.026,21.554l-1.062,1.01A46.777,46.777,0,0,0,419.431,137.967Z" transform="translate(-306.35 -84.63)" fill="#60300e" fill-rule="evenodd"/><path d="M401.234,169.785c-.3-.086-7.417-2.32-12.324-13.527-3.328-7.619-3.145-7.9-3-8.126l.1-.159.211-.013a.443.443,0,0,1,.292.12c1.182.533,17.484,8.156,15.159,21.429l-.069.387Z" transform="translate(-280.577 -92.299)" fill="#cc8c51" fill-rule="evenodd"/><path d="M385.057,146.465h0a.74.74,0,0,0-.608.327c-.258.4-.434.666,2.98,8.461,4.968,11.352,12.229,13.63,12.534,13.72l.761.224.132-.774c1.018-5.809-1.347-11.438-6.845-16.277a36.127,36.127,0,0,0-8.472-5.509.766.766,0,0,0-.481-.172Zm0,.7c.039,0,.087.064.087.064s17.4,7.489,15.025,21.077c0,0-7.206-2.144-12.105-13.334C384.995,147.947,384.932,147.161,385.057,147.161Z" transform="translate(-279.409 -91.151)" fill="#ffdcaf" fill-rule="evenodd"/><path d="M454.656,221.453a37.571,37.571,0,0,0-.327-4.142c-.735-6.506-1.843-16.329,5.5-26.465l.36-.5.244.568a23.482,23.482,0,0,1-2.652,23.607c-.116.391-.762,2.462-2.447,7.064Z" transform="translate(-332.722 -124.824)" fill="#cc8c51" fill-rule="evenodd"/><path d="M459.115,187.313l-.726,1c-7.421,10.249-6.307,20.153-5.563,26.71a37.622,37.622,0,0,1,.325,4.1l1.353.245c1.627-4.434,2.275-6.484,2.436-7.013a22.316,22.316,0,0,0,3.522-6.72,23.8,23.8,0,0,0-.862-17.192l-.485-1.135Zm-.157,1.41a22.951,22.951,0,0,1-2.646,23.3s-.571,1.938-2.464,7.107C453.915,213.576,449.828,201.325,458.958,188.723Z" transform="translate(-331.565 -122.499)" fill="#ffdcaf" fill-rule="evenodd"/><path d="M455.509,205.733s.305,8.611-5.611,21.339l-1.663.623A61.007,61.007,0,0,0,455.509,205.733Z" transform="translate(-328.454 -136.635)" fill="#60300e" fill-rule="evenodd"/><path d="M398.529,161.172s5.662,3.829,11.515,13.587l-.633,1.156A46.819,46.819,0,0,0,398.529,161.172Z" transform="translate(-290.309 -102.438)" fill="#60300e" fill-rule="evenodd"/><path d="M434.58,217.114c-.415,0-.656-.434-.927-1.663-.085-.387-.237-.928-.432-1.62-1.421-5.079-4.753-16.964.5-26.667l.277-.516.32.49c8.912,13.634,1.7,27.23,1.113,28.287-.225,1.68-.674,1.689-.848,1.689Z" transform="translate(-315.126 -121.988)" fill="#cc8c51" fill-rule="evenodd"/><path d="M432.811,183.71l-.558,1.032c-5.316,9.827-1.96,21.807-.524,26.929.189.683.341,1.229.423,1.6.226,1.023.492,1.942,1.27,1.942.636,0,1-.6,1.187-1.925a29.038,29.038,0,0,0,2.942-8.814,27.3,27.3,0,0,0-4.1-19.783l-.64-.98Zm.058,1.362c9.222,14.112,1.064,27.986,1.064,27.986s-.181,1.452-.511,1.452c-.159,0-.357-.348-.587-1.392C432.13,209.961,426.959,196,432.869,185.072Z" transform="translate(-313.967 -119.734)" fill="#ffdcaf" fill-rule="evenodd"/><path d="M440.375,201.649s3.766,9.54-.359,23.393l-1.387.46A42.241,42.241,0,0,0,440.375,201.649Z" transform="translate(-321.082 -133.501)" fill="#60300e" fill-rule="evenodd"/><path d="M412.465,223.46c-2.866-1.667-6.778-15.865-4.192-25.232l.168-.606.425.464c10.112,10.987,7.381,19.71,7.26,20.08l-.011.039-3.351,5.423Z" transform="translate(-297.138 -130.41)" fill="#cc8c51" fill-rule="evenodd"/><path d="M407.04,194.611l-.335,1.212c-1.62,5.856-.653,12.409.065,15.8.881,4.164,2.548,8.822,4.288,9.836l.589.339.357-.58,3.151-5.1.046-.073.023-.077a14.133,14.133,0,0,0,.218-6.076c-.5-3.348-2.223-8.555-7.552-14.352l-.851-.924Zm.34,1.4c10.083,10.97,7.185,19.736,7.185,19.736l-3.155,5.1C408.884,219.379,404.729,205.6,407.38,196.008Z" transform="translate(-295.905 -128.099)" fill="#ffdcaf" fill-rule="evenodd"/><path d="M416.613,212.809s3.625,5.792,5.035,17.089l-1.048.8A46.858,46.858,0,0,0,416.613,212.809Z" transform="translate(-304.187 -142.065)" fill="#60300e" fill-rule="evenodd"/><path d="M409.449,291.641a.652.652,0,0,1-.625-.339c-.269-.537.318-1.483.722-2.028.288-.868,3.37-9.995,6.472-13.772,3.794-4.637,7.459-8.229,9.8-9.608l.48-.284.047.554c.01.138,1,13.458-9.68,21.24-5.814,4.237-6.865,4.237-7.212,4.237Z" transform="translate(-298.158 -182.585)" fill="#cc8c51" fill-rule="evenodd"/><path d="M425.45,263.116l-.958.563c-3.416,2.011-8.057,7.446-9.892,9.685-3.089,3.764-6.136,12.7-6.514,13.832-.745,1.026-.986,1.813-.717,2.346a.985.985,0,0,0,.934.532c.7,0,2.183-.486,7.421-4.3A23.893,23.893,0,0,0,424.75,272a26.453,26.453,0,0,0,.793-7.782l-.093-1.1Zm-.6,1.165s1.113,13.174-9.535,20.931c-4.43,3.227-6.319,4.168-7.008,4.168-.969,0,.41-1.857.41-1.857s3.24-9.835,6.427-13.716S422.188,265.849,424.846,264.281Z" transform="translate(-297.011 -180.671)" fill="#ffdcaf" fill-rule="evenodd"/><path d="M431.3,279.891s-2.495,7.8-12.038,17.334l-1.73.039A58.073,58.073,0,0,0,431.3,279.891Z" transform="translate(-304.89 -193.545)" fill="#60300e" fill-rule="evenodd"/><path d="M408.936,279.593a.641.641,0,0,1-.483-.227c-.238-.262-.961-1.057-.208-8.762,1.041-10.708,8.939-18.254,9.018-18.331l.439-.408.142.58c3.848,15.753-7.67,26.272-8.3,26.835a.841.841,0,0,1-.606.314Z" transform="translate(-297.509 -172.037)" fill="#cc8c51" fill-rule="evenodd"/><path d="M416.745,249l-.869.821c-.329.309-8.077,7.717-9.129,18.554-.765,7.859-.022,8.676.3,9.028a1.013,1.013,0,0,0,.744.344,1.165,1.165,0,0,0,.851-.422,28.969,28.969,0,0,0,5.694-7.373,27.113,27.113,0,0,0,2.7-19.787L416.745,249Zm-.391,1.332c3.927,16.084-8.218,26.5-8.218,26.5a.522.522,0,0,1-.35.21c-.444,0-1.072-1.126-.348-8.607C408.482,257.741,416.354,250.333,416.354,250.333Z" transform="translate(-296.359 -169.839)" fill="#ffdcaf" fill-rule="evenodd"/><path d="M405.176,269.176s-1.03,10.2-11.057,20.609l-1.447-.219A42.219,42.219,0,0,0,405.176,269.176Z" transform="translate(-285.815 -185.322)" fill="#60300e" fill-rule="evenodd"/><path d="M392.165,277.668c-.085,0-2.09-.094-2.625-3.588-1.606-10.5,4.987-21.932,5.049-22.048l.39-.666.246.735c3.255,9.741,2.323,16.14.975,19.792a12.542,12.542,0,0,1-3.825,5.711l-.1.069Z" transform="translate(-283.218 -171.654)" fill="#cc8c51" fill-rule="evenodd"/><path d="M393.884,247.764l-.777,1.328c-.276.473-6.722,11.658-5.1,22.275.58,3.786,2.868,3.885,2.962,3.889l.239,0,.186-.138a12.9,12.9,0,0,0,3.95-5.874c1.37-3.7,2.318-10.184-.974-20.024l-.485-1.461Zm-.175,1.68c6.237,18.679-2.72,25.112-2.72,25.112s-1.794-.043-2.291-3.291C387.092,260.766,393.708,249.444,393.708,249.444Z" transform="translate(-282.033 -168.89)" fill="#ffdcaf" fill-rule="evenodd"/><path d="M395.036,272.981s-.18,11-3.815,18.537l-1.154.267C393.97,283.8,395.036,272.981,395.036,272.981Z" transform="translate(-283.815 -188.242)" fill="#60300e" fill-rule="evenodd"/><path d="M340.256,370a13.806,13.806,0,0,1-5.326-1.044l-.364-.146.187-.343c2.371-4.28,7.058-8.147,13.935-11.495a92.517,92.517,0,0,1,12.019-4.744l.658-.193-.229.649A29.079,29.079,0,0,1,350.8,366.415,18.608,18.608,0,0,1,340.26,370Z" transform="translate(-241.223 -248.911)" fill="#cc8c51" fill-rule="evenodd"/><path d="M360.291,349.744l-1.322.4A91.158,91.158,0,0,0,346.9,354.9c-6.941,3.378-11.679,7.3-14.086,11.64l-.377.684.721.3a14.254,14.254,0,0,0,5.464,1.069,18.932,18.932,0,0,0,10.742-3.656,29.382,29.382,0,0,0,10.467-13.9l.461-1.294Zm-1.12,1.066a28.78,28.78,0,0,1-10.207,13.553,18.3,18.3,0,0,1-10.343,3.532,13.62,13.62,0,0,1-5.2-1.014c2.778-5.018,8.482-8.774,13.782-11.353A90.014,90.014,0,0,1,359.171,350.81Z" transform="translate(-239.588 -247.151)" fill="#ffdcaf" fill-rule="evenodd"/><path d="M373.785,363.788s-5.1,6.4-17.414,11.928l-1.628-.576A58.141,58.141,0,0,0,373.785,363.788Z" transform="translate(-256.707 -257.929)" fill="#60300e" fill-rule="evenodd"/><path d="M329.326,349.724l-.08-.12-.246.026.18-.36a1.6,1.6,0,0,1,.073-.19l.085-.189.028,0c.311-.64,1.165-2.441,3.363-7.167,4.288-9.218,17.45-14.817,18.009-15.049l.559-.24-.08.61c-2.647,19.521-19.326,22.241-21.4,22.5a.333.333,0,0,1-.3.18Z" transform="translate(-236.951 -229.26)" fill="#cc8c51" fill-rule="evenodd"/><path d="M349.768,324.029l-1.128.477c-.562.236-13.841,5.887-18.182,15.224-2.027,4.349-2.905,6.217-3.278,6.987l-.039,0-.166.374c-.023.056-.053.124-.075.193l-.451.911.664-.069.062.1h.38a.632.632,0,0,0,.485-.2c2.631-.362,18.935-3.4,21.566-22.783l.163-1.216Zm-22.134,23.345c-.056.12-.077.155-.077.155a1.165,1.165,0,0,1,.058-.155Zm21.279-22.223c-2.733,20.14-20.574,22.151-21.279,22.223.232-.454,1.021-2.113,3.455-7.347C335.373,330.823,348.913,325.151,348.913,325.151Z" transform="translate(-234.993 -227.417)" fill="#ffdcaf" fill-rule="evenodd"/><path d="M354.29,340.49s-4.5,9.217-17.514,15.511l-.963-.79A40.32,40.32,0,0,0,354.29,340.49Z" transform="translate(-242.18 -240.049)" fill="#60300e" fill-rule="evenodd"/><path d="M317.906,336.144a1.256,1.256,0,0,1-1.124-.55c-.7-1.079.308-3.39.419-3.648.043-.078,2.938-5.351,6.777-10.875,3.558-5.126,10.572-10.133,10.643-10.184l.466-.327.08.563a21.575,21.575,0,0,1-2.917,12.646,27.867,27.867,0,0,1-6.987,8.1c-3.583,2.871-5.99,4.271-7.356,4.271Z" transform="translate(-227.388 -217.081)" fill="#cc8c51" fill-rule="evenodd"/><path d="M334.214,307.882l-.935.666c-.292.206-7.137,5.1-10.729,10.265-3.848,5.538-6.75,10.837-6.781,10.889l-.013.021-.013.026c-.2.451-1.173,2.771-.391,3.979a1.578,1.578,0,0,0,1.413.708c.924,0,2.714-.451,7.576-4.348a28.25,28.25,0,0,0,7.073-8.2,22,22,0,0,0,2.961-12.87l-.161-1.134Zm-.531,1.237a21.449,21.449,0,0,1-2.878,12.423,27.4,27.4,0,0,1-6.9,8c-3.943,3.158-6.061,4.194-7.139,4.194-2.045,0-.382-3.7-.382-3.7s2.871-5.246,6.742-10.824C326.692,314.083,333.684,309.119,333.684,309.119Z" transform="translate(-226.249 -215.025)" fill="#ffdcaf" fill-rule="evenodd"/><path d="M336.921,327.243s-3.213,8.092-14.589,17.536l-.881-.3C332.539,335.695,336.921,327.243,336.921,327.243Z" transform="translate(-231.158 -229.883)" fill="#60300e" fill-rule="evenodd"/><path d="M267.333,429.161a21.67,21.67,0,0,1-9.081-1.692l-.2-.1.06-4.087.272-.055c.064-.013,5.932-1.225,11.607-2.024a23.682,23.682,0,0,1,3.362-.219,48.153,48.153,0,0,1,9.834,1.186l.6.146-.435.438c-.21.207-5.1,5.058-11.244,6.025a30.337,30.337,0,0,1-4.779.382Z" transform="translate(-182.507 -301.822)" fill="#cc8c51" fill-rule="evenodd"/><path d="M272.192,419.488a24.458,24.458,0,0,0-3.412.219c-5.683.8-11.567,2.015-11.627,2.028l-.546.117-.009.558L256.544,426l-.006.434.391.2a21.909,21.909,0,0,0,9.241,1.732,30.933,30.933,0,0,0,4.832-.387c6.253-.98,11.228-5.913,11.439-6.119l.876-.881-1.207-.291a47.467,47.467,0,0,0-9.918-1.2Zm0,.7a47.408,47.408,0,0,1,9.751,1.178s-4.95,4.963-11.049,5.925a30.732,30.732,0,0,1-4.725.375,21.535,21.535,0,0,1-8.929-1.654l.056-3.584s5.851-1.211,11.58-2.02A24.023,24.023,0,0,1,272.192,420.184Z" transform="translate(-181.343 -300.674)" fill="#ffdcaf" fill-rule="evenodd"/><path d="M279.277,427.672s-9.112,4.068-22.712.674l-.507-1.319A41.086,41.086,0,0,0,279.277,427.672Z" transform="translate(-180.975 -306.459)" fill="#60300e" fill-rule="evenodd"/><path d="M261.66,407.335a23.782,23.782,0,0,1-5.111-.515l-.24-.056-.333-3.218.152-.12c.254-.2,6.312-4.968,10.981-5.736a91.714,91.714,0,0,1,12.983-1.014h.675l-.387.55c-.206.3-5.1,7.159-12.59,9.3a22.289,22.289,0,0,1-6.13.812Z" transform="translate(-180.911 -283.167)" fill="#cc8c51" fill-rule="evenodd"/><path d="M280.234,395.158h-1.348a92.542,92.542,0,0,0-13.039,1.023c-4.76.786-10.882,5.6-11.14,5.809l-.3.237.04.382.286,2.78.05.49.481.12a24.583,24.583,0,0,0,5.193.524,22.806,22.806,0,0,0,6.227-.825c7.61-2.179,12.57-9.144,12.777-9.436l.776-1.1Zm-1.348.7h0s-4.937,7.03-12.4,9.165a22.175,22.175,0,0,1-6.036.8,23.576,23.576,0,0,1-5.029-.507l-.286-2.775s6.186-4.907,10.822-5.672A92.07,92.07,0,0,1,278.887,395.859Z" transform="translate(-179.706 -282.003)" fill="#ffdcaf" fill-rule="evenodd"/><path d="M277.665,403.175s-7.649,5.676-21.654,5.131v-.932C269.051,408.439,277.665,403.175,277.665,403.175Z" transform="translate(-180.939 -288.155)" fill="#60300e" fill-rule="evenodd"/><path d="M258.646,383.118c-.4,0-.608-.017-.608-.017l-.355-.026.333-3.5.094-.09c.215-.2,5.227-4.86,8.248-6.312a115.783,115.783,0,0,1,11.22-3.88l.767-.224-.354.713c-.142.292-3.576,7.172-9.045,10.434a20.778,20.778,0,0,1-10.3,2.9Z" transform="translate(-182.223 -261.983)" fill="#cc8c51" fill-rule="evenodd"/><path d="M277.749,366.652l-1.529.454A113.435,113.435,0,0,0,264.946,371c-3.068,1.478-8.119,6.174-8.332,6.372l-.193.18-.028.263-.286,3.012-.069.713.709.052c.011,0,.238.017.636.017a21.05,21.05,0,0,0,10.478-2.952c5.554-3.308,9.036-10.278,9.181-10.574l.706-1.431Zm-1.335,1.121s-3.469,7.043-8.912,10.287a20.458,20.458,0,0,1-10.119,2.853c-.378,0-.582-.017-.582-.017l.291-3.012s5.152-4.8,8.155-6.253A116.548,116.548,0,0,1,276.414,367.773Z" transform="translate(-180.959 -260.127)" fill="#ffdcaf" fill-rule="evenodd"/><path d="M275.815,379.751s-4.609,4.619-16.939,9.14l.088-1.066C269.786,384.455,275.815,379.751,275.815,379.751Z" transform="translate(-183.137 -270.179)" fill="#60300e" fill-rule="evenodd"/><path d="M253.671,416.128h-.179a.818.818,0,0,1-.229.572.755.755,0,0,1-.548.236.763.763,0,0,1-.553-.236.832.832,0,0,1-.234-.572V406.7a.836.836,0,0,1,.234-.576.752.752,0,0,1,1.1,0,.821.821,0,0,1,.229.576v9.432h.35V406.7a1.154,1.154,0,0,0-.332-.816,1.092,1.092,0,0,0-.795-.34,1.107,1.107,0,0,0-.8.34,1.155,1.155,0,0,0-.327.816v9.432a1.147,1.147,0,0,0,.326.812,1.11,1.11,0,0,0,.8.343,1.094,1.094,0,0,0,.795-.343,1.146,1.146,0,0,0,.332-.812Z" transform="translate(-177.543 -289.971)" fill="#555554" fill-rule="evenodd"/><path d="M252.784,415.3a.959.959,0,1,1-1.917,0v-9.432a.959.959,0,1,1,1.917,0V415.3Zm.03-10.428a1.391,1.391,0,0,0-2.383,1V415.3a1.4,1.4,0,0,0,.4,1,1.382,1.382,0,0,0,.993.426,1.344,1.344,0,0,0,.986-.426,1.419,1.419,0,0,0,.383-.73l.023-9.7A1.391,1.391,0,0,0,252.814,404.873Z" transform="translate(-176.656 -289.143)" fill="#60300e" fill-rule="evenodd"/><path d="M254.224,416.694a.959.959,0,1,1-1.917,0v-9.432a.959.959,0,1,1,1.917,0Z" transform="translate(-178.096 -290.536)" fill="#cc8c51" fill-rule="evenodd"/><path d="M387.969,234.147Z" transform="translate(-282.205 -158.44)" fill="#48362e" fill-rule="evenodd"/><path d="M384.234,234.147h0Z" transform="translate(-279.129 -158.44)" fill="#48362e" fill-rule="evenodd"/><path d="M233.214,200.273l-3.457-.026s1.343.064,3.054.245C232.944,200.414,233.081,200.341,233.214,200.273Z" transform="translate(-160.791 -132.425)" fill="#ffdcaf" fill-rule="evenodd"/><path d="M184.96,167.393a27.211,27.211,0,0,1-5.29-.666l-.1-.021-64.588-64.614-1.276-1.108,8.555-8.594L187.8,157.931l.014.116c.184,1.233,1.042,7.386.184,8.581l-.019.039-.06.056a4.927,4.927,0,0,1-2.956.671Z" transform="translate(-71.733 -49.653)" fill="#cc8c51" fill-rule="evenodd"/><path d="M120.577,90.283l-.494.494-4.056,4.069-3.99,4-.526.529.563.494.994.868,64.5,64.523.144.143.193.046a28.1,28.1,0,0,0,5.367.671,5.25,5.25,0,0,0,3.154-.726l.013-.013.017-.012.107-.09.043-.086c.326-.46.6-1.482.3-4.992-.161-1.956-.435-3.807-.439-3.825l-.03-.232-.165-.159-65.2-65.212-.494-.494Zm0,.988,65.2,65.211s1.076,7.3.231,8.341a.043.043,0,0,0,0,.018,4.857,4.857,0,0,1-2.733.584,27.538,27.538,0,0,1-5.208-.653l-64.524-64.545-1.009-.881,3.992-4.009Z" transform="translate(-70.047 -48.036)" fill="#60300e" fill-rule="evenodd"/><path d="M75.3,50.719c.6-.7-.088-2.4-2.4-2.441.621-1.328-.863-2.574-2.791-2.441-.167.013,1.062-1.994-2.217-2.394.488-.889-.4-2.217-2.066-1.572-.016-.327.15-.838-.151-1.1a9.49,9.49,0,0,0-4.17.284,13.271,13.271,0,0,0-.528,3.932c.257.58.735.357,1.239.541-1.025,1.246.288,2.286,1.727,2.221-.842,1.023,1.182,2.862,2.308,2.441-.726.645.8,2.484,2.836,2.394-.975.842-.034,2.441,2.172,2.4a1.43,1.43,0,0,0,1.1,1.5c.421.137,1.01-.709,1.235-.945.647-.67,2.838-2.226,3.17-2.51C78.93,51.192,75.3,50.719,75.3,50.719Z" transform="translate(-31.253 -9.942)" fill="#60300e" fill-rule="evenodd"/><path d="M70.534,53.47l.023.331c.047.722.239.988.847,1.19.114-.009.355-.228.707-.653.069-.078.131-.15.176-.2a27.675,27.675,0,0,1,2.521-2.019c.311-.236.586-.438.674-.516.417-.352.615-.662.555-.868-.123-.413-1.171-.735-1.837-.825l-.636-.081.415-.49A.758.758,0,0,0,74,48.563a2.2,2.2,0,0,0-2.159-1.087l-.539-.009.225-.486a1,1,0,0,0-.06-1.027,2.63,2.63,0,0,0-2.393-.915l-.185.013-.124-.155a.48.48,0,0,1-.043-.46,1.214,1.214,0,0,0-.088-1.027,2.589,2.589,0,0,0-1.841-.769l-.511-.065.245-.451a.762.762,0,0,0-.024-.765,1.25,1.25,0,0,0-1.607-.314l-.451.176-.023-.485a2.441,2.441,0,0,1,.015-.348.981.981,0,0,0-.028-.486,4.451,4.451,0,0,0-.907-.06,10.077,10.077,0,0,0-2.817.335,18.171,18.171,0,0,0-.435,3.537c.083.172.165.189.46.219a2.088,2.088,0,0,1,.578.112l.457.172-.31.378a.852.852,0,0,0-.227.928,1.781,1.781,0,0,0,1.662.722l.791-.039-.5.61a.644.644,0,0,0-.02.726,2.234,2.234,0,0,0,1.7,1.2.669.669,0,0,0,.235-.038l.356.588c-.082.073-.09.2-.022.378a2.786,2.786,0,0,0,2.613,1.405l1-.043-.761.657a.663.663,0,0,0-.215.778,2.086,2.086,0,0,0,2.069,1.005l.417-.009Zm.866,2.222h0a.661.661,0,0,1-.208-.035,1.68,1.68,0,0,1-1.3-1.486,2.631,2.631,0,0,1-2.5-1.448,1.352,1.352,0,0,1,0-.975,3.346,3.346,0,0,1-2.634-1.826,1.307,1.307,0,0,1-.093-.485,3.014,3.014,0,0,1-2.155-1.59,1.516,1.516,0,0,1-.146-.924,2.227,2.227,0,0,1-1.784-1.1,1.409,1.409,0,0,1,.013-1.2,1.059,1.059,0,0,1-.988-.649c-.107-.237.129-4.121.7-4.392a10.121,10.121,0,0,1,3.205-.438c1.113,0,1.269.137,1.351.211a1.066,1.066,0,0,1,.295.894A1.778,1.778,0,0,1,67.105,41,1.485,1.485,0,0,1,67.3,42.01a2.849,2.849,0,0,1,1.912,1,1.769,1.769,0,0,1,.254,1.319,3.165,3.165,0,0,1,2.6,1.25,1.7,1.7,0,0,1,.249,1.229,2.758,2.758,0,0,1,2.327,1.47,1.613,1.613,0,0,1,.119,1.027c.662.137,1.725.481,1.946,1.233.148.5-.111,1.04-.771,1.6-.1.09-.359.279-.711.542a27.708,27.708,0,0,0-2.43,1.946c-.039.039-.088.095-.146.163-.4.477-.795.9-1.246.9Z" transform="translate(-30.192 -8.792)" fill="#ffdcaf" fill-rule="evenodd"/><path d="M202.325,159.743l-65.2-65.211L133.069,98.6l69.487,69.486C203.4,167.039,202.325,159.743,202.325,159.743Z" transform="translate(-86.591 -51.297)" fill="#ffdcaf" fill-rule="evenodd"/><path d="M115.907,116.018l1.009.881,64.524,64.545s6.153,1.427,7.936.069l.009-.018L119.9,112.009Z" transform="translate(-73.421 -64.709)" fill="#cc8c51" fill-rule="evenodd"/><path d="M129.429,131.213l1.251,1.38,1.381-1.388Z" transform="translate(-83.798 -79.44)" fill="#60300e" fill-rule="evenodd"/><path d="M152.284,108.906l1.3,1.354-1.482,1.268Z" transform="translate(-101.195 -62.328)" fill="#60300e" fill-rule="evenodd"/><path d="M365.207,344.147l6.2.232.876,12.715,6.087.241-.431-6.218-12.641-.555Z" transform="translate(-264.737 -242.856)" fill="#cc8c51" fill-rule="evenodd"/><path d="M364.627,343.6l.009-.167,6.194.219.174.164.868,12.565,5.724.219-.409-5.853-12.485-.55-.17-.177-.081-6.411.051-.129.134-.047-.009.167h.179l.079,6.248,12.483.545.167.167.43,6.209-.056.138-.129.056-6.087-.236-.17-.168L370.658,344l-6.036-.215,0-.185h0Z" transform="translate(-264.157 -242.304)" fill="#60300e" fill-rule="evenodd"/><path d="M375.228,352.986a1.658,1.658,0,1,1-1.775-1.534A1.664,1.664,0,0,1,375.228,352.986Z" transform="translate(-269.885 -248.459)" fill="#60300e" fill-rule="evenodd"/><path d="M404.215,381.114a1.659,1.659,0,1,1-1.768-1.543A1.659,1.659,0,0,1,404.215,381.114Z" transform="translate(-292.129 -270.039)" fill="#60300e" fill-rule="evenodd"/><path d="M373.789,334.178l-1.268-1.376-1.364,1.4Z" transform="translate(-269.304 -234.15)" fill="#60300e" fill-rule="evenodd"/><path d="M354.892,352.593l-1.3-1.341,1.471-1.284Z" transform="translate(-255.823 -247.323)" fill="#60300e" fill-rule="evenodd"/><path d="M397.725,358.064l-.084-2.849,3.173,2.9Z" transform="translate(-289.628 -251.35)" fill="#60300e" fill-rule="evenodd"/><path d="M378.889,377.493l-2.844.014,3.008,3.077Z" transform="translate(-273.054 -268.446)" fill="#60300e" fill-rule="evenodd"/><path d="M403.684,380.166l-.318-6.523c-.1-1.866-1.207-2.42-2.523-1.35l.191.193s.369.8.544,6.958a1.707,1.707,0,0,1-.374,1.293c-.424.387-.8.366-1.468.429a46.883,46.883,0,0,1-5.154-.133,3.563,3.563,0,0,1-1.428-.4c-.616-.305-.468-.489-.468-.489-1.245,1.319-.756,2.522,1.152,2.7l6.412.6A3.059,3.059,0,0,0,403.684,380.166Z" transform="translate(-285.3 -264.041)" fill="#cc8c51" fill-rule="evenodd"/><path d="M391.5,379.59a1.152,1.152,0,0,0-.255,1.023c.146.391.685.657,1.481.734l6.409.6a2.746,2.746,0,0,0,.309.017h0a2.733,2.733,0,0,0,2-.83,2.793,2.793,0,0,0,.738-2.1l-.32-6.524c-.048-.975-.4-1.555-.928-1.555a1.371,1.371,0,0,0-.727.249c.06.154.4,1.255.568,7.081a1.981,1.981,0,0,1-.486,1.56,2.074,2.074,0,0,1-1.414.5l-.254.022c-.212.021-.737.03-1.029.03-1.183,0-2.937-.052-4.192-.163a4,4,0,0,1-1.554-.43,2.42,2.42,0,0,1-.35-.21Zm7.943,3.073h0c-.123,0-.247-.009-.376-.017l-6.409-.6a2.258,2.258,0,0,1-2.069-1.186,2.081,2.081,0,0,1,.7-2.106.347.347,0,0,1,.6.249,1.343,1.343,0,0,0,.274.173,3.32,3.32,0,0,0,1.3.361c1.233.107,2.965.154,4.131.154.467,0,.827,0,.958-.017l.262-.026a1.429,1.429,0,0,0,1-.318c.177-.164.254-.473.261-1.035a38.4,38.4,0,0,0-.5-6.773l-.131-.133a.345.345,0,0,1,.028-.515,2.367,2.367,0,0,1,1.461-.619c.945,0,1.555.825,1.628,2.222l.318,6.523a3.519,3.519,0,0,1-.924,2.616,3.442,3.442,0,0,1-2.516,1.049Z" transform="translate(-284.147 -262.889)" fill="#60300e" fill-rule="evenodd"/><path d="M97.446,95.308a1.514,1.514,0,0,1-.52-.086l-.077-.026-.06-.06a5.74,5.74,0,0,1-1.415-3.764c-.286-4.151,4.961-12.513,5.184-12.865l.046-.077.075-.043c.324-.189,8.007-4.628,12.766-4.958.157-.009.305-.013.456-.013a3.832,3.832,0,0,1,3.515,1.706l.053.09v.1a1.366,1.366,0,0,1-.858,1.319,2.147,2.147,0,0,1-.834.2,1.815,1.815,0,0,1-.776-.2,2.04,2.04,0,0,0-.919-.211,5.748,5.748,0,0,0-1.749.357c-2.754.919-5.788,2-6.546,2.269-.171.688-.84,2.987-2.2,3.82a11.5,11.5,0,0,1-2.778,1.178c-.336,1.057-1.979,6.316-2.153,7.025-.03.12.163.417.32.653A2.024,2.024,0,0,1,99,94.543a2.167,2.167,0,0,1-1.555.765Z" transform="translate(-57.654 -35.092)" fill="#cc8c51" fill-rule="evenodd"/><path d="M112.753,71.919h0c-.157,0-.316,0-.481.013-4.836.335-12.59,4.817-12.915,5.006l-.148.086-.093.146c-.225.357-5.532,8.822-5.236,13.076A6.048,6.048,0,0,0,95.4,94.233l.116.116.148.056a2.031,2.031,0,0,0,.64.107,2.507,2.507,0,0,0,1.815-.885,2.363,2.363,0,0,0,0-3.248,3.4,3.4,0,0,1-.257-.434c.2-.739,1.375-4.534,2.073-6.764a11.685,11.685,0,0,0,2.687-1.169c1.378-.846,2.072-2.952,2.312-3.85.973-.348,3.79-1.345,6.36-2.2a5.505,5.505,0,0,1,1.641-.34h0a1.724,1.724,0,0,1,.777.18,2.108,2.108,0,0,0,.917.232,2.5,2.5,0,0,0,.969-.223,1.723,1.723,0,0,0,1.07-1.629l.008-.21-.112-.18a4.3,4.3,0,0,0-3.811-1.869Zm0,.7a3.569,3.569,0,0,1,3.218,1.539,1.038,1.038,0,0,1-.643,1.01,1.873,1.873,0,0,1-.7.168c-.559,0-.795-.413-1.695-.413a6.11,6.11,0,0,0-1.861.378c-3.195,1.065-6.728,2.333-6.728,2.333s-.626,2.888-2.089,3.786a11.264,11.264,0,0,1-2.874,1.19s-2.013,6.428-2.218,7.228c-.189.773,1.8,1.826.434,3.326a1.829,1.829,0,0,1-1.3.653,1.241,1.241,0,0,1-.408-.069A5.489,5.489,0,0,1,94.577,90.2c-.28-4.087,5.134-12.659,5.134-12.659s7.879-4.585,12.609-4.916Q112.544,72.615,112.753,72.615Z" transform="translate(-56.508 -33.944)" fill="#60300e" fill-rule="evenodd"/><path d="M383.117,49.82c-.593-.7.088-2.4,2.393-2.441-.617-1.328.863-2.569,2.795-2.44.167.012-1.064-1.994,2.217-2.394-.485-.885.4-2.217,2.064-1.568.018-.331-.148-.842.151-1.109a9.58,9.58,0,0,1,4.174.284,13.3,13.3,0,0,1,.524,3.932c-.253.58-.737.357-1.242.546,1.029,1.242-.283,2.286-1.723,2.222.842,1.018-1.182,2.858-2.308,2.437.729.644-.8,2.483-2.838,2.4.977.842.034,2.436-2.172,2.394a1.432,1.432,0,0,1-1.094,1.5c-.422.137-1.012-.714-1.238-.945-.645-.675-2.835-2.226-3.168-2.509C379.493,50.292,383.117,49.82,383.117,49.82Z" transform="translate(-276.832 -9.253)" fill="#60300e" fill-rule="evenodd"/><path d="M386.871,44.14a2.522,2.522,0,0,0-2.133.928.991.991,0,0,0-.061,1.023l.225.486-.537.009c-1.564.03-2.049.842-2.16,1.092a.737.737,0,0,0,.024.774l.417.49-.637.086c-.666.086-1.715.413-1.836.821-.06.206.135.52.554.868.088.082.359.284.675.516a28.686,28.686,0,0,1,2.517,2.02c.048.047.108.12.177.2.352.421.59.64.7.649.612-.2.8-.472.851-1.19l.021-.331.414.009a2.089,2.089,0,0,0,2.069-1,.675.675,0,0,0-.211-.782l-.767-.657,1.008.043a2.8,2.8,0,0,0,2.614-1.405c.067-.177.054-.305-.023-.378l.357-.589a.676.676,0,0,0,.236.039,2.236,2.236,0,0,0,1.7-1.2.653.653,0,0,0-.02-.731l-.5-.606.789.035A1.782,1.782,0,0,0,395,44.634a.857.857,0,0,0-.224-.928l-.316-.378.462-.172a2.2,2.2,0,0,1,.571-.111c.3-.034.381-.047.463-.219a18.093,18.093,0,0,0-.436-3.536,10.228,10.228,0,0,0-2.815-.335,4.417,4.417,0,0,0-.906.06.972.972,0,0,0-.026.49,2.5,2.5,0,0,1,.012.348l-.027.481-.449-.176a1.257,1.257,0,0,0-1.607.309.788.788,0,0,0-.025.769l.249.451-.512.064a2.612,2.612,0,0,0-1.842.765,1.226,1.226,0,0,0-.088,1.031.5.5,0,0,1-.046.464l-.1.129-.183.009c-.113-.009-.2-.009-.284-.009ZM384.807,54.8c-.451,0-.846-.425-1.245-.9-.056-.073-.106-.128-.142-.167a27.607,27.607,0,0,0-2.432-1.942c-.352-.267-.606-.451-.712-.542-.659-.558-.919-1.1-.77-1.6.223-.748,1.289-1.092,1.946-1.233a1.6,1.6,0,0,1,.118-1.027,2.777,2.777,0,0,1,2.327-1.47,1.677,1.677,0,0,1,.251-1.229,3.136,3.136,0,0,1,2.6-1.246A1.76,1.76,0,0,1,387,42.12a2.842,2.842,0,0,1,1.908-1,1.509,1.509,0,0,1,.2-1.006,1.778,1.778,0,0,1,1.955-.756,1.046,1.046,0,0,1,.3-.89c.081-.077.236-.211,1.349-.211a9.956,9.956,0,0,1,3.2.438c.566.266.8,4.151.7,4.387a1.055,1.055,0,0,1-.99.649,1.4,1.4,0,0,1,.014,1.2,2.231,2.231,0,0,1-1.78,1.1,1.557,1.557,0,0,1-.149.924,3,3,0,0,1-2.157,1.594,1.268,1.268,0,0,1-.09.486,3.355,3.355,0,0,1-2.634,1.826,1.357,1.357,0,0,1-.006.967,2.626,2.626,0,0,1-2.5,1.452,1.679,1.679,0,0,1-1.3,1.487.581.581,0,0,1-.211.034Z" transform="translate(-275.679 -8.111)" fill="#ffdcaf" fill-rule="evenodd"/><path d="M81.545,166.5a4.951,4.951,0,0,1-2.939-.654l-.06-.047-.034-.056c-.859-1.22,0-7.36.178-8.59l.017-.116L144.24,91.5l8.555,8.59-1.287,1.13L86.927,165.814l-.092.022A27.273,27.273,0,0,1,81.545,166.5Z" transform="translate(-44.434 -48.972)" fill="#cc8c51" fill-rule="evenodd"/><path d="M143.073,89.378l-.494.494-65.2,65.206-.164.168-.033.228c0,.021-.28,1.87-.441,3.824-.3,3.588-.01,4.577.327,5.028a.639.639,0,0,0,.126.141l.017.018.013.008a5.247,5.247,0,0,0,3.154.726,27.624,27.624,0,0,0,5.367-.675l.2-.043.139-.141,64.5-64.524.993-.868.563-.49-.526-.528-3.992-4-4.054-4.073-.5-.494Zm0,.984,4.054,4.073,4,4.009-1.015.881-64.521,64.54a27.389,27.389,0,0,1-5.208.659,4.8,4.8,0,0,1-2.729-.589s-.008-.008-.01-.013c-.849-1.048.234-8.349.234-8.349Z" transform="translate(-43.267 -47.342)" fill="#60300e" fill-rule="evenodd"/><path d="M80.18,158.82l65.2-65.211,4.054,4.073L79.946,167.169C79.1,166.121,80.18,158.82,80.18,158.82Z" transform="translate(-45.574 -50.589)" fill="#ffdcaf" fill-rule="evenodd"/><path d="M154.5,115.131l-1.015.881-64.521,64.54s-6.154,1.423-7.937.069c0,0-.008-.008-.01-.013l69.488-69.486Z" transform="translate(-46.646 -64.029)" fill="#cc8c51" fill-rule="evenodd"/><path d="M374.75,130.318l-1.253,1.388-1.376-1.388Z" transform="translate(-270.043 -78.76)" fill="#60300e" fill-rule="evenodd"/><path d="M355.7,108l-1.293,1.354,1.478,1.272Z" transform="translate(-256.446 -61.632)" fill="#60300e" fill-rule="evenodd"/><path d="M104.232,343.262l-6.195.223-.876,12.724-6.084.237.425-6.215,12.642-.554Z" transform="translate(-54.365 -242.177)" fill="#cc8c51" fill-rule="evenodd"/><path d="M103.637,342.707l-.007-.168-6.194.219-.174.164-.866,12.56-5.724.223.406-5.861,12.483-.541.172-.18.079-6.407-.052-.133-.131-.043.007.168h-.179l-.082,6.243L90.9,349.5l-.168.167-.429,6.209.051.138.132.056,6.087-.237.171-.167.869-12.556,6.03-.219,0-.18h0Z" transform="translate(-53.77 -241.622)" fill="#60300e" fill-rule="evenodd"/><path d="M126.672,352.1a1.661,1.661,0,1,0,1.775-1.534A1.658,1.658,0,0,0,126.672,352.1Z" transform="translate(-81.679 -247.775)" fill="#60300e" fill-rule="evenodd"/><path d="M97.674,380.209a1.662,1.662,0,1,0,1.771-1.548A1.661,1.661,0,0,0,97.674,380.209Z" transform="translate(-59.425 -269.339)" fill="#60300e" fill-rule="evenodd"/><path d="M130.372,333.274l1.265-1.375,1.369,1.4Z" transform="translate(-84.521 -233.456)" fill="#60300e" fill-rule="evenodd"/><path d="M153.106,351.694l1.3-1.345-1.469-1.285Z" transform="translate(-101.841 -246.629)" fill="#60300e" fill-rule="evenodd"/><path d="M104.66,357.158l.081-2.849L101.57,357.2Z" transform="translate(-62.418 -250.654)" fill="#60300e" fill-rule="evenodd"/><path d="M124.051,376.609l2.842.012-3.006,3.073Z" transform="translate(-79.545 -267.768)" fill="#60300e" fill-rule="evenodd"/><path d="M70.61,379.261l.32-6.523c.094-1.865,1.2-2.418,2.522-1.349l-.191.189s-.369.8-.546,6.965a1.69,1.69,0,0,0,.374,1.29c.42.386.8.365,1.466.438.488.043,3.311.017,5.156-.142a3.711,3.711,0,0,0,1.431-.4c.614-.305.466-.494.466-.494,1.242,1.319.755,2.522-1.156,2.7l-6.409.6A3.057,3.057,0,0,1,70.61,379.261Z" transform="translate(-38.655 -263.347)" fill="#cc8c51" fill-rule="evenodd"/><path d="M71.05,370.049c-.533,0-.879.584-.928,1.556l-.322,6.523a2.789,2.789,0,0,0,.737,2.1,2.729,2.729,0,0,0,2.316.816l6.409-.6c.79-.077,1.332-.344,1.478-.734a1.152,1.152,0,0,0-.254-1.023,2.519,2.519,0,0,1-.348.21,4.014,4.014,0,0,1-1.556.429c-1.25.112-3.007.164-4.193.164-.292,0-.812-.009-1.027-.026l-.258-.026a2.065,2.065,0,0,1-1.409-.5,1.957,1.957,0,0,1-.483-1.543c.161-5.84.5-6.944.565-7.1a1.41,1.41,0,0,0-.726-.249Zm1.494,11.71a3.426,3.426,0,0,1-2.512-1.049,3.49,3.49,0,0,1-.93-2.617l.322-6.522c.071-1.393.679-2.222,1.626-2.222a2.387,2.387,0,0,1,1.463.618.352.352,0,0,1,.13.258.367.367,0,0,1-.1.262l-.131.133c-.067.241-.353,1.56-.5,6.781,0,.551.084.859.26,1.022.262.245.48.271.992.318.086,0,.172.017.269.026.133.013.492.021.956.021,1.173,0,2.905-.047,4.134-.154a3.252,3.252,0,0,0,1.3-.365,1.212,1.212,0,0,0,.28-.167.347.347,0,0,1,.6-.249,2.07,2.07,0,0,1,.694,2.1,2.25,2.25,0,0,1-2.072,1.181l-6.411.6a3.318,3.318,0,0,1-.371.018Z" transform="translate(-37.497 -262.196)" fill="#60300e" fill-rule="evenodd"/><path d="M342.461,94.408a2.173,2.173,0,0,1-1.558-.769,2.02,2.02,0,0,1,.033-2.819c.157-.24.35-.533.322-.657-.179-.7-1.822-5.964-2.152-7.021a11.517,11.517,0,0,1-2.783-1.182c-1.357-.838-2.023-3.137-2.2-3.82-.757-.271-3.8-1.349-6.546-2.269a5.793,5.793,0,0,0-1.752-.356,2,2,0,0,0-.917.215,1.885,1.885,0,0,1-.777.2,2.168,2.168,0,0,1-.834-.2,1.366,1.366,0,0,1-.855-1.315l0-.107.055-.09a3.844,3.844,0,0,1,3.515-1.706c.146,0,.3,0,.456.017,4.759.326,12.439,4.765,12.766,4.959l.072.043.048.073c.222.353,5.465,8.723,5.184,12.865a5.7,5.7,0,0,1-1.42,3.764l-.056.06-.078.026a1.517,1.517,0,0,1-.522.09Z" transform="translate(-231.917 -34.398)" fill="#cc8c51" fill-rule="evenodd"/><path d="M324.854,71a4.293,4.293,0,0,0-3.815,1.878l-.106.176,0,.215a1.728,1.728,0,0,0,1.072,1.625,2.5,2.5,0,0,0,.967.219,2.216,2.216,0,0,0,.917-.223,1.667,1.667,0,0,1,.777-.185,5.588,5.588,0,0,1,1.639.34c2.57.859,5.393,1.86,6.367,2.2.242.894.934,3,2.308,3.85a11.982,11.982,0,0,0,2.687,1.169c.7,2.234,1.878,6.02,2.076,6.768a3.014,3.014,0,0,1-.26.434,2.359,2.359,0,0,0,0,3.245,2.511,2.511,0,0,0,1.814.885,2.026,2.026,0,0,0,.64-.107l.152-.052.113-.116a6.079,6.079,0,0,0,1.516-3.987c.29-4.258-5.012-12.724-5.239-13.08l-.089-.142-.148-.09c-.329-.189-8.078-4.671-12.917-5.006-.163-.009-.322-.017-.481-.017Zm0,.7c.138,0,.283,0,.432.017,4.733.327,12.611,4.911,12.611,4.911s5.413,8.577,5.133,12.659a5.5,5.5,0,0,1-1.316,3.541,1.239,1.239,0,0,1-.408.069,1.836,1.836,0,0,1-1.3-.653c-1.362-1.5.627-2.553.436-3.326-.2-.8-2.215-7.228-2.215-7.228a11.337,11.337,0,0,1-2.875-1.186c-1.465-.9-2.086-3.79-2.086-3.79s-3.536-1.268-6.731-2.333A6.075,6.075,0,0,0,324.671,74c-.9,0-1.134.409-1.694.409a1.884,1.884,0,0,1-.7-.168,1.033,1.033,0,0,1-.64-1.005A3.56,3.56,0,0,1,324.854,71.7Z" transform="translate(-230.761 -33.235)" fill="#60300e" fill-rule="evenodd"/><path d="M144.742,156.37a33.847,33.847,0,1,1,23.936-9.909,33.611,33.611,0,0,1-23.936,9.909Z" transform="translate(-69.577 -46.802)" fill="#cc8c51" fill-rule="evenodd"/><path d="M194.539,130.682H140.716a28.58,28.58,0,0,1,25.591-18.988h2.634a28.581,28.581,0,0,1,25.6,18.988Z" transform="translate(-92.459 -64.468)" fill="#ffdcaf" fill-rule="evenodd"/><path d="M169.579,293.891h-4.01A28.571,28.571,0,0,1,140.651,274.9h53.854a28.575,28.575,0,0,1-24.926,18.988Z" transform="translate(-92.41 -189.717)" fill="#e83539" fill-rule="evenodd"/><path d="M188.872,210.113H135.726a28.748,28.748,0,0,1,.017-20.879h53.111a28.718,28.718,0,0,1,.018,20.879Z" transform="translate(-87.13 -123.973)" fill="#00619f" fill-rule="evenodd"/><path d="M139.959,128.243s6-18.709,27.112-18.709,26.719,18.709,26.719,18.709Z" transform="translate(-91.878 -62.81)" fill="#fff" fill-rule="evenodd"/><path d="M190.672,141.394a26.9,26.9,0,1,1-53.8,0h0a26.9,26.9,0,0,1,53.8,0Zm-7.03-19.878a28.1,28.1,0,0,0-47.978,19.878h0a28.108,28.108,0,0,0,56.215,0h0A27.94,27.94,0,0,0,183.642,121.516Z" transform="translate(-88.582 -65.687)" fill="#ffdcaf" fill-rule="evenodd"/><path d="M152.315,98.374a31.573,31.573,0,0,0-31.57,31.579h3.172a28.405,28.405,0,1,1,56.811,0H183.9a31.582,31.582,0,0,0-31.585-31.579Z" transform="translate(-77.133 -54.246)" fill="#cc8c51" fill-rule="evenodd"/><path d="M180.727,234.147a28.405,28.405,0,0,1-56.811,0h-3.172a31.578,31.578,0,0,0,63.155,0h-3.173Z" transform="translate(-77.133 -158.44)" fill="#cc8c51" fill-rule="evenodd"/><path d="M180.358,234.147a31.148,31.148,0,0,1-62.3,0h-1.37a32.519,32.519,0,1,0,65.039,0h-1.373Z" transform="translate(-74.024 -158.44)" fill="#60300e" fill-rule="evenodd"/><path d="M149.206,94.31a32.521,32.521,0,0,0-32.513,32.524h1.37a31.148,31.148,0,0,1,62.3,0h1.373A32.526,32.526,0,0,0,149.206,94.31Z" transform="translate(-74.024 -51.127)" fill="#ffdcaf" fill-rule="evenodd"/><path d="M189.164,234.147a27.517,27.517,0,1,1-55.034,0H132.9a28.752,28.752,0,0,0,57.5,0h-1.235Z" transform="translate(-86.457 -158.44)" fill="#ffdcaf" fill-rule="evenodd"/><path d="M161.64,110.531A28.74,28.74,0,0,0,132.9,139.282h1.235c0-.593.017-1.186.056-1.775a27.517,27.517,0,0,1,54.977,1.775H190.4a28.755,28.755,0,0,0-28.76-28.751Z" transform="translate(-86.457 -63.575)" fill="#60300e" fill-rule="evenodd"/><path d="M238.574,90.684a11.5,11.5,0,0,1,7.857,0l.315.09-.114.31c-1.155,3.064-2.588,4.654-4.14,4.606-1.529.047-2.961-1.543-4.116-4.606l-.118-.31Z" transform="translate(-167.315 -47.81)" fill="#cc8c51" fill-rule="evenodd"/><path d="M245.825,89.559l-.634-.185a11.7,11.7,0,0,0-8.025,0l-.635.185.236.618c1.515,4.013,3.232,4.83,4.413,4.8,1.182.03,2.9-.786,4.413-4.8l.233-.619Zm-.8.4c-1.123,2.973-2.487,4.451-3.842,4.4-1.36.047-2.724-1.431-3.845-4.4a11.215,11.215,0,0,1,7.687,0Z" transform="translate(-165.989 -46.792)" fill="#60300e" fill-rule="evenodd"/><path d="M249.935,100.543a2,2,0,1,1,2-2A2,2,0,0,1,249.935,100.543Z" transform="translate(-174.742 -52.844)" fill="#60300e" fill-rule="evenodd"/><path d="M252.419,101.929a1.362,1.362,0,0,0-.357-2.664c-.017,0-.032,0-.043,0a1.369,1.369,0,0,0,0,2.737A1.393,1.393,0,0,0,252.419,101.929Z" transform="translate(-176.827 -54.926)" fill="#cc8c51" fill-rule="evenodd"/><path d="M253.64,100.45a1.234,1.234,0,0,0-1.143-.907c-.013,0-.026,0-.037,0a1.223,1.223,0,0,0-1.18.9c-.085.2-.068.391.059.4s.41-.464,1.13-.468.926.43,1.074.456S253.7,100.648,253.64,100.45Z" transform="translate(-177.268 -55.14)" fill="#ffdcaf" fill-rule="evenodd"/><path d="M144.072,127.271a11.518,11.518,0,0,1,5.554-5.556l.291-.155.137.3c1.345,2.986,1.461,5.122.327,6.183-1.044,1.117-3.18,1.005-6.17-.344l-.3-.138Z" transform="translate(-94.913 -72.039)" fill="#cc8c51" fill-rule="evenodd"/><path d="M148.651,119.713l-.583.318a11.75,11.75,0,0,0-5.672,5.676l-.32.575.6.275c3.912,1.766,5.7,1.13,6.513.271.86-.812,1.5-2.6-.273-6.514l-.27-.6Zm-.286.855c1.311,2.892,1.39,4.9.4,5.827-.926,1-2.935.915-5.833-.4a12.222,12.222,0,0,1,2.239-3.193A12.064,12.064,0,0,1,148.365,120.568Z" transform="translate(-93.504 -70.622)" fill="#60300e" fill-rule="evenodd"/><path d="M159.971,137.583a2,2,0,1,1,0-2.827A2,2,0,0,1,159.971,137.583Z" transform="translate(-104.617 -81.715)" fill="#60300e" fill-rule="evenodd"/><path d="M161.85,138.9a1.36,1.36,0,0,0-2.131-1.633.456.456,0,0,1-.035.03,1.366,1.366,0,0,0,1.93,1.934A1.479,1.479,0,0,0,161.85,138.9Z" transform="translate(-106.709 -83.81)" fill="#cc8c51" fill-rule="evenodd"/><path d="M161.05,139.559a1.36,1.36,0,0,0-.356-2.66c-.017,0-.033,0-.045,0a1.366,1.366,0,0,0,0,2.733A1.24,1.24,0,0,0,161.05,139.559Z" transform="translate(-106.709 -83.807)" fill="#cc8c51" fill-rule="evenodd"/><path d="M162.27,138.079a1.24,1.24,0,0,0-1.14-.907h-.04a1.219,1.219,0,0,0-1.178.9c-.088.2-.067.391.056.4s.41-.468,1.132-.473.926.43,1.07.46S162.328,138.276,162.27,138.079Z" transform="translate(-107.149 -84.02)" fill="#ffdcaf" fill-rule="evenodd"/><path d="M144.218,316.711c2.982-1.349,5.118-1.465,6.179-.327,1.118,1.04,1,3.175-.343,6.162l-.137.3-.288-.159a11.546,11.546,0,0,1-5.556-5.552l-.159-.292Z" transform="translate(-94.913 -220.954)" fill="#cc8c51" fill-rule="evenodd"/><path d="M148.659,322.278l.27-.606c1.769-3.91,1.132-5.7.273-6.514-.812-.855-2.6-1.5-6.514.275l-.6.275.317.576a12.912,12.912,0,0,0,2.338,3.335,13.075,13.075,0,0,0,3.334,2.342l.583.317Zm-.286-.855a11.208,11.208,0,0,1-5.436-5.432c2.9-1.311,4.912-1.392,5.833-.4C149.763,316.516,149.684,318.527,148.373,321.423Z" transform="translate(-93.512 -219.956)" fill="#60300e" fill-rule="evenodd"/><path d="M157.144,320.33a2,2,0,1,1,2.827,0A2,2,0,0,1,157.144,320.33Z" transform="translate(-104.617 -221.961)" fill="#60300e" fill-rule="evenodd"/><path d="M160.021,322.2a1.348,1.348,0,0,0,1.6-.236,1.363,1.363,0,0,0,.03-1.9.272.272,0,0,0-.03-.034,1.365,1.365,0,0,0-1.93,1.93A1.176,1.176,0,0,0,160.021,322.2Z" transform="translate(-106.715 -224.045)" fill="#cc8c51" fill-rule="evenodd"/><path d="M161.038,322.3a1.36,1.36,0,0,0-.356-2.66c-.017,0-.033,0-.045,0a1.367,1.367,0,1,0,.4,2.664Z" transform="translate(-106.696 -224.043)" fill="#cc8c51" fill-rule="evenodd"/><path d="M162.268,320.815a1.228,1.228,0,0,0-1.142-.9c-.015,0-.026,0-.038,0a1.223,1.223,0,0,0-1.178.9c-.088.2-.067.4.056.408s.41-.464,1.132-.472.926.434,1.07.464S162.328,321.017,162.268,320.815Z" transform="translate(-107.149 -224.254)" fill="#ffdcaf" fill-rule="evenodd"/><path d="M238.383,358.071c1.156-3.063,2.587-4.658,4.14-4.6,1.528-.06,2.961,1.534,4.116,4.6l.114.31-.315.09a11.5,11.5,0,0,1-7.854,0l-.317-.09Z" transform="translate(-167.322 -250.012)" fill="#cc8c51" fill-rule="evenodd"/><path d="M245.827,357.564l-.234-.618c-1.517-4.018-3.232-4.83-4.413-4.8-1.182-.03-2.9.782-4.413,4.8l-.236.618.636.184a11.83,11.83,0,0,0,8.025,0l.636-.184Zm-.806-.4a11.215,11.215,0,0,1-7.687,0c1.122-2.974,2.486-4.452,3.845-4.405C242.533,352.708,243.9,354.186,245.021,357.16Z" transform="translate(-165.989 -248.993)" fill="#60300e" fill-rule="evenodd"/><path d="M252.419,359.6a1.36,1.36,0,0,0-.357-2.66c-.017,0-.032,0-.043,0a1.367,1.367,0,0,0,0,2.733A1.238,1.238,0,0,0,252.419,359.6Z" transform="translate(-176.827 -252.669)" fill="#cc8c51" fill-rule="evenodd"/><path d="M249.93,358.2a2,2,0,1,1,2-2A2,2,0,0,1,249.93,358.2Z" transform="translate(-174.737 -250.569)" fill="#60300e" fill-rule="evenodd"/><path d="M252.419,359.6a1.36,1.36,0,0,0-.357-2.66c-.017,0-.032,0-.043,0a1.367,1.367,0,0,0,0,2.733A1.238,1.238,0,0,0,252.419,359.6Z" transform="translate(-176.827 -252.669)" fill="#cc8c51" fill-rule="evenodd"/><path d="M253.64,358.116a1.218,1.218,0,0,0-1.139-.9.076.076,0,0,0-.04-.009,1.225,1.225,0,0,0-1.18.9c-.085.2-.068.4.059.4s.41-.461,1.13-.468.926.429,1.074.459S253.7,358.318,253.64,358.116Z" transform="translate(-177.268 -252.88)" fill="#ffdcaf" fill-rule="evenodd"/><path d="M339.147,122.053a11.516,11.516,0,0,1,5.553,5.556l.162.288-.3.137c-2.985,1.349-5.122,1.461-6.181.326-1.117-1.044-1-3.18.346-6.162l.135-.3Z" transform="translate(-243.564 -72.295)" fill="#cc8c51" fill-rule="evenodd"/><path d="M344.3,126.639l-.323-.584a11.756,11.756,0,0,0-5.672-5.672l-.58-.318-.27.6c-1.77,3.91-1.131,5.7-.272,6.514.811.859,2.6,1.5,6.511-.271l.606-.271Zm-.856-.288c-2.9,1.311-4.905,1.392-5.831.4-.993-.92-.914-2.935.4-5.827a11.187,11.187,0,0,1,5.436,5.431Z" transform="translate(-242.579 -70.892)" fill="#60300e" fill-rule="evenodd"/><path d="M339.52,137.955a2,2,0,1,1,2.825,0A1.984,1.984,0,0,1,339.52,137.955Z" transform="translate(-244.572 -82.005)" fill="#60300e" fill-rule="evenodd"/><path d="M342.388,139.83a1.359,1.359,0,0,0,1.629-2.132c-.009-.008-.017-.021-.03-.034a1.365,1.365,0,1,0-1.932,1.929A1.289,1.289,0,0,0,342.388,139.83Z" transform="translate(-246.663 -84.091)" fill="#cc8c51" fill-rule="evenodd"/><path d="M343.438,139.929a1.361,1.361,0,0,0-.357-2.664h-.046a1.364,1.364,0,0,0,0,2.729A1.562,1.562,0,0,0,343.438,139.929Z" transform="translate(-246.676 -84.091)" fill="#cc8c51" fill-rule="evenodd"/><path d="M344.651,138.43a1.237,1.237,0,0,0-1.138-.9c-.018,0-.027,0-.043,0a1.22,1.22,0,0,0-1.176.9c-.087.2-.071.4.058.4s.411-.46,1.131-.469.926.43,1.074.464S344.711,138.632,344.651,138.43Z" transform="translate(-247.112 -84.289)" fill="#ffdcaf" fill-rule="evenodd"/><path d="M338.787,322.251c-1.346-2.986-1.461-5.122-.324-6.183,1.04-1.118,3.179-1.006,6.166.344l.3.133-.159.292a12.651,12.651,0,0,1-2.3,3.275,12.468,12.468,0,0,1-3.259,2.277l-.288.163Z" transform="translate(-243.618 -220.723)" fill="#cc8c51" fill-rule="evenodd"/><path d="M344.36,315.418l-.6-.27c-3.914-1.775-5.7-1.135-6.514-.271-.86.808-1.5,2.6.273,6.51l.271.6.582-.323A11.707,11.707,0,0,0,344.042,316l.318-.58Zm-.85.284a11.182,11.182,0,0,1-5.438,5.432c-1.306-2.892-1.388-4.9-.393-5.827C338.6,314.309,340.614,314.391,343.51,315.7Z" transform="translate(-242.626 -219.734)" fill="#60300e" fill-rule="evenodd"/><path d="M342.426,320.039a2,2,0,1,1,0-2.831A2,2,0,0,1,342.426,320.039Z" transform="translate(-244.638 -221.734)" fill="#60300e" fill-rule="evenodd"/><path d="M344.3,321.345a1.358,1.358,0,0,0-2.131-1.629l-.035.03a1.367,1.367,0,0,0,1.936,1.93A1.27,1.27,0,0,0,344.3,321.345Z" transform="translate(-246.724 -223.822)" fill="#cc8c51" fill-rule="evenodd"/><path d="M343.494,322.018a1.362,1.362,0,0,0-.356-2.664h-.03a1.367,1.367,0,1,0,.387,2.664Z" transform="translate(-246.719 -223.829)" fill="#cc8c51" fill-rule="evenodd"/><path d="M344.7,320.524a1.231,1.231,0,0,0-1.141-.9.1.1,0,0,1-.028-.008,1.22,1.22,0,0,0-1.189.9c-.087.2-.069.4.058.4s.41-.464,1.13-.468.923.43,1.072.46S344.76,320.726,344.7,320.524Z" transform="translate(-247.152 -224.028)" fill="#ffdcaf" fill-rule="evenodd"/><path d="M112.894,224.068a11.523,11.523,0,0,1,0-7.855l.09-.318.311.116c3.062,1.155,4.656,2.586,4.6,4.138.057,1.53-1.538,2.965-4.6,4.121l-.311.116Z" transform="translate(-70.575 -144.433)" fill="#cc8c51" fill-rule="evenodd"/><path d="M111.774,214.158l-.187.636a11.846,11.846,0,0,0,0,8.027l.185.632.619-.228c4.02-1.517,4.834-3.235,4.8-4.417.032-1.182-.782-2.9-4.8-4.413l-.617-.236Zm.4.8c2.974,1.126,4.452,2.492,4.4,3.846.05,1.358-1.429,2.72-4.4,3.842a11.227,11.227,0,0,1,0-7.687Z" transform="translate(-69.565 -143.1)" fill="#60300e" fill-rule="evenodd"/><path d="M122.765,227.537a2,2,0,1,1-2-2A2,2,0,0,1,122.765,227.537Z" transform="translate(-75.618 -151.834)" fill="#60300e" fill-rule="evenodd"/><path d="M124.137,229.222a1.357,1.357,0,0,0-2.656.357c0,.013-.007.03-.007.043a1.367,1.367,0,0,0,2.733,0A1.233,1.233,0,0,0,124.137,229.222Z" transform="translate(-77.694 -153.918)" fill="#cc8c51" fill-rule="evenodd"/><path d="M123.243,230.919a1.357,1.357,0,0,0-.357-2.656c-.017,0-.03-.008-.043-.008a1.366,1.366,0,1,0,0,2.733A1.254,1.254,0,0,0,123.243,230.919Z" transform="translate(-77.694 -153.918)" fill="#cc8c51" fill-rule="evenodd"/><path d="M124.469,229.456a1.232,1.232,0,0,0-1.139-.907h-.039a1.211,1.211,0,0,0-1.178.9c-.09.2-.07.391.056.4s.408-.468,1.131-.468.923.43,1.069.455S124.529,229.658,124.469,229.456Z" transform="translate(-78.141 -154.144)" fill="#ffdcaf" fill-rule="evenodd"/><path d="M380.721,224.265c-3.066-1.156-4.655-2.586-4.6-4.138-.055-1.53,1.534-2.961,4.6-4.116l.311-.116.089.318a11.467,11.467,0,0,1,0,7.855l-.089.318Z" transform="translate(-273.112 -144.433)" fill="#cc8c51" fill-rule="evenodd"/><path d="M380.225,214.158l-.616.236c-4.016,1.512-4.83,3.231-4.8,4.413-.032,1.182.782,2.9,4.8,4.413l.616.232.187-.632a11.813,11.813,0,0,0,0-8.027l-.187-.636Zm-.4.8a11.216,11.216,0,0,1,0,7.687c-2.975-1.122-4.451-2.488-4.4-3.842C375.374,217.449,376.851,216.087,379.826,214.962Z" transform="translate(-272.107 -143.1)" fill="#60300e" fill-rule="evenodd"/><path d="M380.864,227.537a2,2,0,1,1-2-2A2,2,0,0,1,380.864,227.537Z" transform="translate(-273.685 -151.834)" fill="#60300e" fill-rule="evenodd"/><path d="M382.259,229.222a1.359,1.359,0,0,0-2.66.357c0,.013,0,.03,0,.043a1.365,1.365,0,1,0,2.729,0A1.225,1.225,0,0,0,382.259,229.222Z" transform="translate(-275.782 -153.918)" fill="#cc8c51" fill-rule="evenodd"/><path d="M381.326,230.919a1.357,1.357,0,0,0-.352-2.656c-.02,0-.03-.008-.047-.008a1.366,1.366,0,0,0,0,2.733A1.227,1.227,0,0,0,381.326,230.919Z" transform="translate(-275.754 -153.918)" fill="#cc8c51" fill-rule="evenodd"/><path d="M382.552,229.456a1.242,1.242,0,0,0-1.143-.907h-.026a1.218,1.218,0,0,0-1.191.9c-.09.194-.068.391.056.4s.409-.468,1.133-.468.924.426,1.072.455S382.608,229.658,382.552,229.456Z" transform="translate(-276.196 -154.144)" fill="#ffdcaf" fill-rule="evenodd"/><path d="M205.671,164.379l-3.425,2.424-.7-4.134-4.093.932.934-4.086-4.133-.7,2.423-3.421-3.549-2.234,3.549-2.23-2.423-3.42,4.133-.7-.934-4.091,4.093.932.7-4.134,3.425,2.428,2.23-3.553,2.232,3.553,3.421-2.428.7,4.134,4.086-.932-.932,4.091,4.136.7-2.421,3.42,3.547,2.23-3.547,2.234,2.421,3.421-4.136.7.932,4.086-4.086-.932-.7,4.134-3.421-2.424-2.232,3.554Z" transform="translate(-132.685 -84.956)" fill="#fff" fill-rule="evenodd"/><path d="M205.738,135.565l-.591.941-1.74,2.771-2.662-1.895-.911-.645-.183,1.1-.548,3.218-3.188-.726-1.087-.249.25,1.087.732,3.188-3.227.546-1.1.185.644.907,1.891,2.668-2.767,1.736-.939.593.939.593,2.767,1.74-1.891,2.664-.644.907,1.1.189,3.227.546-.732,3.184-.25,1.088,1.087-.25,3.188-.726.548,3.218.183,1.1.911-.649,2.662-1.89,1.74,2.767.591.945.593-.945,1.738-2.767,2.664,1.89.909.645.185-1.1.55-3.223,3.185.726,1.085.25-.247-1.088-.726-3.184,3.223-.546,1.1-.189-.642-.907-1.893-2.664,2.77-1.74.939-.593-.939-.593-2.77-1.736,1.89-2.668.645-.907-1.1-.185-3.223-.546.726-3.188.247-1.087-1.085.249-3.185.726-.55-3.223-.185-1.1-.907.645-2.666,1.895-1.738-2.771-.593-.941Zm0,1.315,2.135,3.39,3.266-2.316.67,3.949,3.908-.889-.891,3.906,3.95.67-2.318,3.27,3.393,2.131-3.393,2.136,2.318,3.266-3.95.674.891,3.9-3.908-.89-.67,3.953-3.266-2.324-2.135,3.4-2.133-3.4-3.269,2.324-.67-3.953-3.906.89.894-3.9-3.954-.674,2.32-3.266-3.395-2.136,3.395-2.131-2.32-3.27,3.954-.67-.894-3.906,3.906.889.67-3.949,3.269,2.316Z" transform="translate(-130.522 -82.787)" fill="#60300e" fill-rule="evenodd"/><rect width="5.011" height="2.961" transform="translate(72.543 64.277)" fill="#e2e3e4"/><path d="M223.911,198.37a22.975,22.975,0,0,1,4.937-.636h5.011l5.332.468Z" transform="translate(-156.305 -130.496)" fill="#60300e" fill-rule="evenodd"/><path d="M192.767,270.207a1.115,1.115,0,0,1-1.115,1.113h-4.3a1.11,1.11,0,0,1-1.112-1.113v-6.879a1.113,1.113,0,0,1,1.112-1.117h4.3a1.118,1.118,0,0,1,1.115,1.117Z" transform="translate(-127.397 -179.977)" fill="#60300e" fill-rule="evenodd"/><path d="M298.488,270.207a1.113,1.113,0,0,0,1.112,1.113h4.3a1.113,1.113,0,0,0,1.113-1.113v-6.879a1.116,1.116,0,0,0-1.113-1.117h-4.3a1.116,1.116,0,0,0-1.112,1.117Z" transform="translate(-213.536 -179.977)" fill="#60300e" fill-rule="evenodd"/><path d="M227.2,185h-4.907a.523.523,0,0,0-.529.5v1.951a.524.524,0,0,0,.528.507H227.2Z" transform="translate(-154.658 -120.727)" fill="#00619f" fill-rule="evenodd"/><path d="M200.1,270.22l-17.242-.915s-.028.374-.036.855a1.862,1.862,0,0,0,.8.49c.981.314,4.745,1.942,17.153,1.753,12.281-.185,16.006-1.8,16.309-2.054.037-.318.067-.645.086-1.044Z" transform="translate(-124.772 -185.421)" fill="#cc8c51" fill-rule="evenodd"/><path d="M182.808,269.26c.019.026-.006.378-.015.829a1.923,1.923,0,0,0,.778.464c.066.021.15.051.251.086,1.287.447,5.36,1.844,16.892,1.667,13.335-.2,16.268-2.036,16.291-2.054.031-.309.058-.64.076-1.018l-17.032.941-17.241-.915Zm15.957,3.12c-10.053,0-13.748-1.272-14.96-1.693-.1-.03-.182-.06-.251-.082a1.89,1.89,0,0,1-.8-.5c0-.5.03-.872.03-.872l17.269.89,17.059-.911a6.184,6.184,0,0,1-.063,1.066c-.027.034-2.978,1.878-16.331,2.084-.678.009-1.325.017-1.95.017Z" transform="translate(-124.717 -185.35)" fill-rule="evenodd"/><path d="M271.526,185h-4.843v2.961h4.843a.525.525,0,0,0,.532-.507v-1.951A.524.524,0,0,0,271.526,185Z" transform="translate(-189.129 -120.727)" fill="#e83539" fill-rule="evenodd"/><path d="M216.34,233.76c-.091-.623-2.937-3.4-4.478-5.277a79.673,79.673,0,0,1-25.82-.009l-.034.052-4.707,5.148s.362,4.671.354,5.152a1.863,1.863,0,0,0,.8.49c.982.314,4.745,1.942,17.153,1.753,12.281-.185,16.006-1.8,16.309-2.054.037-.318.067-.645.086-1.044C216,237.971,216.369,233.975,216.34,233.76Z" transform="translate(-123.604 -154.087)" fill="#ffdcaf" fill-rule="evenodd"/><path d="M183.6,273.471a1.859,1.859,0,0,1-.8-.49,4.513,4.513,0,0,0,.254,2.041c.4.481.026,2.277,11.6,3.094,10.446.739,19.579-.155,21.691-2.677a3.908,3.908,0,0,0,.711-2.269c-.3.258-4.028,1.869-16.309,2.054C188.35,275.413,184.586,273.785,183.6,273.471Z" transform="translate(-124.76 -188.242)" fill="#ffdcaf" fill-rule="evenodd"/><path d="M212.259,205.629c-.069-.073-.159-.18-.264-.313a9.245,9.245,0,0,0,1.781-.7c.942-.529.589-.821.294-1.294a1,1,0,0,0-1.055-.588c-.353.047-1.869.327-2.552.451a38.226,38.226,0,0,0-2.557-3.348,4.274,4.274,0,0,0-1.108-1.165c-.552-.206-15.615,0-15.615,0l-.585.443c-.857.455-1.992,2.38-3.169,4.052-.524-.1-2-.383-2.391-.434a1,1,0,0,0-1.057.588c-.292.473-.645.765.3,1.294a8.225,8.225,0,0,0,1.511.726c-.119.154-.09.21-.17.292-1.674,1.685-4.175,3.988-4.136,6.48a13.374,13.374,0,0,0,.269,1.878,17.164,17.164,0,0,1,.069,2.015c0,.485,3.012,1.486,2.611,1.332-1.107-.412-1.438-.756-1.485-1.125a9.4,9.4,0,0,1,.026-1.629c-.023-1.1-.546-3.06-.224-3.743a11.03,11.03,0,0,1,1.41-2.058,20.439,20.439,0,0,1,2.973-3.072.319.319,0,0,1-.038-.026,76.219,76.219,0,0,0,12.019.907,77.3,77.3,0,0,0,11.864-.877c.176.052.468.107.468.107s2.014,2.273,2.758,3.266a7.92,7.92,0,0,1,.939,1.813s-.189,5.3-.471,7.06a6.959,6.959,0,0,0,1.35-1.822c.081-.726.318-3.347.33-4.215C216.388,209.428,213.934,207.314,212.259,205.629Z" transform="translate(-123.743 -131.143)" fill="#60300e" fill-rule="evenodd"/><path d="M191.65,196.4c-1.323,0-1.609.009-1.711.013a3.251,3.251,0,0,0-2.331.83,30.709,30.709,0,0,0-2.786,3.523l-1.874-.378a1.443,1.443,0,0,0-.339-.039,1.544,1.544,0,0,0-1.252.645c-.048.064-.091.12-.136.176-.288.369-.958,1.229-.1,1.977a6.106,6.106,0,0,0,1.276.764,22.018,22.018,0,0,0-2.888,3.39,5.574,5.574,0,0,0-.924,3.674c.044.383.091.752.138,1.109a10.429,10.429,0,0,1,.153,1.744,6.124,6.124,0,0,0,.367,2.944,3.468,3.468,0,0,0,.428.7v2.268l0,.044a1.851,1.851,0,0,0,1.777,1.723h4.353a1.834,1.834,0,0,0,1.749-1.8v-.081a94.419,94.419,0,0,0,9.533.585c3.681,0,7.111-.262,8.59-.391v.2l.041.112a2.034,2.034,0,0,0,1.84,1.384h4.356a1.926,1.926,0,0,0,1.758-1.993v-2.411a4.327,4.327,0,0,0,.791-2.342c.081-1.087.1-1.276.109-1.306l-.6-.082.6.03s.092-1.323.177-2.5a5.987,5.987,0,0,0-1.449-4.456,30.608,30.608,0,0,0-2.327-2.5,7.5,7.5,0,0,0,.9-.417c.467-.275.83-.52.942-.963a1.176,1.176,0,0,0-.172-.893,2.8,2.8,0,0,0-1.16-1.242,1.45,1.45,0,0,0-.559-.1,6.821,6.821,0,0,0-1.323.2l-.12.026c-.3.06-.669.137-.954.2a23.305,23.305,0,0,0-2.334-3.012c-.981-1.015-1.459-1.307-2.135-1.307-.056,0-.117,0-.172,0h-.159c-.122,0-.777,0-1.736-.009-2.7-.017-7.709-.043-10.347-.043Zm0,.692c3.588,0,11.615.052,12.083.052.124,0,.232,0,.331,0,.375,0,.678.1,1.637,1.1a24.97,24.97,0,0,1,2.509,3.3s.836-.168,1.42-.292a7.29,7.29,0,0,1,1.3-.211.81.81,0,0,1,.293.043,2.542,2.542,0,0,1,.834.958c.236.391.084.546-.529.907a11.241,11.241,0,0,1-1.854.726,36.056,36.056,0,0,1,3.1,3.223,5.291,5.291,0,0,1,1.293,3.971c-.084,1.169-.173,2.5-.173,2.5v-.013s-.023.142-.118,1.362a3.084,3.084,0,0,1-.795,2.131v2.677a1.24,1.24,0,0,1-1.118,1.3h-4.3a1.392,1.392,0,0,1-1.188-.924v-.838s-4.393.46-9.283.46a95.45,95.45,0,0,1-10.223-.671v-.009s0,.1,0,.868c0,1.023-1.115,1.113-1.115,1.113h-4.3c-.96,0-1.092-1.113-1.092-1.113v-2.531s-.167-.043-.5-.709a6.013,6.013,0,0,1-.295-2.591,23.772,23.772,0,0,0-.294-2.969,4.936,4.936,0,0,1,.837-3.266,30.508,30.508,0,0,1,3.511-3.97,8.3,8.3,0,0,1-2.046-1.044c-.421-.361-.043-.709.331-1.212a.86.86,0,0,1,.7-.374.687.687,0,0,1,.18.021l2.34.477a35.308,35.308,0,0,1,2.967-3.808,2.578,2.578,0,0,1,1.883-.623C190.131,197.1,190.751,197.095,191.65,197.095Z" transform="translate(-121.495 -129.475)" fill="#fff" fill-rule="evenodd"/><path d="M230.526,257.4h-.441l-7.984-.8a20.788,20.788,0,0,1,1.285,1.744c.52.808,4.25,1.749,6.7,1.882.05,0,.389,0,.441,0,2.447-.133,6.181-1.074,6.7-1.882a21.545,21.545,0,0,1,1.289-1.744Z" transform="translate(-154.916 -175.667)" fill="#60300e" fill-rule="evenodd"/><path d="M185.761,254.9l.112,2.819s2.858.511,4.741.627,4.54.232,4.54.232a7.336,7.336,0,0,1-1.566-1.487,13.3,13.3,0,0,1-.939-1.487s-2.428-.236-4.305-.391C186.919,255.089,185.761,254.9,185.761,254.9Z" transform="translate(-127.028 -174.363)" fill="#60300e" fill-rule="evenodd"/><path d="M296.792,254.9l-.112,2.819s-2.859.511-4.737.627-4.542.232-4.542.232a7.314,7.314,0,0,0,1.565-1.487,13.657,13.657,0,0,0,.94-1.487s2.428-.236,4.306-.391C295.636,255.089,296.792,254.9,296.792,254.9Z" transform="translate(-205.028 -174.363)" fill="#60300e" fill-rule="evenodd"/><path d="M240.117,230.544s-2.677,4.71-3.063,4.968a46.7,46.7,0,0,1-9.385,1.065c-1.2.026-8.884-1.19-8.884-1.19s7.859.657,8.953.541c2.485-.27,8.373-.683,8.946-1.281C238.286,232.981,240.117,230.544,240.117,230.544Z" transform="translate(-152.371 -155.675)" fill="#60300e" fill-rule="evenodd"/><path d="M229.305,208.378q-2.21-2.662-4.276-5.44c.7,1.178-16.35,1.165-15.667-.013q-2.036,2.771-4.185,5.47A85.465,85.465,0,0,0,229.305,208.378Z" transform="translate(-141.929 -134.48)" fill="#ffdcaf" fill-rule="evenodd"/><path d="M217.328,274.072s-4.247,2.17-16.277,2.325c-.3.008-.591.009-.876.009s-.58-.009-.876-.009c-13.62-.034-16.086-2.295-16.086-2.295a2.008,2.008,0,0,0,.877,1.968c.891.662,4.049,2.484,14.973,2.621.365.009.722.009,1.079.009h.066c.355,0,.713,0,1.078-.009,10.919-.138,13.751-1.9,14.694-2.484A3.247,3.247,0,0,0,217.328,274.072Z" transform="translate(-125.052 -189.079)" fill="#60300e" fill-rule="evenodd"/><path d="M224.1,185.947h0Z" transform="translate(-156.446 -121.451)" fill="#ffdcaf" fill-rule="evenodd"/><rect width="15.016" height="0.559" transform="translate(67.469 64.505)" fill="#fff"/><path d="M322.511,80.639a1.033,1.033,0,0,0,.64,1.005c1.6.666,1.065-.928,4.258.133s6.731,2.333,6.731,2.333.638,2.978,2.053,3.652,2.908,1.324,2.908,1.324S341.36,95.7,341.36,96.5s-1.176,1.775-.246,2.708a3.313,3.313,0,0,0,1.475,1.014,1.893,1.893,0,0,1-2.583-.065c-1.417-1.925.691-3.326.691-3.326-1.016-6.007-7.441-6.892-7.441-6.892a9.254,9.254,0,0,0-7.114-7.6s-1.526,2.527-3.552.765A1.845,1.845,0,0,1,322.511,80.639Z" transform="translate(-231.636 -40.635)" fill="#60300e" fill-rule="evenodd"/><path d="M122.648,81.526a1.038,1.038,0,0,1-.643,1.01c-1.6.666-1.065-.932-4.256.133S111.021,85,111.021,85s-.645,2.973-2.056,3.653-2.907,1.323-2.907,1.323S103.8,96.6,103.8,97.39s1.177,1.775.247,2.707a3.253,3.253,0,0,1-1.476,1.018,1.891,1.891,0,0,0,2.582-.064c1.418-1.929-.688-3.326-.688-3.326,1.014-6.012,7.438-6.888,7.438-6.888a9.256,9.256,0,0,1,7.116-7.6s1.525,2.523,3.553.765A1.854,1.854,0,0,0,122.648,81.526Z" transform="translate(-63.185 -41.316)" fill="#60300e" fill-rule="evenodd"/><path d="M405.465,73.379a.36.36,0,0,1-.1-.017l-7.169-2.1a.35.35,0,0,1,.2-.67l7.162,2.093a.353.353,0,0,1-.1.692Z" transform="translate(-289.866 -32.916)" fill="#ffdcaf" fill-rule="evenodd"/><path d="M395.37,83.906a.381.381,0,0,1-.1-.017l-6.523-1.908a.351.351,0,0,1-.236-.434.347.347,0,0,1,.433-.236l6.523,1.908a.352.352,0,0,1-.1.688Z" transform="translate(-282.61 -41.139)" fill="#ffdcaf" fill-rule="evenodd"/><path d="M398.963,97.622a.385.385,0,0,1-.1-.013l-2.569-.752a.353.353,0,0,1-.234-.438.349.349,0,0,1,.431-.232l2.57.752a.349.349,0,0,1-.1.683Z" transform="translate(-288.404 -52.557)" fill="#ffdcaf" fill-rule="evenodd"/><path d="M416.86,63.458a.374.374,0,0,1-.1-.017l-6.352-1.856a.354.354,0,0,1-.237-.434.35.35,0,0,1,.437-.237l6.344,1.856a.348.348,0,0,1,.238.434.354.354,0,0,1-.334.253Z" transform="translate(-299.236 -25.487)" fill="#ffdcaf" fill-rule="evenodd"/><path d="M425.562,53.764a.264.264,0,0,1-.1-.013l-6.347-1.857a.351.351,0,0,1,.2-.674l6.347,1.856a.355.355,0,0,1,.238.438.351.351,0,0,1-.335.249Z" transform="translate(-305.914 -18.048)" fill="#ffdcaf" fill-rule="evenodd"/><path d="M432.894,47.506a.348.348,0,0,1-.245-.1l-3.826-3.773a.352.352,0,0,1,.491-.5l3.829,3.777a.347.347,0,0,1,0,.495.353.353,0,0,1-.249.107Z" transform="translate(-313.479 -11.774)" fill="#ffdcaf" fill-rule="evenodd"/><path d="M80.911,73.379a.353.353,0,0,1-.1-.692l7.167-2.093a.349.349,0,0,1,.2.67l-7.165,2.1a.385.385,0,0,1-.1.017Z" transform="translate(-46.295 -32.916)" fill="#ffdcaf" fill-rule="evenodd"/><path d="M93.128,83.906a.36.36,0,0,1-.34-.258.351.351,0,0,1,.24-.43l6.523-1.908a.344.344,0,0,1,.43.236.35.35,0,0,1-.237.434l-6.523,1.908a.4.4,0,0,1-.094.017Z" transform="translate(-55.669 -41.139)" fill="#ffdcaf" fill-rule="evenodd"/><path d="M102.571,97.618a.359.359,0,0,1-.337-.249.35.35,0,0,1,.238-.434l2.57-.752a.347.347,0,0,1,.432.232.351.351,0,0,1-.235.438l-2.572.752a.368.368,0,0,1-.1.013Z" transform="translate(-62.917 -52.553)" fill="#ffdcaf" fill-rule="evenodd"/><path d="M72.209,63.458a.357.357,0,0,1-.337-.253.352.352,0,0,1,.241-.434l6.343-1.856a.349.349,0,1,1,.2.67l-6.345,1.856a.417.417,0,0,1-.1.017Z" transform="translate(-39.617 -25.487)" fill="#ffdcaf" fill-rule="evenodd"/><path d="M63.509,53.764a.353.353,0,0,1-.337-.249.36.36,0,0,1,.237-.438l6.349-1.856a.351.351,0,0,1,.2.674l-6.347,1.857a.27.27,0,0,1-.1.013Z" transform="translate(-32.941 -18.048)" fill="#ffdcaf" fill-rule="evenodd"/><path d="M64.5,47.5a.356.356,0,0,1-.249-.107.35.35,0,0,1,0-.495l3.827-3.777a.351.351,0,0,1,.489.5L64.748,47.4a.346.346,0,0,1-.247.1Z" transform="translate(-33.702 -11.768)" fill="#ffdcaf" fill-rule="evenodd"/></g></svg>