<svg xmlns="http://www.w3.org/2000/svg" width="165.375" height="100" viewBox="0 0 165.375 100">
  <g id="Сгруппировать_194" data-name="Сгруппировать 194" transform="translate(-21.042 -26.922)">
    <path id="Контур_925" data-name="Контур 925" d="M88,182.716c29.9,4.478,58.328,4.013,87.162,0l5.771,13.532c-32.5,5.272-66.4,5.208-98.9-1.194Z" transform="translate(-28.623 -73.12)" fill="#d0d1d1" fill-rule="evenodd"/>
    <g id="Сгруппировать_192" data-name="Сгруппировать 192" transform="translate(59.773 94.719)">
      <path id="Контур_926" data-name="Контур 926" d="M157.006,164.175l-1.849,23.307q-2.522-.037-5.041-.132l1.847-23.277Q154.483,164.155,157.006,164.175Z" transform="translate(-120.351 -159.089)" fill="#ffbc00" fill-rule="evenodd"/>
      <path id="Контур_927" data-name="Контур 927" d="M227.314,158.311l2.313,23.286q-2.487.43-4.981.8l-2.31-23.251Q224.829,158.76,227.314,158.311Z" transform="translate(-154.247 -156.385)" fill="#ffbc00" fill-rule="evenodd"/>
      <path id="Контур_928" data-name="Контур 928" d="M244.883,154.681l3.279,23.183q-2.464.548-4.938,1.04l-3.275-23.144Q242.422,155.251,244.883,154.681Z" transform="translate(-162.514 -154.681)" fill="#ffbc00" fill-rule="evenodd"/>
      <path id="Контур_929" data-name="Контур 929" d="M139.581,163.432,137.735,186.7q-2.515-.143-5.025-.342l1.846-23.264Q137.067,163.3,139.581,163.432Z" transform="translate(-112.182 -158.63)" fill="#ffbc00" fill-rule="evenodd"/>
      <path id="Контур_930" data-name="Контур 930" d="M209.18,161.135l.917,23.4q-2.507.3-5.019.548l-.914-23.362Q206.675,161.461,209.18,161.135Z" transform="translate(-145.718 -157.71)" fill="#ffbc00" fill-rule="evenodd"/>
      <path id="Контур_931" data-name="Контур 931" d="M119.826,161.572l-1.847,23.278q-2.5-.263-5.005-.583l1.849-23.3Q117.321,161.3,119.826,161.572Z" transform="translate(-102.919 -157.629)" fill="#ffbc00" fill-rule="evenodd"/>
      <path id="Контур_932" data-name="Контур 932" d="M191.654,162.982l-.309,23.428q-2.519.184-5.04.309l.309-23.384Q189.136,163.19,191.654,162.982Z" transform="translate(-137.336 -158.577)" fill="#ffbc00" fill-rule="evenodd"/>
      <path id="Контур_933" data-name="Контур 933" d="M101.665,159.048,99,182.259q-2.491-.38-4.975-.816L96.695,158.2Q99.177,158.655,101.665,159.048Z" transform="translate(-94.027 -156.333)" fill="#ffbc00" fill-rule="evenodd"/>
      <path id="Контур_934" data-name="Контур 934" d="M174.234,164.014l-.631,23.363q-2.52.076-5.04.093l.63-23.339Q171.713,164.1,174.234,164.014Z" transform="translate(-129.009 -159.061)" fill="#ffbc00" fill-rule="evenodd"/>
    </g>
    <path id="Контур_935" data-name="Контур 935" d="M21.042,101.827l.846-6.947,1.586.193-.605,4.968,1.771.215.291-2.385a3.775,3.775,0,0,1,.941-2.3,2.28,2.28,0,0,1,1.981-.589,2.418,2.418,0,0,1,1.893,1.154,4.108,4.108,0,0,1,.4,2.657l-.5,4.082-8.607-1.049Zm7.615-3.1a1.949,1.949,0,0,0-.159-1.2,1.032,1.032,0,0,0-.83-.513q-1.13-.138-1.323,1.436l-.243,1.992,2.312.282.243-1.992Zm2.667-12,1.553.428-1.784,6.473-8.359-2.3,1.742-6.317,1.552.428-1.212,4.394,1.815.5,1.07-3.881,1.5.414-1.07,3.881,1.934.533,1.254-4.549Zm-.285-7.564a2.163,2.163,0,0,0-.358-1.125,1.89,1.89,0,0,0-.9-.713,1.929,1.929,0,0,0-1.42-.011,3.178,3.178,0,0,0-1.3.953,5.667,5.667,0,0,0-.959,1.633,6.413,6.413,0,0,0-.427,3.025l1.675,0a4.634,4.634,0,0,1-.012-1.242,4.751,4.751,0,0,1,.285-1.152,2.476,2.476,0,0,1,.724-1.067.881.881,0,0,1,.917-.167.8.8,0,0,1,.51.566,1.59,1.59,0,0,1-.115.973l-.719,1.833,1.407.551.773-1.971a2.077,2.077,0,0,1,.631-.93.8.8,0,0,1,.827-.108.994.994,0,0,1,.627.878,3.054,3.054,0,0,1-.24,1.5,5.313,5.313,0,0,1-.657,1.186,4.672,4.672,0,0,1-.949.978l1.112,1.1a6.532,6.532,0,0,0,1.247-1.314,7.258,7.258,0,0,0,.856-1.573,5.84,5.84,0,0,0,.419-1.918,3.3,3.3,0,0,0-.317-1.634,2,2,0,0,0-1.091-.986,2.033,2.033,0,0,0-1.349-.07,2.461,2.461,0,0,0-1.187.806ZM38.7,74.108a5.065,5.065,0,0,1-1.71,1.828,4.321,4.321,0,0,1-2.234.681,4.612,4.612,0,0,1-3.993-2.273,4.318,4.318,0,0,1-.555-2.268,5.364,5.364,0,0,1,2.4-4.225A4.422,4.422,0,0,1,39.4,71.71a5.03,5.03,0,0,1-.7,2.4Zm-1.486-.845a2.752,2.752,0,0,0,.38-1.38,2.538,2.538,0,0,0-.375-1.333,3.1,3.1,0,0,0-2.5-1.422,2.534,2.534,0,0,0-1.337.358A2.905,2.905,0,0,0,32.012,71.9a2.538,2.538,0,0,0,.375,1.333,3.1,3.1,0,0,0,2.5,1.422,2.539,2.539,0,0,0,1.337-.358,2.754,2.754,0,0,0,.993-1.031Zm2.552-16.4-4.795,6.282,6.892,5.26,1.21-1.585-5.593-4.269,2.375-3.111,5.593,4.268,1.21-1.585-6.892-5.26Zm11.2-2.035-2.782,2.91.812,1.839-1.421,1.486-3.6-8.785,1.37-1.433,8.946,3.189-1.455,1.522-1.874-.729Zm-1.538-.6-3.35-1.3,1.449,3.287,1.9-1.987Zm9.266-3.295a5.1,5.1,0,0,0,1.365-1.572,4.016,4.016,0,0,0,.5-1.854l-1.747-.143a2.757,2.757,0,0,1-1.084,2.153,2.888,2.888,0,0,1-1.349.607,2.512,2.512,0,0,1-1.382-.168A3.1,3.1,0,0,1,53.223,47.7a2.507,2.507,0,0,1,.169-1.382,2.888,2.888,0,0,1,.914-1.163,2.77,2.77,0,0,1,2.343-.544l.281-1.73a4.076,4.076,0,0,0-1.907.045,5.059,5.059,0,0,0-1.849.944,5,5,0,0,0-1.542,1.939,4.3,4.3,0,0,0-.342,2.3,4.658,4.658,0,0,0,2.848,3.639,4.3,4.3,0,0,0,2.311.22,4.983,4.983,0,0,0,2.243-1.024Zm6.632-14.625,4.3,7.527-1.742,1L66.12,41.751,62.7,43.706l1.764,3.086-1.742,1-4.3-7.527,1.742-1,1.7,2.968,3.419-1.955-1.7-2.968,1.742-1ZM76.4,38.729,72.716,40.34l.04,2.01-1.884.823.071-9.492,1.816-.794,7.024,6.393-1.929.843-1.448-1.4Zm-1.189-1.144-2.589-2.491.07,3.593,2.52-1.1ZM85.255,29l-3.621.938a4.68,4.68,0,0,0-1.821.875,2.979,2.979,0,0,0-.98,1.406,3.169,3.169,0,0,0-.01,1.787,3.128,3.128,0,0,0,.892,1.567,2.838,2.838,0,0,0,1.579.71L80.2,39.27l2.05-.531.909-2.616,1.775-.46.577,2.23,1.919-.5L85.255,29Zm-3.163,2.508,1.655-.429.789,3.046-1.7.441a1.8,1.8,0,0,1-1.338-.076,1.522,1.522,0,0,1-.712-1.018,1.481,1.481,0,0,1,.143-1.252,1.922,1.922,0,0,1,1.165-.712ZM105.6,33.926l.084,3.43-1.858.046-.044-1.8-6.117.15.043,1.8-1.857.046-.072-3.43.347-.009q.779-.043,1.074-1.166a13.919,13.919,0,0,0,.318-3.192l.032-2.714,6.662-.163.172,7.033,1.214-.03Zm-6.3-3.984a18.222,18.222,0,0,1-.2,2.6,3.442,3.442,0,0,1-.569,1.557L102.4,34l-.133-5.4-2.972.073-.006,1.264Zm12.024,6.227a5.061,5.061,0,0,1-2.377-.781,4.318,4.318,0,0,1-1.559-1.738,4.612,4.612,0,0,1,.379-4.58,4.321,4.321,0,0,1,1.823-1.459,5.367,5.367,0,0,1,4.845.4,4.422,4.422,0,0,1-.644,7.776,5.022,5.022,0,0,1-2.468.38Zm.141-1.7a2.749,2.749,0,0,0,1.412-.237,2.537,2.537,0,0,0,1.05-.9,3.1,3.1,0,0,0,.237-2.864,2.536,2.536,0,0,0-.888-1.062,2.9,2.9,0,0,0-2.765-.229,2.536,2.536,0,0,0-1.05.9,3.1,3.1,0,0,0-.237,2.864A2.535,2.535,0,0,0,110.1,34a2.75,2.75,0,0,0,1.353.466Zm11.938-5.1a4.814,4.814,0,0,1,1.861.828,2.87,2.87,0,0,1,1.092,3.091,3.012,3.012,0,0,1-.825,1.519,2.921,2.921,0,0,1-1.52.765,4.884,4.884,0,0,1-2.034-.087l-1.7-.4-.543,2.328-1.954-.455,1.969-8.444,3.655.853Zm-1.163,4.5a2.107,2.107,0,0,0,1.427-.068,1.555,1.555,0,0,0,.506-2.171,2.107,2.107,0,0,0-1.25-.693l-1.593-.371-.684,2.931,1.593.371Zm8.269,6.93a5.061,5.061,0,0,1-2.054-1.43,4.321,4.321,0,0,1-.995-2.113,4.61,4.61,0,0,1,1.677-4.278,4.314,4.314,0,0,1,2.165-.875,5.368,5.368,0,0,1,4.527,1.773,4.423,4.423,0,0,1-2.847,7.266,5.025,5.025,0,0,1-2.473-.344Zm.624-1.591a2.753,2.753,0,0,0,1.421.177,2.531,2.531,0,0,0,1.265-.562,3.1,3.1,0,0,0,1.049-2.676,2.537,2.537,0,0,0-.546-1.271,2.9,2.9,0,0,0-2.584-1.013,2.536,2.536,0,0,0-1.264.562,3.1,3.1,0,0,0-1.049,2.676,2.54,2.54,0,0,0,.546,1.272,2.752,2.752,0,0,0,1.163.835Zm14.246.849.819-1.415L140.873,35.6l-4.29,7.535,1.733.987,3.47-6.12,3.585,2.041Zm3.677,8.672L145.756,46.4l-1.7,1.076-1.681-1.184,8.153-4.862,1.62,1.141-1.824,9.321L148.6,50.68l.443-1.961Zm.361-1.61L150.2,43.6l-3.036,1.922,2.248,1.583Zm7.1,3.906,3.649,3.3-1.209,1.278-3.65-3.3,1.209-1.278Zm10.267,16.2-2.7,2.115-1.145-1.463,1.415-1.107-3.771-4.818-1.414,1.107-1.145-1.464,2.71-2.1.214.273q.5.6,1.577.166a13.9,13.9,0,0,0,2.751-1.65l2.2-1.594,4.107,5.248-5.54,4.336.748.956Zm-.567-7.437a18.146,18.146,0,0,1-2.2,1.395,3.453,3.453,0,0,1-1.588.473L164.8,64.7l4.253-3.328-1.832-2.341-1.018.749Zm4.778,14.862-2.342-4.1,1.742-1,2,3.495,1.355-.775-2-3.495,1.634-.935,2.262,3.957,1.4-.8-3.252-5.688-7.527,4.3,3.332,5.828,1.4-.8Zm8.6,5.669-1.111-2.542-6.447,2.817-.793-1.816,6.447-2.817-1.106-2.531,1.5-.654,3.01,6.89-1.5.654Zm4.325,7.905-8.286,2.552-.583-1.894,2.2-.678-.54-1.752-2.654-.79-.623-2.024,3.03.959a2.837,2.837,0,0,1,.638-1.61,3.129,3.129,0,0,1,1.525-.962,3.166,3.166,0,0,1,1.786-.071,2.978,2.978,0,0,1,1.448.915,4.688,4.688,0,0,1,.956,1.779l1.1,3.575Zm-2.649-3.047a1.923,1.923,0,0,0-.763-1.132,1.481,1.481,0,0,0-1.258-.086,1.524,1.524,0,0,0-.985.757,1.8,1.8,0,0,0-.015,1.339l.517,1.681,3.007-.925-.5-1.634Zm-3.7,15.69,5.123-.833-4.623-1.844-.141-.88,3.718-3.18-5.027.805-.3-1.859,8.562-1.371.262,1.639-4.807,4.057,5.825,2.3.263,1.639-8.56,1.383Z" transform="translate(0 0)" fill="#0082c1" fill-rule="evenodd"/>
    <g id="Сгруппировать_193" data-name="Сгруппировать 193" transform="translate(61.687 52.044)">
      <path id="Контур_936" data-name="Контур 936" d="M98.608,118.1c-1.113,0-1.326.274-.357,1.681l8.68,12.064c1.158,1.519.807,1.233.237,2.318l-4.831,10.616c-.314.648-2.116,3.774-.933,3.774.6,0,2.522-1.331,3.187-1.667,2.76-1.4,5.692-3.278,8.395-4.846,1.39-1.006,1.43-.711,2.59,1.609l3.42,6.878c.843,1.917,1.689,1.347,1.679-1.093-.006-1.412.428-5.177.439-6.917.013-1.907.44-8.76.841-9.752l7.548-10.547c.861-1.22,2.12-2.894,3.023-4.326.471-.748.438-1.088.135-1.183-.756-.237-3.191,1.042-3.7,1.293l-12.523,6.454a1.777,1.777,0,0,1-1.066.408c-2.368.218-2.312-.238-4.745-1.278C109.152,122.958,99.322,118.1,98.608,118.1Z" transform="translate(-97.634 -94.172)" fill="#d21113" fill-rule="evenodd"/>
      <path id="Контур_937" data-name="Контур 937" d="M165.76,103.633a25.585,25.585,0,0,0,2.694,3.779c2.181,2.679,5.272,6.678,5.254,10.193-.011,2.026.243,4.572.3,6.324.151,5.052-.106,10.137.584,15.01,1.229.287,1.417.269,1.917-.731l2.007-4.171c.865-1.729,2.674-5.833,3.524-7.215,1.051-1.707,2.491-.567,3.044-.288l13.814,7.214c.988.516,1.991,1.492,2.886.753.6-.786-.145-1.658-.81-2.967-1.037-2.041-3.054-5.286-4.266-7.5-1.058-1.937-3.46-5.759-4.082-7.54-.514-1.469-.285-1.763.043-3.165a2.032,2.032,0,0,1,.64-1.273c.333-.365.557-.661.88-1.032l10.686-12.7a3.825,3.825,0,0,0,1.345-2.628c-1.166-.272-1.719.124-3.093.732L188.3,102.483a8.436,8.436,0,0,1-3.053,1.066c-4.615.815-13.971-4.9-17.912-6.782-.541-.251-.936-.391-1.423-.636s-.98-.49-1.471-.736L158.7,92.746c-.5.337-.456.355-.736.883C159.23,96.021,163.823,101.154,165.76,103.633Z" transform="translate(-125.949 -82.937)" fill="#0062ab" fill-rule="evenodd"/>
      <path id="Контур_938" data-name="Контур 938" d="M200.188,96.149a6.342,6.342,0,1,0-6.381-6.341A6.373,6.373,0,0,0,200.188,96.149Z" transform="translate(-142.771 -78.582)" fill="#0062ab" fill-rule="evenodd"/>
      <ellipse id="Эллипс_35" data-name="Эллипс 35" cx="4.93" cy="4.901" rx="4.93" ry="4.901" transform="translate(11.709 18.19)" fill="#d21113"/>
      <path id="Контур_939" data-name="Контур 939" d="M131.967,74.262l2.836,3.683,4.885-.574-2.933,3.772,1.958,4.171-4.649-1.352-3.675,3.152.06-4.607-4.229-2.223,4.686-1.5Z" transform="translate(-111.051 -74.262)" fill="#ffbc00" fill-rule="evenodd"/>
    </g>
  </g>
</svg>
