<svg xmlns="http://www.w3.org/2000/svg" xmlns:xlink="http://www.w3.org/1999/xlink" width="37.001" height="37" viewBox="0 0 37.001 37">
  <defs>
    <filter id="Контур_940" x="0" y="0" width="37.001" height="37" filterUnits="userSpaceOnUse">
      <feOffset dy="2" input="SourceAlpha"/>
      <feGaussianBlur stdDeviation="1.5" result="blur"/>
      <feFlood flood-opacity="0.102"/>
      <feComposite operator="in" in2="blur"/>
      <feComposite in="SourceGraphic"/>
    </filter>
  </defs>
  <g id="ico-prodile" transform="translate(4.5 2.5)">
    <g transform="matrix(1, 0, 0, 1, -4.5, -2.5)" filter="url(#Контур_940)">
      <path id="Контур_940-2" data-name="Контур 940" d="M14,0A14,14,0,1,0,28,14,14,14,0,0,0,14,0Zm0,4.186A4.631,4.631,0,1,1,9.37,8.818,4.631,4.631,0,0,1,14,4.187Zm0,20.153a10.275,10.275,0,0,1-6.691-2.467,1.973,1.973,0,0,1-.692-1.5A4.67,4.67,0,0,1,11.307,15.7H16.7a4.663,4.663,0,0,1,4.686,4.669,1.968,1.968,0,0,1-.692,1.5A10.271,10.271,0,0,1,14,24.341Z" transform="translate(4.5 2.5)" fill="#fff"/>
    </g>
  </g>
</svg>
