<svg xmlns="http://www.w3.org/2000/svg" width="48" height="48" viewBox="0 0 48 48">
  <path id="rectangle-1" d="M2117.656,46.923a4.217,4.217,0,0,1-7.031-3.142V30.79A4.219,4.219,0,0,1,2105,26.813V18.375a7.039,7.039,0,0,1,7.031-7.032h8.438a4.194,4.194,0,0,1,2.983,1.236l1.236,1.237v-9.6A4.223,4.223,0,0,1,2128.906,0h19.875A4.223,4.223,0,0,1,2153,4.218V18.375a4.223,4.223,0,0,1-4.218,4.218h-16.066l-4.735,2.368a4.238,4.238,0,0,1-3.293.205V43.781a4.217,4.217,0,0,1-7.032,3.142Zm1.407-17.3V43.781a1.406,1.406,0,0,0,2.813,0V22.348a1.407,1.407,0,0,1,2.4-.99l.823.823a1.406,1.406,0,0,0,1.625.264l5.623-2.812a1.406,1.406,0,0,0-1.257-2.516l-3.813,1.906a1.406,1.406,0,0,1-1.623-.264l-4.191-4.191a1.4,1.4,0,0,0-.994-.412h-8.437a4.224,4.224,0,0,0-4.218,4.219v8.438a1.406,1.406,0,0,0,2.813,0V18.375a1.406,1.406,0,1,1,2.813,0V43.781a1.406,1.406,0,0,0,2.813,0V29.625a1.406,1.406,0,1,1,2.813,0Zm25.164-17.5a1.406,1.406,0,0,1-.629,1.886l-7.691,3.846a4.2,4.2,0,0,1-.185,1.856c-.008.024-.018.048-.026.072h13.086a1.408,1.408,0,0,0,1.406-1.406V4.218a1.408,1.408,0,0,0-1.406-1.406h-19.875a1.408,1.408,0,0,0-1.406,1.406V15.767l2.332-1.165a4.214,4.214,0,0,1,4.818.735l7.691-3.845a1.4,1.4,0,0,1,1.886.629Zm-32.2-6.4a5.626,5.626,0,1,1,11.25,0,5.625,5.625,0,0,1-11.25,0Zm2.813,0a2.813,2.813,0,0,0,5.625,0,2.814,2.814,0,1,0-5.625,0Z" transform="translate(-2105)" fill="#fff"/>
</svg>
