<svg id="rectangle-2" xmlns="http://www.w3.org/2000/svg" width="48" height="34.751" viewBox="0 0 48 34.751">
  <path id="Контур_947" data-name="Контур 947" d="M38.156,0H9.844A9.855,9.855,0,0,0,0,9.844V24.907a9.855,9.855,0,0,0,9.844,9.844H38.156A9.855,9.855,0,0,0,48,24.907V9.844A9.855,9.855,0,0,0,38.156,0Zm7.031,24.907a7.039,7.039,0,0,1-7.031,7.031H9.844a7.039,7.039,0,0,1-7.031-7.031V9.844A7.039,7.039,0,0,1,9.844,2.813H38.156a7.039,7.039,0,0,1,7.031,7.031Zm0,0" fill="#ff4d6b"/>
  <path id="Контур_948" data-name="Контур 948" d="M197.317,119.011l-7.062-3.531a3.046,3.046,0,0,0-4.408,2.724v7.062a3.041,3.041,0,0,0,4.408,2.724l7.062-3.531a3.046,3.046,0,0,0,0-5.449Zm-1.258,2.933L189,125.475a.234.234,0,0,1-.338-.209V118.2a.221.221,0,0,1,.111-.2.228.228,0,0,1,.121-.037A.237.237,0,0,1,189,118l7.062,3.531a.233.233,0,0,1,0,.417Zm0,0" transform="translate(-168.424 -104.36)" fill="#ff4d6b"/>
  <path id="Контур_949" data-name="Контур 949" d="M105.289,52.742a1.406,1.406,0,0,0-1.406,1.406v2.464a1.406,1.406,0,0,0,2.813,0V54.148A1.406,1.406,0,0,0,105.289,52.742Zm0,0" transform="translate(-94.144 -47.798)" fill="#ff4d6b"/>
  <path id="Контур_950" data-name="Контур 950" d="M105.289,122.379a1.406,1.406,0,0,0-1.406,1.406v2.464a1.406,1.406,0,0,0,2.813,0v-2.464A1.406,1.406,0,0,0,105.289,122.379Zm0,0" transform="translate(-94.144 -110.906)" fill="#ff4d6b"/>
  <path id="Контур_951" data-name="Контур 951" d="M105.289,192.016a1.406,1.406,0,0,0-1.406,1.406v2.464a1.406,1.406,0,0,0,2.813,0v-2.464A1.406,1.406,0,0,0,105.289,192.016Zm0,0" transform="translate(-94.144 -174.015)" fill="#ff4d6b"/>
  <path id="Контур_952" data-name="Контур 952" d="M105.289,261.652a1.406,1.406,0,0,0-1.406,1.406v2.464a1.406,1.406,0,0,0,2.813,0v-2.464A1.406,1.406,0,0,0,105.289,261.652Zm0,0" transform="translate(-94.144 -237.122)" fill="#ff4d6b"/>
  <path id="Контур_953" data-name="Контур 953" d="M379.523,52.742a1.406,1.406,0,0,0-1.406,1.406v2.464a1.406,1.406,0,0,0,2.813,0V54.148A1.406,1.406,0,0,0,379.523,52.742Zm0,0" transform="translate(-342.669 -47.798)" fill="#ff4d6b"/>
  <path id="Контур_954" data-name="Контур 954" d="M379.523,122.379a1.406,1.406,0,0,0-1.406,1.406v2.464a1.406,1.406,0,0,0,2.813,0v-2.464A1.406,1.406,0,0,0,379.523,122.379Zm0,0" transform="translate(-342.669 -110.906)" fill="#ff4d6b"/>
  <path id="Контур_955" data-name="Контур 955" d="M379.523,192.016a1.406,1.406,0,0,0-1.406,1.406v2.464a1.406,1.406,0,0,0,2.813,0v-2.464A1.406,1.406,0,0,0,379.523,192.016Zm0,0" transform="translate(-342.669 -174.015)" fill="#ff4d6b"/>
  <path id="Контур_956" data-name="Контур 956" d="M379.523,261.652a1.406,1.406,0,0,0-1.406,1.406v2.464a1.406,1.406,0,0,0,2.813,0v-2.464A1.406,1.406,0,0,0,379.523,261.652Zm0,0" transform="translate(-342.669 -237.122)" fill="#ff4d6b"/>
</svg>
