<svg id="rectangle-3" xmlns="http://www.w3.org/2000/svg" width="48" height="48" viewBox="0 0 48 48">
  <g id="Сгруппировать_212" data-name="Сгруппировать 212">
    <g id="Сгруппировать_211" data-name="Сгруппировать 211">
      <path id="Контур_957" data-name="Контур 957" d="M43.781,0H9.844A4.224,4.224,0,0,0,5.625,4.219v7.219H4.219A4.224,4.224,0,0,0,0,15.656V43.781A4.224,4.224,0,0,0,4.219,48H38.063a4.224,4.224,0,0,0,4.219-4.219V36.75h1.5A4.224,4.224,0,0,0,48,32.531V4.219A4.224,4.224,0,0,0,43.781,0ZM2.813,35.813l5.771-7.695a1.406,1.406,0,0,1,2.3.064l1.886,2.829.008.012,5.693,8.54H2.813Zm12.863-5.507,4.194-5.242a1.406,1.406,0,0,1,2.245.065L32.5,39.563H21.846ZM39.469,43.781a1.408,1.408,0,0,1-1.406,1.406H4.219a1.408,1.408,0,0,1-1.406-1.406V42.375H39.469Zm0-4.219h-3.5l-3.589-4.986L34.256,32.7a1.408,1.408,0,0,1,1.989,0l3.224,3.224Zm0-7.614-1.236-1.236a4.223,4.223,0,0,0-5.966,0l-1.551,1.551L24.4,23.49a4.219,4.219,0,0,0-6.727-.183L14.038,27.85l-.819-1.229a4.219,4.219,0,0,0-6.885-.191L2.813,31.125V15.656A1.408,1.408,0,0,1,4.219,14.25H38.063a1.408,1.408,0,0,1,1.406,1.406Zm5.719.582a1.408,1.408,0,0,1-1.406,1.406h-1.5V31.125h2.906Zm0-4.219H42.281V15.656a4.224,4.224,0,0,0-4.219-4.219H8.438V4.219A1.408,1.408,0,0,1,9.844,2.813H43.781a1.408,1.408,0,0,1,1.406,1.406Z" fill="#ff4d6b"/>
    </g>
  </g>
  <g id="Сгруппировать_214" data-name="Сгруппировать 214" transform="translate(28.219 17.063)">
    <g id="Сгруппировать_213" data-name="Сгруппировать 213">
      <path id="Контур_958" data-name="Контур 958" d="M305.219,182a4.219,4.219,0,1,0,4.219,4.219A4.224,4.224,0,0,0,305.219,182Zm0,5.625a1.406,1.406,0,1,1,1.406-1.406A1.408,1.408,0,0,1,305.219,187.625Z" transform="translate(-301 -182)" fill="#ff4d6b"/>
    </g>
  </g>
</svg>
