<svg xmlns="http://www.w3.org/2000/svg" width="48" height="48" viewBox="0 0 48 48">
  <g id="rectangle-5" transform="translate(-1)">
    <path id="Контур_970" data-name="Контур 970" d="M93.706,362H82.412A1.409,1.409,0,0,0,81,363.406a7.059,7.059,0,0,0,14.118,0A1.409,1.409,0,0,0,93.706,362Zm-5.647,5.625a4.242,4.242,0,0,1-3.993-2.812h7.987A4.241,4.241,0,0,1,88.059,367.625Z" transform="translate(-72.471 -328.063)" fill="#ff4d6b"/>
    <path id="Контур_971" data-name="Контур 971" d="M174.765,262a4.717,4.717,0,0,0-3.351,1.383,1.409,1.409,0,1,0,2,1.989,1.921,1.921,0,0,1,2.709,0,1.409,1.409,0,1,0,2-1.989A4.717,4.717,0,0,0,174.765,262Z" transform="translate(-154 -237.438)" fill="#ff4d6b"/>
    <path id="Контур_972" data-name="Контур 972" d="M64.765,264.813a1.907,1.907,0,0,1,1.355.559,1.409,1.409,0,1,0,2-1.989,4.752,4.752,0,0,0-6.7,0,1.409,1.409,0,1,0,2,1.989A1.907,1.907,0,0,1,64.765,264.813Z" transform="translate(-54.353 -237.438)" fill="#ff4d6b"/>
    <path id="Контур_973" data-name="Контур 973" d="M376.119,99.985a1.921,1.921,0,0,1-2.709,0,1.409,1.409,0,1,0-2,1.989,4.752,4.752,0,0,0,6.7,0,1.409,1.409,0,0,0-2-1.989Z" transform="translate(-335.176 -90.238)" fill="#ff4d6b"/>
    <path id="Контур_974" data-name="Контур 974" d="M266.119,99.985a1.921,1.921,0,0,1-2.709,0,1.409,1.409,0,0,0-2,1.989,4.752,4.752,0,0,0,6.7,0,1.409,1.409,0,0,0-2-1.989Z" transform="translate(-235.529 -90.238)" fill="#ff4d6b"/>
    <path id="Контур_975" data-name="Контур 975" d="M45.553,1.918a33.315,33.315,0,0,0-22.282,0,5.143,5.143,0,0,0-3.447,4.867v9.623A33.354,33.354,0,0,0,4.447,18.05,5.143,5.143,0,0,0,1,22.917V33.469a14.588,14.588,0,0,0,29.176,0V31.246A14.605,14.605,0,0,0,49,17.337V6.785a5.143,5.143,0,0,0-3.447-4.867Zm-18.2,31.551a11.765,11.765,0,0,1-23.529,0V22.917a2.328,2.328,0,0,1,1.55-2.21,31.1,31.1,0,0,1,10.215-1.759A31.1,31.1,0,0,1,25.8,20.707a2.328,2.328,0,0,1,1.55,2.21ZM46.176,17.337a11.777,11.777,0,0,1-16,10.936V25.306h9.882A1.409,1.409,0,0,0,41.471,23.9,7.06,7.06,0,0,0,28.9,19.514a5.09,5.09,0,0,0-2.171-1.464A35.8,35.8,0,0,0,22.647,16.9V6.785a2.328,2.328,0,0,1,1.55-2.21,30.543,30.543,0,0,1,20.43,0,2.328,2.328,0,0,1,1.55,2.21ZM30.418,22.493a4.241,4.241,0,0,1,7.987,0Z" fill="#ff4d6b"/>
  </g>
</svg>
