<svg id="rectangle-4" xmlns="http://www.w3.org/2000/svg" width="48" height="48" viewBox="0 0 48 48">
  <path id="Контур_959" data-name="Контур 959" d="M319.224,99.025a1.406,1.406,0,0,0,1.989,0l5.625-5.625a1.406,1.406,0,0,0-1.989-1.989l-4.631,4.631L318.4,94.224a1.406,1.406,0,1,0-1.989,1.989Z" transform="translate(-286.375 -82.468)" fill="#ff4d6b"/>
  <path id="Контур_960" data-name="Контур 960" d="M78.985,328.929a1.406,1.406,0,0,0,1.989,0l2.983-2.983,2.983,2.983a1.406,1.406,0,0,0,1.989-1.989l-2.983-2.983,2.983-2.983a1.406,1.406,0,1,0-1.989-1.989l-2.983,2.983-2.983-2.983a1.406,1.406,0,1,0-1.989,1.989l2.983,2.983-2.983,2.983a1.406,1.406,0,0,0,0,1.989Z" transform="translate(-71.207 -288.707)" fill="#ff4d6b"/>
  <circle id="Эллипс_41" data-name="Эллипс 41" cx="1.406" cy="1.406" r="1.406" transform="translate(0 45.188)" fill="#ff4d6b"/>
  <circle id="Эллипс_42" data-name="Эллипс 42" cx="1.406" cy="1.406" r="1.406" transform="translate(45.188)" fill="#ff4d6b"/>
  <path id="Контур_961" data-name="Контур 961" d="M1.406,306.625a1.406,1.406,0,0,0,1.406-1.406v-2.812a1.406,1.406,0,0,0-2.812,0v2.813A1.406,1.406,0,0,0,1.406,306.625Z" transform="translate(0 -272.781)" fill="#ff4d6b"/>
  <path id="Контур_962" data-name="Контур 962" d="M483.406,61A1.406,1.406,0,0,0,482,62.406v2.813a1.406,1.406,0,0,0,2.813,0V62.406A1.406,1.406,0,0,0,483.406,61Z" transform="translate(-436.813 -55.281)" fill="#ff4d6b"/>
  <path id="Контур_963" data-name="Контур 963" d="M483.406,151A1.406,1.406,0,0,0,482,152.406v2.813a1.406,1.406,0,0,0,2.813,0v-2.812A1.406,1.406,0,0,0,483.406,151Z" transform="translate(-436.813 -136.844)" fill="#ff4d6b"/>
  <path id="Контур_964" data-name="Контур 964" d="M1.406,396.625a1.406,1.406,0,0,0,1.406-1.406v-2.812a1.406,1.406,0,0,0-2.812,0v2.813A1.406,1.406,0,0,0,1.406,396.625Z" transform="translate(0 -354.344)" fill="#ff4d6b"/>
  <path id="Контур_965" data-name="Контур 965" d="M61,483.406a1.406,1.406,0,0,0,1.406,1.406h2.813a1.406,1.406,0,0,0,0-2.812H62.406A1.406,1.406,0,0,0,61,483.406Z" transform="translate(-55.281 -436.813)" fill="#ff4d6b"/>
  <path id="Контур_966" data-name="Контур 966" d="M151,483.406a1.406,1.406,0,0,0,1.406,1.406h2.813a1.406,1.406,0,0,0,0-2.812h-2.812A1.406,1.406,0,0,0,151,483.406Z" transform="translate(-136.844 -436.813)" fill="#ff4d6b"/>
  <path id="Контур_967" data-name="Контур 967" d="M306.625,1.406A1.406,1.406,0,0,0,305.219,0h-2.812a1.406,1.406,0,0,0,0,2.813h2.813A1.406,1.406,0,0,0,306.625,1.406Z" transform="translate(-272.781)" fill="#ff4d6b"/>
  <path id="Контур_968" data-name="Контур 968" d="M396.625,1.406A1.406,1.406,0,0,0,395.219,0h-2.812a1.406,1.406,0,0,0,0,2.813h2.813A1.406,1.406,0,0,0,396.625,1.406Z" transform="translate(-354.344)" fill="#ff4d6b"/>
  <path id="Контур_969" data-name="Контур 969" d="M46.594,22.594H25.406V15.563A1.406,1.406,0,0,0,24,14.156h-.166a10.282,10.282,0,0,0-5.9,2.064,4.124,4.124,0,0,1-2.376.749,4.219,4.219,0,0,1,0-8.437,4.125,4.125,0,0,1,2.377.749,10.282,10.282,0,0,0,5.895,2.064H24a1.406,1.406,0,0,0,1.406-1.406V1.406A1.406,1.406,0,0,0,24,0H1.406A1.406,1.406,0,0,0,0,1.406V24a1.406,1.406,0,0,0,1.406,1.406H22.594v7.031A1.406,1.406,0,0,0,24,33.844h.166a10.282,10.282,0,0,0,5.9-2.064,4.124,4.124,0,0,1,2.376-.749,4.219,4.219,0,0,1,0,8.438,4.125,4.125,0,0,1-2.377-.749,10.282,10.282,0,0,0-5.895-2.064H24a1.406,1.406,0,0,0-1.406,1.406v8.531A1.406,1.406,0,0,0,24,48H46.594A1.406,1.406,0,0,0,48,46.594V24A1.406,1.406,0,0,0,46.594,22.594ZM2.813,2.813H22.594v5.58a8.609,8.609,0,0,1-3.042-1.417,6.924,6.924,0,0,0-3.989-1.257,7.031,7.031,0,0,0,0,14.063,6.924,6.924,0,0,0,3.989-1.257,8.608,8.608,0,0,1,3.042-1.417v5.486H2.813ZM45.188,45.188H25.406v-5.58a8.609,8.609,0,0,1,3.042,1.417,6.924,6.924,0,0,0,3.989,1.257,7.031,7.031,0,0,0,0-14.062,6.924,6.924,0,0,0-3.989,1.257,8.608,8.608,0,0,1-3.042,1.417V25.406H45.188Z" fill="#ff4d6b"/>
</svg>
