<svg xmlns="http://www.w3.org/2000/svg" width="501.733" height="259.074" viewBox="0 0 501.733 259.074"><g transform="translate(-394.143 -3224.58)"><g transform="translate(394.143 3224.58)" opacity="0.25"><path d="M755.2,38.85c0-19.379-18.282-35.09-40.829-35.09a46,46,0,0,0-19.793,4.4C682.224-3.866,664.206-11.5,644.084-11.5A74.212,74.212,0,0,0,601.927,1.261a51.618,51.618,0,0,0-26.255-7.008c-21.555,0-39.646,12.674-44.845,29.811-20.2,2.084-35.872,16.835-35.872,34.761,0,19.346,18.249,35.024,40.757,35.024A45.449,45.449,0,0,0,556.8,88.763c8.105,11.622,22.863,19.419,39.784,19.419a51.551,51.551,0,0,0,26.012-6.85,77.3,77.3,0,0,0,21.49,3.057,76.577,76.577,0,0,0,27.872-5.226,44.584,44.584,0,0,0,27.208,8.973c22.554,0,40.848-15.718,40.848-35.09a30.831,30.831,0,0,0-.723-6.442C748.959,60.188,755.2,50.156,755.2,38.85Z" transform="translate(-493.278 13.161)" fill="#f6fbfc"/><path d="M557.7,92.3a47.47,47.47,0,0,1-20.569,4.621h0C513.881,96.878,494.751,80.7,494.7,60.237h0c.039-18.63,15.928-33.743,36.293-36.286h0C536.869,6.524,555.334-5.992,577.093-6h0A53.444,53.444,0,0,1,603.276.7h0a76.049,76.049,0,0,1,42.229-12.45h0c20.109,0,38.173,7.441,50.828,19.327h0A47.745,47.745,0,0,1,715.784,3.5h0c23.277.039,42.466,16.25,42.505,36.76h0c0,11.563-6.212,21.825-15.751,28.51h0a29.4,29.4,0,0,1,.552,5.686h0c-.053,20.5-19.215,36.714-42.505,36.753h0a46.392,46.392,0,0,1-27.484-8.763h0a77.887,77.887,0,0,1-27.6,5.009h0a79.24,79.24,0,0,1-21.272-2.919h0A53.417,53.417,0,0,1,598,111.255h0c-16.861,0-31.7-7.52-40.3-18.958Zm1.88-3.07c7.763,11.129,22.015,18.715,38.423,18.7h0a50.158,50.158,0,0,0,25.184-6.62h0l.6-.362.69.191a75.572,75.572,0,0,0,21.029,2.991h0a74.539,74.539,0,0,0,27.261-5.108h0l.881-.335.742.572a42.943,42.943,0,0,0,26.2,8.625h0c21.8-.013,39.14-15.179,39.185-33.427h0a28.909,28.909,0,0,0-.683-6.094h0l-.236-1.1.94-.631c9.289-6.173,15.172-15.7,15.172-26.367h0C754.93,22,737.6,6.839,715.784,6.826h0a44.21,44.21,0,0,0-19.051,4.233h0l-1.058.5-.828-.822C682.817-.957,665.206-8.425,645.505-8.425h0A72.65,72.65,0,0,0,604.288,4.032h0l-.881.611-.914-.546a49.877,49.877,0,0,0-25.4-6.771h0c-20.931-.007-38.324,12.312-43.261,28.628h0l-.309,1.052-1.092.125c-19.55,2.018-34.433,16.217-34.406,33.1h0c.046,18.222,17.335,33.348,39.107,33.355h0A44.023,44.023,0,0,0,557.451,88.7h0l1.289-.671.841,1.2Z" transform="translate(-494.699 11.751)" fill="#c5e6ef"/><path d="M750.893,17.894c0-10.156-5.141-19.254-13.259-25.565A29.126,29.126,0,0,1,741.414,6.5c0,10.584-5.857,19.958-14.883,25.959a27.975,27.975,0,0,1,.677,6.015c0,18.11-17.1,32.8-38.186,32.8a41.726,41.726,0,0,1-25.44-8.388,71.4,71.4,0,0,1-26.051,4.884,72.069,72.069,0,0,1-20.083-2.86,48.257,48.257,0,0,1-24.323,6.409c-15.816,0-29.608-7.3-37.194-18.15a42.734,42.734,0,0,1-19.688,4.753c-21.056,0-38.121-14.659-38.121-32.743,0-.237.026-.44.039-.657a29.922,29.922,0,0,0-2.991,13c0,19.011,17.933,34.42,40.06,34.42a44.838,44.838,0,0,0,20.713-5c7.974,11.412,22.463,19.077,39.08,19.077A50.807,50.807,0,0,0,620.6,79.292a76.053,76.053,0,0,0,21.1,3,75.063,75.063,0,0,0,27.393-5.141,43.757,43.757,0,0,0,26.735,8.822c22.16,0,40.132-15.441,40.132-34.479a30.018,30.018,0,0,0-.7-6.324C744.76,38.864,750.893,29,750.893,17.894Z" transform="translate(-492.063 34.491)" fill="#e1f2f6"/></g><g transform="translate(574 3444.513)" opacity="0.25"><path d="M577.768,4.523c0-6.167-5.817-11.166-12.992-11.166a14.639,14.639,0,0,0-6.3,1.4A23.019,23.019,0,0,0,542.408-11.5a23.615,23.615,0,0,0-13.415,4.06,16.425,16.425,0,0,0-8.354-2.23c-6.859,0-12.616,4.033-14.27,9.486-6.428.663-11.415,5.357-11.415,11.061,0,6.156,5.807,11.145,12.969,11.145a14.462,14.462,0,0,0,6.71-1.619,15.35,15.35,0,0,0,12.659,6.179,16.4,16.4,0,0,0,8.277-2.18,24.6,24.6,0,0,0,6.838.973,24.367,24.367,0,0,0,8.869-1.663,14.187,14.187,0,0,0,8.658,2.855c7.177,0,13-5,13-11.166a9.813,9.813,0,0,0-.23-2.05A10.677,10.677,0,0,0,577.768,4.523Z" transform="translate(-494.421 12.027)" fill="#f6fbfc"/><path d="M514.747,21.358a15.105,15.105,0,0,1-6.545,1.471h0c-7.4-.013-13.486-5.16-13.5-11.672h0c.012-5.928,5.069-10.737,11.549-11.547h0c1.87-5.545,7.746-9.528,14.67-9.53h0a17.006,17.006,0,0,1,8.332,2.132h0a24.2,24.2,0,0,1,13.438-3.962h0A23.587,23.587,0,0,1,558.86-5.6h0a15.193,15.193,0,0,1,6.19-1.3h0c7.407.013,13.513,5.171,13.526,11.7h0a11.147,11.147,0,0,1-5.012,9.072h0a9.356,9.356,0,0,1,.176,1.809h0c-.017,6.522-6.114,11.683-13.525,11.7h0a14.762,14.762,0,0,1-8.746-2.788h0a24.784,24.784,0,0,1-8.781,1.594h0a25.215,25.215,0,0,1-6.769-.929h0a17,17,0,0,1-8.346,2.138h0a15.975,15.975,0,0,1-12.825-6.033Zm.6-.977a14.825,14.825,0,0,0,12.227,5.951h0a15.96,15.96,0,0,0,8.014-2.106h0l.19-.115.22.061a24.047,24.047,0,0,0,6.692.952h0a23.719,23.719,0,0,0,8.675-1.625h0l.28-.107.236.182a13.665,13.665,0,0,0,8.336,2.744h0c6.938,0,12.455-4.83,12.469-10.637h0a9.2,9.2,0,0,0-.217-1.939h0l-.075-.351.3-.2a10.147,10.147,0,0,0,4.828-8.39h0c-.01-5.811-5.524-10.635-12.467-10.639h0a14.068,14.068,0,0,0-6.062,1.347h0l-.337.159-.263-.261a22.508,22.508,0,0,0-15.7-6.1h0a23.118,23.118,0,0,0-13.115,3.964h0l-.28.195L529-6.708a15.871,15.871,0,0,0-8.083-2.155h0c-6.66,0-12.2,3.918-13.766,9.11h0l-.1.335-.347.04c-6.221.642-10.957,5.16-10.948,10.534h0c.015,5.8,5.516,10.612,12.444,10.614h0a14.008,14.008,0,0,0,6.466-1.556h0l.41-.213.268.381Z" transform="translate(-494.699 11.751)" fill="#c5e6ef"/><path d="M576.545.464a10.334,10.334,0,0,0-4.219-8.135,9.268,9.268,0,0,1,1.2,4.51,10,10,0,0,1-4.736,8.26,8.9,8.9,0,0,1,.215,1.914c0,5.763-5.443,10.438-12.151,10.438a13.278,13.278,0,0,1-8.1-2.669,22.721,22.721,0,0,1-8.29,1.554,22.933,22.933,0,0,1-6.39-.91,15.356,15.356,0,0,1-7.74,2.039,14.365,14.365,0,0,1-11.835-5.775,13.6,13.6,0,0,1-6.265,1.512c-6.7,0-12.13-4.665-12.13-10.419,0-.075.008-.14.013-.209a9.521,9.521,0,0,0-.952,4.135c0,6.049,5.706,10.953,12.747,10.953a14.268,14.268,0,0,0,6.591-1.59,15.09,15.09,0,0,0,12.436,6.07A16.167,16.167,0,0,0,535.083,20a24.2,24.2,0,0,0,6.714.956,23.886,23.886,0,0,0,8.717-1.636,13.924,13.924,0,0,0,8.507,2.807c7.051,0,12.77-4.914,12.77-10.971a9.553,9.553,0,0,0-.224-2.012A10.5,10.5,0,0,0,576.545.464Z" transform="translate(-494.183 16.205)" fill="#e1f2f6"/></g><g transform="translate(710 3336.513)" opacity="0.25"><path d="M494.954,24.006c0-13.666,12.892-24.745,28.792-24.745a32.441,32.441,0,0,1,13.958,3.1c8.715-8.478,21.421-13.86,35.61-13.86a52.332,52.332,0,0,1,29.728,9,36.4,36.4,0,0,1,18.514-4.941c15.2,0,27.957,8.937,31.624,21.022,14.245,1.469,25.3,11.872,25.3,24.513,0,13.642-12.868,24.7-28.74,24.7A32.05,32.05,0,0,1,634.864,59.2C629.149,67.4,618.742,72.9,606.81,72.9a36.353,36.353,0,0,1-18.343-4.83,54.51,54.51,0,0,1-15.154,2.156,54,54,0,0,1-19.655-3.685,31.439,31.439,0,0,1-19.187,6.328c-15.9,0-28.8-11.084-28.8-24.745a21.739,21.739,0,0,1,.51-4.543C499.358,39.053,494.954,31.979,494.954,24.006Z" transform="translate(-493.781 12.671)" fill="#f6fbfc"/><path d="M636.148,61.62a33.474,33.474,0,0,0,14.5,3.259h0c16.4-.028,29.886-11.436,29.923-25.866h0c-.028-13.137-11.232-23.794-25.593-25.588h0C650.838,1.136,637.817-7.69,622.473-7.695h0A37.687,37.687,0,0,0,604.01-2.971h0a53.628,53.628,0,0,0-29.779-8.78h0c-14.18,0-26.919,5.247-35.842,13.629h0A33.668,33.668,0,0,0,524.672-1h0c-16.414.028-29.946,11.459-29.973,25.922h0c0,8.154,4.381,15.39,11.107,20.1h0a20.726,20.726,0,0,0-.389,4.01h0c.037,14.454,13.55,25.89,29.973,25.917h0a32.714,32.714,0,0,0,19.381-6.179h0a54.924,54.924,0,0,0,19.46,3.532h0a55.879,55.879,0,0,0,15-2.058h0a37.667,37.667,0,0,0,18.5,4.738h0c11.89,0,22.357-5.3,28.421-13.369Zm-1.326-2.165c-5.475,7.848-15.524,13.2-27.095,13.188h0a35.369,35.369,0,0,1-17.759-4.668h0l-.422-.255-.487.134a53.291,53.291,0,0,1-14.829,2.109h0a52.562,52.562,0,0,1-19.223-3.6h0l-.621-.236-.524.4a30.282,30.282,0,0,1-18.473,6.082h0c-15.376-.009-27.6-10.7-27.632-23.572h0a20.377,20.377,0,0,1,.482-4.3h0l.167-.779-.662-.445c-6.55-4.353-10.7-11.07-10.7-18.593h0c.023-12.878,12.242-23.567,27.628-23.576h0a31.176,31.176,0,0,1,13.434,2.985h0l.746.352.584-.579c8.483-8.247,20.9-13.513,34.794-13.513h0A51.231,51.231,0,0,1,603.3-.621h0l.621.431.644-.385a35.172,35.172,0,0,1,17.912-4.775h0c14.76,0,27.025,8.682,30.507,20.188h0l.218.742.77.088c13.786,1.423,24.281,11.436,24.262,23.345h0c-.032,12.85-12.224,23.516-27.577,23.521h0a31.044,31.044,0,0,1-14.328-3.449h0l-.909-.473-.593.844Z" transform="translate(-494.699 11.751)" fill="#c5e6ef"/><path d="M495.172,10.357c0-7.162,3.625-13.578,9.35-18.028a20.539,20.539,0,0,0-2.665,9.994c0,7.463,4.13,14.074,10.495,18.306a19.728,19.728,0,0,0-.477,4.242C511.874,37.641,523.936,48,538.8,48a29.424,29.424,0,0,0,17.94-5.915,50.352,50.352,0,0,0,18.371,3.444,50.822,50.822,0,0,0,14.162-2.016,34.029,34.029,0,0,0,17.152,4.52c11.153,0,20.878-5.145,26.228-12.8a30.134,30.134,0,0,0,13.883,3.352c14.848,0,26.881-10.337,26.881-23.09,0-.167-.018-.311-.028-.464A21.1,21.1,0,0,1,675.5,24.2c0,13.406-12.646,24.272-28.249,24.272a31.62,31.62,0,0,1-14.607-3.523C627.021,52.994,616.8,58.4,605.086,58.4a35.828,35.828,0,0,1-18.033-4.747,53.63,53.63,0,0,1-14.88,2.118,52.933,52.933,0,0,1-19.317-3.625A30.857,30.857,0,0,1,534,58.367c-15.626,0-28.3-10.889-28.3-24.313a21.166,21.166,0,0,1,.5-4.459C499.5,25.144,495.172,18.191,495.172,10.357Z" transform="translate(-491.816 26.584)" fill="#e1f2f6"/></g></g></svg>