<svg xmlns="http://www.w3.org/2000/svg" width="1125.696" height="137.87" viewBox="0 0 1125.696 137.87">
  <g id="sky-2" transform="translate(-412 -2043.198)">
    <g id="Сгруппировать_983" data-name="Сгруппировать 983" transform="translate(1298.18 2058.198)" opacity="0.25">
      <g id="Сгруппировать_955" data-name="Сгруппировать 955">
        <path id="Контур_2195" data-name="Контур 2195" d="M731.436,34.251c0-17.609-16.612-31.885-37.1-31.885a41.8,41.8,0,0,0-17.985,4c-11.23-10.925-27.6-17.86-45.887-17.86A67.434,67.434,0,0,0,592.157.1,46.9,46.9,0,0,0,568.3-6.271c-19.586,0-36.025,11.516-40.75,27.089-18.356,1.894-32.6,15.3-32.6,31.587,0,17.579,16.582,31.826,37.034,31.826a41.3,41.3,0,0,0,19.162-4.623c7.365,10.561,20.775,17.645,36.15,17.645a46.843,46.843,0,0,0,23.636-6.224A70.24,70.24,0,0,0,630.464,93.8a69.583,69.583,0,0,0,25.326-4.749,40.512,40.512,0,0,0,24.723,8.154c20.494,0,37.117-14.282,37.117-31.885a28.013,28.013,0,0,0-.657-5.854C725.761,53.64,731.436,44.525,731.436,34.251Z" transform="translate(-493.431 13.009)" fill="#f6fbfc"/>
        <path id="Контур_2196" data-name="Контур 2196" d="M551.947,82.794a43.134,43.134,0,0,1-18.69,4.2h0c-21.128-.036-38.51-14.736-38.558-33.331h0C494.735,36.734,509.173,23,527.678,20.69h0C533.018,4.855,549.8-6.518,569.568-6.524h0A48.563,48.563,0,0,1,593.359-.438h0a69.1,69.1,0,0,1,38.372-11.313h0c18.272,0,34.687,6.762,46.185,17.561h0a43.385,43.385,0,0,1,17.675-3.7h0c21.151.036,38.587,14.766,38.623,33.4h0c0,10.507-5.645,19.831-14.312,25.906h0a26.719,26.719,0,0,1,.5,5.167h0c-.048,18.625-17.46,33.361-38.623,33.4h0a42.155,42.155,0,0,1-24.974-7.962h0a70.774,70.774,0,0,1-25.076,4.552h0a72,72,0,0,1-19.33-2.652h0a48.538,48.538,0,0,1-23.833,6.1h0c-15.321,0-28.809-6.833-36.622-17.227ZM553.655,80c7.054,10.113,20,17.006,34.914,16.994h0a45.577,45.577,0,0,0,22.884-6.015h0l.544-.329.627.173a68.67,68.67,0,0,0,19.109,2.718h0A67.731,67.731,0,0,0,656.5,88.9h0l.8-.3.675.52a39.021,39.021,0,0,0,23.8,7.837h0c19.813-.012,35.565-13.792,35.606-30.374h0a26.271,26.271,0,0,0-.621-5.537h0l-.215-1,.854-.573c8.441-5.609,13.786-14.264,13.786-23.959h0c-.03-16.594-15.775-30.368-35.6-30.38h0a40.172,40.172,0,0,0-17.311,3.847h0l-.962.454-.752-.747C665.636-1.943,649.634-8.729,631.732-8.729h0A66.014,66.014,0,0,0,594.279,2.591h0l-.8.556-.831-.5A45.322,45.322,0,0,0,569.568-3.5h0c-19.019-.006-34.824,11.188-39.31,26.014h0l-.281.956-.992.113c-17.764,1.834-31.288,14.736-31.264,30.081h0c.042,16.558,15.751,30.3,35.535,30.308h0a40,40,0,0,0,18.463-4.444h0l1.171-.609L553.655,80Z" transform="translate(-494.699 11.751)" fill="#c5e6ef"/>
      </g>
      <path id="Контур_2197" data-name="Контур 2197" d="M727.538,15.559c0-9.229-4.671-17.5-12.048-23.23a26.465,26.465,0,0,1,3.435,12.878c0,9.617-5.322,18.135-13.523,23.588a25.423,25.423,0,0,1,.615,5.466c0,16.456-15.542,29.807-34.7,29.807A37.915,37.915,0,0,1,648.2,56.446a64.883,64.883,0,0,1-23.672,4.438,65.488,65.488,0,0,1-18.248-2.6,43.849,43.849,0,0,1-22.1,5.824c-14.372,0-26.9-6.63-33.8-16.492a38.831,38.831,0,0,1-17.89,4.319c-19.133,0-34.639-13.32-34.639-29.753,0-.215.024-.4.036-.6A27.189,27.189,0,0,0,495.172,33.4c0,17.275,16.3,31.276,36.4,31.276a40.743,40.743,0,0,0,18.822-4.54c7.246,10.37,20.411,17.334,35.511,17.334a46.166,46.166,0,0,0,23.236-6.117,69.107,69.107,0,0,0,19.174,2.73,68.207,68.207,0,0,0,24.891-4.671A39.761,39.761,0,0,0,677.5,77.424c20.136,0,36.467-14.031,36.467-31.33a27.28,27.28,0,0,0-.639-5.746C721.965,34.614,727.538,25.654,727.538,15.559Z" transform="translate(-492.347 32.042)" fill="#e1f2f6"/>
    </g>
    <g id="Сгруппировать_984" data-name="Сгруппировать 984" transform="translate(412 2043.198)" opacity="0.25">
      <g id="Сгруппировать_955-2" data-name="Сгруппировать 955">
        <path id="Контур_2195-2" data-name="Контур 2195" d="M627.766,14.2c0-9.89-9.33-17.907-20.836-17.907a23.477,23.477,0,0,0-10.1,2.244A36.917,36.917,0,0,0,571.058-11.5a37.872,37.872,0,0,0-21.514,6.511,26.342,26.342,0,0,0-13.4-3.576c-11,0-20.232,6.468-22.886,15.213-10.309,1.063-18.307,8.591-18.307,17.74,0,9.873,9.313,17.874,20.8,17.874a23.194,23.194,0,0,0,10.762-2.6c4.136,5.931,11.668,9.91,20.3,9.91a26.308,26.308,0,0,0,13.274-3.5,39.448,39.448,0,0,0,10.967,1.56,39.079,39.079,0,0,0,14.224-2.667,22.752,22.752,0,0,0,13.885,4.579c11.51,0,20.846-8.021,20.846-17.907a15.732,15.732,0,0,0-.369-3.288C624.579,25.085,627.766,19.966,627.766,14.2Z" transform="translate(-494.098 12.347)" fill="#f6fbfc"/>
        <path id="Контур_2196-2" data-name="Контур 2196" d="M526.85,41.347a24.225,24.225,0,0,1-10.5,2.358h0c-11.866-.02-21.628-8.276-21.655-18.719h0c.02-9.507,8.129-17.22,18.521-18.518h0c3-8.893,12.422-15.281,23.526-15.284h0A27.274,27.274,0,0,1,550.108-5.4h0a38.809,38.809,0,0,1,21.551-6.354h0A37.827,37.827,0,0,1,597.6-1.888h0a24.366,24.366,0,0,1,9.926-2.08h0c11.879.02,21.671,8.293,21.691,18.759h0a17.877,17.877,0,0,1-8.038,14.549h0a15.008,15.008,0,0,1,.282,2.9h0C621.432,42.7,611.653,50.978,599.768,51h0a23.675,23.675,0,0,1-14.026-4.472h0a39.748,39.748,0,0,1-14.083,2.556h0A40.439,40.439,0,0,1,560.8,47.593h0a27.26,27.26,0,0,1-13.385,3.428h0c-8.6,0-16.18-3.838-20.568-9.675Zm.959-1.567c3.962,5.679,11.235,9.551,19.608,9.544h0a25.6,25.6,0,0,0,12.852-3.378h0l.305-.185.352.1a38.566,38.566,0,0,0,10.732,1.526h0a38.039,38.039,0,0,0,13.912-2.607h0l.45-.171.379.292a21.914,21.914,0,0,0,13.368,4.4h0c11.127-.007,19.974-7.746,20-17.059h0a14.76,14.76,0,0,0-.349-3.11h0l-.121-.564.479-.322c4.74-3.15,7.743-8.011,7.743-13.456h0c-.017-9.319-8.86-17.055-19.994-17.062h0A22.561,22.561,0,0,0,597.8-.11h0l-.54.255-.423-.419a36.1,36.1,0,0,0-25.18-9.779h0A37.075,37.075,0,0,0,550.625-3.7h0l-.45.312-.466-.278a25.454,25.454,0,0,0-12.962-3.455h0c-10.681,0-19.558,6.283-22.077,14.61h0l-.158.537-.557.064c-9.977,1.03-17.572,8.276-17.558,16.894h0c.024,9.3,8.846,17.018,19.957,17.022h0a22.466,22.466,0,0,0,10.369-2.5h0l.658-.342.429.611Z" transform="translate(-494.699 11.751)" fill="#c5e6ef"/>
      </g>
      <path id="Контур_2197-2" data-name="Контур 2197" d="M625.672,5.375a16.573,16.573,0,0,0-6.766-13.046,14.863,14.863,0,0,1,1.929,7.233c0,5.4-2.989,10.185-7.595,13.248a14.277,14.277,0,0,1,.345,3.07c0,9.242-8.729,16.74-19.487,16.74a21.293,21.293,0,0,1-12.983-4.281,36.44,36.44,0,0,1-13.295,2.493,36.779,36.779,0,0,1-10.249-1.459,24.626,24.626,0,0,1-12.412,3.271c-8.071,0-15.109-3.724-18.981-9.262a21.808,21.808,0,0,1-10.047,2.425c-10.745,0-19.454-7.481-19.454-16.71,0-.121.013-.225.02-.335a15.27,15.27,0,0,0-1.526,6.632c0,9.7,9.152,17.565,20.443,17.565a22.882,22.882,0,0,0,10.57-2.55c4.069,5.824,11.463,9.735,19.944,9.735a25.928,25.928,0,0,0,13.05-3.435,38.811,38.811,0,0,0,10.768,1.533,38.306,38.306,0,0,0,13.979-2.623,22.331,22.331,0,0,0,13.643,4.5c11.309,0,20.48-7.88,20.48-17.6a15.321,15.321,0,0,0-.359-3.227C622.543,16.077,625.672,11.045,625.672,5.375Z" transform="translate(-493.585 21.358)" fill="#e1f2f6"/>
    </g>
    <g id="Сгруппировать_985" data-name="Сгруппировать 985" transform="translate(778.315 2109.198)" opacity="0.25">
      <g id="Сгруппировать_955-3" data-name="Сгруппировать 955">
        <path id="Контур_2195-3" data-name="Контур 2195" d="M494.954,17.919c0-11.323,10.682-20.5,23.856-20.5a26.879,26.879,0,0,1,11.565,2.57A42.267,42.267,0,0,1,559.88-11.5a43.361,43.361,0,0,1,24.632,7.455,30.159,30.159,0,0,1,15.34-4.094c12.594,0,23.164,7.405,26.2,17.418,11.8,1.218,20.96,9.836,20.96,20.311,0,11.3-10.662,20.464-23.813,20.464a26.555,26.555,0,0,1-12.322-2.973c-4.736,6.791-13.359,11.346-23.245,11.346a30.121,30.121,0,0,1-15.2-4,45.165,45.165,0,0,1-12.556,1.786,44.743,44.743,0,0,1-16.285-3.053A26.05,26.05,0,0,1,527.7,58.4c-13.178,0-23.867-9.184-23.867-20.5a18.009,18.009,0,0,1,.422-3.764C498.6,30.387,494.954,24.526,494.954,17.919Z" transform="translate(-493.982 12.47)" fill="#f6fbfc"/>
        <path id="Контур_2196-3" data-name="Контур 2196" d="M611.9,49.042a27.736,27.736,0,0,0,12.018,2.7h0c13.585-.023,24.762-9.475,24.793-21.432h0C648.688,19.425,639.4,10.6,627.5,9.109h0c-3.434-10.182-14.223-17.5-26.936-17.5h0a31.227,31.227,0,0,0-15.3,3.914h0A44.434,44.434,0,0,0,560.6-11.751h0A43.309,43.309,0,0,0,530.9-.459h0A27.9,27.9,0,0,0,519.534-2.84h0c-13.6.023-24.812,9.495-24.835,21.478h0c0,6.756,3.63,12.752,9.2,16.658h0a17.179,17.179,0,0,0-.323,3.322h0c.031,11.976,11.227,21.451,24.835,21.474h0a27.106,27.106,0,0,0,16.059-5.12h0A45.508,45.508,0,0,0,560.6,57.9h0a46.3,46.3,0,0,0,12.429-1.705h0a31.211,31.211,0,0,0,15.325,3.925h0c9.852,0,18.524-4.394,23.548-11.077Zm-1.1-1.794c-4.536,6.5-12.863,10.935-22.45,10.927h0a29.306,29.306,0,0,1-14.714-3.868h0l-.35-.211-.4.111A44.155,44.155,0,0,1,560.6,55.956h0a43.552,43.552,0,0,1-15.928-2.984h0l-.515-.2-.434.334a25.09,25.09,0,0,1-15.306,5.039h0c-12.74-.008-22.869-8.869-22.9-19.531h0a16.9,16.9,0,0,1,.4-3.56h0l.138-.645-.549-.369c-5.427-3.607-8.865-9.172-8.865-15.406h0C496.662,7.968,506.786-.889,519.534-.9h0a25.831,25.831,0,0,1,11.131,2.474h0l.618.292.484-.48a41.328,41.328,0,0,1,28.83-11.2h0a42.448,42.448,0,0,1,24.082,7.278h0l.515.357.534-.319a29.143,29.143,0,0,1,14.841-3.956h0c12.229,0,22.392,7.194,25.277,16.727h0l.18.615.638.073c11.423,1.179,20.118,9.475,20.1,19.343h0C646.74,40.957,636.639,49.8,623.917,49.8h0a25.722,25.722,0,0,1-11.872-2.858h0l-.753-.392-.492.7Z" transform="translate(-494.699 11.751)" fill="#c5e6ef"/>
      </g>
      <path id="Контур_2197-3" data-name="Контур 2197" d="M495.172,7.266a18.975,18.975,0,0,1,7.747-14.937A17.016,17.016,0,0,0,500.711.61c0,6.184,3.422,11.661,8.7,15.168a16.345,16.345,0,0,0-.4,3.514c0,10.582,9.994,19.166,22.312,19.166a24.379,24.379,0,0,0,14.864-4.9,41.721,41.721,0,0,0,15.221,2.854,42.109,42.109,0,0,0,11.734-1.671,28.2,28.2,0,0,0,14.211,3.745c9.241,0,17.3-4.263,21.732-10.6a24.969,24.969,0,0,0,11.5,2.777c12.3,0,22.273-8.565,22.273-19.131,0-.138-.015-.257-.023-.384a17.482,17.482,0,0,1,1.748,7.593c0,11.108-10.478,20.111-23.406,20.111a26.2,26.2,0,0,1-12.1-2.919c-4.659,6.668-13.124,11.146-22.834,11.146A29.686,29.686,0,0,1,571.3,43.14,44.436,44.436,0,0,1,558.973,44.9a43.858,43.858,0,0,1-16.005-3,25.567,25.567,0,0,1-15.621,5.154C514.4,47.046,503.9,38.024,503.9,26.9a17.54,17.54,0,0,1,.411-3.695C498.755,19.519,495.172,13.757,495.172,7.266Z" transform="translate(-492.391 23.342)" fill="#e1f2f6"/>
    </g>
    <g id="Сгруппировать_986" data-name="Сгруппировать 986" transform="translate(1135.771 2088.012) rotate(180)" opacity="0.25">
      <g id="Сгруппировать_955-4" data-name="Сгруппировать 955" transform="translate(0 0)">
        <path id="Контур_2195-4" data-name="Контур 2195" d="M0,16.774c0,4.688,4.423,8.489,9.878,8.489A11.13,11.13,0,0,0,14.666,24.2a17.5,17.5,0,0,0,12.217,4.755,17.954,17.954,0,0,0,10.2-3.087,12.488,12.488,0,0,0,6.352,1.7c5.215,0,9.591-3.066,10.849-7.212,4.887-.5,8.679-4.073,8.679-8.41,0-4.68-4.415-8.473-9.86-8.473A11,11,0,0,0,48,4.7,11.67,11.67,0,0,0,38.376,0a12.472,12.472,0,0,0-6.293,1.657,18.627,18.627,0,0,0-11.942.525A10.786,10.786,0,0,0,13.558.011C8.1.011,3.675,3.814,3.675,8.5a7.457,7.457,0,0,0,.175,1.559A8.118,8.118,0,0,0,0,16.774Z" transform="translate(0.402 0.402)" fill="#f6fbfc"/>
        <path id="Контур_2196-4" data-name="Контур 2196" d="M48.529,4.587A11.485,11.485,0,0,1,53.5,3.469h0c5.625.01,10.253,3.923,10.266,8.874h0c-.01,4.507-3.854,8.163-8.781,8.779h0c-1.422,4.216-5.889,7.244-11.153,7.246h0A12.93,12.93,0,0,1,37.5,26.747h0a18.4,18.4,0,0,1-10.216,3.012h0a17.932,17.932,0,0,1-12.3-4.676h0a11.551,11.551,0,0,1-4.706.986h0C4.652,26.06.01,22.138,0,17.176H0a8.475,8.475,0,0,1,3.811-6.9h0A7.113,7.113,0,0,1,3.677,8.9h0C3.69,3.944,8.326.021,13.96.011h0a11.224,11.224,0,0,1,6.649,2.12h0A18.843,18.843,0,0,1,27.286.919h0a19.171,19.171,0,0,1,5.146.706h0A12.923,12.923,0,0,1,38.778,0h0a12.145,12.145,0,0,1,9.75,4.587Zm-.455.743A11.271,11.271,0,0,0,38.778.8h0a12.135,12.135,0,0,0-6.093,1.6h0l-.145.087-.167-.046a18.283,18.283,0,0,0-5.088-.724h0a18.033,18.033,0,0,0-6.6,1.236h0l-.213.081L20.3,2.9A10.389,10.389,0,0,0,13.96.816h0C8.685.819,4.491,4.488,4.48,8.9h0a7,7,0,0,0,.165,1.474h0l.057.267-.227.153A7.715,7.715,0,0,0,.8,17.176h0c.008,4.418,4.2,8.085,9.479,8.089h0a10.7,10.7,0,0,0,4.609-1.024h0l.256-.121.2.2a17.113,17.113,0,0,0,11.937,4.636h0a17.576,17.576,0,0,0,9.972-3.014h0l.213-.148.221.132a12.067,12.067,0,0,0,6.145,1.638h0c5.064,0,9.272-2.979,10.466-6.926h0l.075-.254.264-.03c4.73-.488,8.33-3.923,8.324-8.009h0c-.011-4.409-4.194-8.068-9.461-8.07h0a10.651,10.651,0,0,0-4.916,1.183h0l-.312.162-.2-.289Z" fill="#c5e6ef"/>
      </g>
      <path id="Контур_2197-4" data-name="Контур 2197" d="M0,16.483a7.857,7.857,0,0,0,3.208,6.185,7.046,7.046,0,0,1-.914-3.429,7.6,7.6,0,0,1,3.6-6.28A6.768,6.768,0,0,1,5.73,11.5c0-4.381,4.138-7.936,9.238-7.936A10.1,10.1,0,0,1,21.123,5.6a17.4,17.4,0,0,1,11.161-.49,11.675,11.675,0,0,1,5.884-1.551,10.922,10.922,0,0,1,9,4.391A10.339,10.339,0,0,1,51.93,6.8c5.094,0,9.222,3.547,9.222,7.922,0,.057-.006.107-.009.159a7.239,7.239,0,0,0,.724-3.144c0-4.6-4.339-8.327-9.692-8.327a10.848,10.848,0,0,0-5.011,1.209A11.473,11.473,0,0,0,37.709,0a12.292,12.292,0,0,0-6.187,1.629A18.4,18.4,0,0,0,26.418.9,18.16,18.16,0,0,0,19.79,2.145,10.586,10.586,0,0,0,13.322.011c-5.361,0-9.709,3.736-9.709,8.341a7.263,7.263,0,0,0,.17,1.53A7.98,7.98,0,0,0,0,16.483Z" transform="translate(1.152 0.603)" fill="#e1f2f6"/>
    </g>
  </g>
</svg>
