<svg xmlns="http://www.w3.org/2000/svg" width="784.164" height="244.113" viewBox="0 0 784.164 244.113">
  <g id="sky" transform="translate(-401.756 17.839)">
    <g id="Сгруппировать_965" data-name="Сгруппировать 965" transform="translate(365.791 -23.276)">
      <g id="Сгруппировать_954" data-name="Сгруппировать 954" transform="translate(667 111)">
        <g id="Сгруппировать_953" data-name="Сгруппировать 953">
          <path id="Контур_2192" data-name="Контур 2192" d="M517.314,6.3c0-11.256-10.623-20.39-23.728-20.39a26.707,26.707,0,0,0-11.49,2.557,42.032,42.032,0,0,0-29.346-11.413,43.135,43.135,0,0,0-24.486,7.408,29.937,29.937,0,0,0-15.24-4.067c-12.538,0-23.039,7.361-26.058,17.318C375.221-1.079,366.12,7.486,366.12,17.9c0,11.238,10.6,20.348,23.684,20.348A26.518,26.518,0,0,0,402.046,35.3c4.715,6.748,13.286,11.28,23.113,11.28a29.977,29.977,0,0,0,15.11-3.981,44.862,44.862,0,0,0,12.481,1.776,44.578,44.578,0,0,0,16.2-3.031,25.925,25.925,0,0,0,15.811,5.212c13.1,0,23.728-9.131,23.728-20.387a18.162,18.162,0,0,0-.414-3.744C513.682,18.695,517.314,12.87,517.314,6.3Z" transform="translate(-365.146 23.917)" fill="#f6fbfc"/>
          <path id="Контур_2193" data-name="Контур 2193" d="M402.392,37.165a27.525,27.525,0,0,1-11.943,2.687h0c-13.514-.024-24.634-9.421-24.658-21.313h0c.018-10.821,9.252-19.608,21.088-21.076h0c3.41-10.122,14.13-17.395,26.789-17.4h0a31,31,0,0,1,15.2,3.9h0a44.172,44.172,0,0,1,24.528-7.237h0a43.12,43.12,0,0,1,29.538,11.223h0a27.653,27.653,0,0,1,11.294-2.365h0c13.529.018,24.67,9.442,24.693,21.355h0c0,6.725-3.6,12.677-9.137,16.566h0a18.265,18.265,0,0,1,.308,3.3h0c-.021,11.907-11.161,21.334-24.69,21.355h0a26.927,26.927,0,0,1-15.965-5.088h0a45.49,45.49,0,0,1-16.042,2.909h0a46.033,46.033,0,0,1-12.351-1.7h0a31.029,31.029,0,0,1-15.24,3.907h0c-9.8,0-18.41-4.366-23.412-11.019Zm1.1-1.788c4.5,6.47,12.783,10.874,22.317,10.874h0A28.965,28.965,0,0,0,440.427,42.4h0l.355-.2.4.115a43.954,43.954,0,0,0,12.212,1.734h0a43.375,43.375,0,0,0,15.841-2.969h0l.512-.2.429.334A24.924,24.924,0,0,0,485.4,46.222h0c12.671-.006,22.743-8.814,22.758-19.422h0a16.984,16.984,0,0,0-.391-3.537h0l-.139-.642.545-.37c5.393-3.584,8.817-9.113,8.817-15.314h0c-.024-10.608-10.084-19.419-22.764-19.419h0a25.76,25.76,0,0,0-11.075,2.457h0l-.607.287-.482-.468a41.054,41.054,0,0,0-28.668-11.138h0a42.158,42.158,0,0,0-23.942,7.24h0l-.506.346-.53-.317A29.048,29.048,0,0,0,413.668-18h0c-12.168,0-22.275,7.154-25.14,16.634h0l-.178.613L387.7-.69c-11.345,1.169-20,9.424-19.975,19.23h0c.024,10.581,10.066,19.378,22.722,19.383h0a25.5,25.5,0,0,0,11.8-2.85h0l.746-.391.494.7Z" transform="translate(-365.791 23.276)" fill="#c5e6ef"/>
        </g>
        <path id="Контур_2194" data-name="Контур 2194" d="M514.96-3.162a18.843,18.843,0,0,0-7.71-14.849,16.744,16.744,0,0,1,2.2,8.234c0,6.142-3.395,11.587-8.645,15.074a16.256,16.256,0,0,1,.394,3.49c0,10.534-9.933,19.067-22.186,19.067a24.181,24.181,0,0,1-14.769-4.878A41.505,41.505,0,0,1,449.1,25.814a42.147,42.147,0,0,1-11.67-1.655,28.091,28.091,0,0,1-14.124,3.723c-9.184,0-17.2-4.244-21.6-10.552a24.775,24.775,0,0,1-11.448,2.759c-12.23,0-22.142-8.515-22.142-19.019,0-.133.015-.255.021-.385A17.506,17.506,0,0,0,366.4,8.239c0,11.04,10.421,20,23.273,20a26.083,26.083,0,0,0,12.034-2.9c4.623,6.63,13.05,11.084,22.707,11.084a29.47,29.47,0,0,0,14.846-3.91,44.174,44.174,0,0,0,12.262,1.746,43.656,43.656,0,0,0,15.918-2.986,25.43,25.43,0,0,0,15.53,5.12c12.878,0,23.314-8.965,23.314-20.032a17.5,17.5,0,0,0-.405-3.67C511.391,9.018,514.96,3.293,514.96-3.162Z" transform="translate(-364.595 33.594)" fill="#e1f2f6"/>
      </g>
      <g id="Сгруппировать_956" data-name="Сгруппировать 956" transform="translate(339.199 91.111)">
        <g id="Сгруппировать_955" data-name="Сгруппировать 955">
          <path id="Контур_2195" data-name="Контур 2195" d="M630.022,14.632c0-10.058-9.488-18.212-21.19-18.212A23.876,23.876,0,0,0,598.56-1.3a37.544,37.544,0,0,0-26.208-10.2,38.515,38.515,0,0,0-21.879,6.622,26.789,26.789,0,0,0-13.626-3.637c-11.187,0-20.576,6.578-23.274,15.472C503.088,8.041,494.954,15.7,494.954,25c0,10.041,9.471,18.177,21.152,18.177a23.587,23.587,0,0,0,10.945-2.641c4.207,6.032,11.866,10.078,20.647,10.078a26.755,26.755,0,0,0,13.5-3.555,40.118,40.118,0,0,0,11.153,1.586,39.743,39.743,0,0,0,14.465-2.712,23.139,23.139,0,0,0,14.121,4.657c11.706,0,21.2-8.157,21.2-18.212a16,16,0,0,0-.375-3.343C626.781,25.706,630.022,20.5,630.022,14.632Z" transform="translate(-494.084 12.361)" fill="#f6fbfc"/>
          <path id="Контур_2196" data-name="Контур 2196" d="M527.4,42.249a24.637,24.637,0,0,1-10.675,2.4h0c-12.067-.02-22-8.417-22.022-19.037h0c.02-9.669,8.267-17.512,18.836-18.832h0c3.05-9.044,12.633-15.54,23.926-15.544h0A27.737,27.737,0,0,1,551.05-5.289h0a39.469,39.469,0,0,1,21.917-6.462h0a38.469,38.469,0,0,1,26.379,10.03h0a24.78,24.78,0,0,1,10.1-2.115h0c12.081.02,22.039,8.434,22.06,19.078h0c0,6-3.224,11.327-8.174,14.8h0a15.26,15.26,0,0,1,.287,2.951h0c-.027,10.638-9.972,19.054-22.06,19.075h0a24.077,24.077,0,0,1-14.264-4.548h0a40.423,40.423,0,0,1-14.322,2.6h0a41.125,41.125,0,0,1-11.04-1.515h0a27.723,27.723,0,0,1-13.613,3.487h0c-8.751,0-16.454-3.9-20.917-9.839Zm.976-1.593c4.029,5.776,11.426,9.713,19.941,9.706h0a26.032,26.032,0,0,0,13.07-3.436h0l.311-.188.358.1a39.222,39.222,0,0,0,10.914,1.552h0a38.685,38.685,0,0,0,14.148-2.651h0l.457-.174.385.3a22.287,22.287,0,0,0,13.6,4.476h0c11.316-.007,20.313-7.878,20.337-17.348h0a15.006,15.006,0,0,0-.355-3.163h0l-.123-.573.488-.328c4.821-3.2,7.874-8.147,7.874-13.684h0C629.757,5.765,620.764-2.1,609.44-2.11h0a22.944,22.944,0,0,0-9.887,2.2h0L599,.347l-.43-.426a36.71,36.71,0,0,0-25.608-9.945h0A37.7,37.7,0,0,0,551.575-3.56h0l-.457.317-.474-.283a25.886,25.886,0,0,0-13.183-3.514h0c-10.863,0-19.89,6.39-22.452,14.858h0l-.16.546-.567.065c-10.146,1.047-17.87,8.417-17.857,17.181h0c.024,9.457,9,17.307,20.3,17.311h0a22.847,22.847,0,0,0,10.545-2.538h0l.669-.348.437.621Z" transform="translate(-494.699 11.751)" fill="#c5e6ef"/>
        </g>
        <path id="Контур_2197" data-name="Контур 2197" d="M627.889,5.6a16.855,16.855,0,0,0-6.881-13.268A15.116,15.116,0,0,1,622.97-.315c0,5.493-3.04,10.358-7.724,13.473a14.519,14.519,0,0,1,.351,3.122c0,9.4-8.877,17.024-19.818,17.024a21.656,21.656,0,0,1-13.2-4.353,37.058,37.058,0,0,1-13.52,2.535A37.4,37.4,0,0,1,558.633,30a25.045,25.045,0,0,1-12.623,3.326c-8.209,0-15.366-3.787-19.3-9.42a22.179,22.179,0,0,1-10.218,2.467c-10.928,0-19.784-7.608-19.784-16.994,0-.123.014-.229.02-.341a15.529,15.529,0,0,0-1.552,6.745c0,9.867,9.307,17.864,20.791,17.864a23.271,23.271,0,0,0,10.75-2.593c4.138,5.923,11.658,9.9,20.282,9.9a26.368,26.368,0,0,0,13.271-3.494,39.471,39.471,0,0,0,10.951,1.559,38.957,38.957,0,0,0,14.217-2.668,22.71,22.71,0,0,0,13.875,4.578c11.5,0,20.828-8.014,20.828-17.894a15.583,15.583,0,0,0-.365-3.282C624.706,16.48,627.889,11.363,627.889,5.6Z" transform="translate(-493.558 21.591)" fill="#e1f2f6"/>
      </g>
      <g id="Сгруппировать_958" data-name="Сгруппировать 958" transform="translate(495 203.916)" opacity="0.61">
        <g id="Сгруппировать_957" data-name="Сгруппировать 957" transform="translate(0 0)">
          <path id="Контур_2198" data-name="Контур 2198" d="M540.676,14.839c0-7.192-6.787-13.017-15.151-13.017a17.087,17.087,0,0,0-7.34,1.628,26.855,26.855,0,0,0-18.738-7.287A27.545,27.545,0,0,0,483.81.893a19.157,19.157,0,0,0-9.732-2.6c-8,0-14.713,4.7-16.646,11.058-7.494.77-13.31,6.245-13.31,12.9,0,7.174,6.769,13,15.124,13a16.993,16.993,0,0,0,7.823-1.885,17.911,17.911,0,0,0,14.757,7.2,19.184,19.184,0,0,0,9.649-2.542,28.783,28.783,0,0,0,7.971,1.134,28.565,28.565,0,0,0,10.344-1.936,16.544,16.544,0,0,0,10.1,3.33c8.361,0,15.145-5.834,15.145-13.023a11.378,11.378,0,0,0-.263-2.389A12.464,12.464,0,0,0,540.676,14.839Z" transform="translate(-443.507 4.456)" fill="#f6fbfc"/>
          <path id="Контур_2199" data-name="Контур 2199" d="M467.285,34.552a17.53,17.53,0,0,1-7.63,1.717h0c-8.628-.012-15.722-6.02-15.74-13.609h0c.006-6.914,5.9-12.523,13.461-13.464h0c2.178-6.461,9.027-11.105,17.11-11.108h0A19.841,19.841,0,0,1,484.191.571h0a28.235,28.235,0,0,1,15.663-4.617h0A27.538,27.538,0,0,1,518.717,3.12h0a17.7,17.7,0,0,1,7.213-1.507h0c8.637.012,15.749,6.029,15.77,13.63h0a12.99,12.99,0,0,1-5.837,10.578h0a12.094,12.094,0,0,1,.2,2.113h0c-.018,7.607-7.13,13.624-15.77,13.639h0a17.219,17.219,0,0,1-10.2-3.253h0a28.977,28.977,0,0,1-10.241,1.859h0a29.168,29.168,0,0,1-7.891-1.086h0a19.824,19.824,0,0,1-9.729,2.5h0a18.622,18.622,0,0,1-14.95-7.035Zm.7-1.14a17.306,17.306,0,0,0,14.254,6.944h0a18.52,18.52,0,0,0,9.338-2.46h0l.228-.133.255.071a28.135,28.135,0,0,0,7.8,1.11h0a27.708,27.708,0,0,0,10.116-1.9h0l.32-.127.281.216a15.954,15.954,0,0,0,9.72,3.2h0c8.1-.006,14.524-5.632,14.535-12.4h0a10.433,10.433,0,0,0-.252-2.258h0l-.092-.408.352-.237a11.838,11.838,0,0,0,5.626-9.788h0c-.012-6.769-6.437-12.393-14.532-12.4h0a16.442,16.442,0,0,0-7.071,1.572h0l-.388.184-.311-.3a26.223,26.223,0,0,0-18.306-7.112h0a26.965,26.965,0,0,0-15.3,4.62h0l-.317.225-.343-.2a18.53,18.53,0,0,0-9.412-2.507h0c-7.769,0-14.228,4.567-16.057,10.623h0l-.118.388-.408.05c-7.242.74-12.768,6.008-12.754,12.277h0c.012,6.757,6.426,12.372,14.506,12.378h0a16.343,16.343,0,0,0,7.536-1.82h0l.482-.249.308.444Z" transform="translate(-443.915 4.046)" fill="#c5e6ef"/>
        </g>
        <path id="Контур_2200" data-name="Контур 2200" d="M539.172,8.8A12.037,12.037,0,0,0,534.25-.684a10.744,10.744,0,0,1,1.4,5.257,11.644,11.644,0,0,1-5.517,9.631,10.446,10.446,0,0,1,.246,2.232c0,6.719-6.34,12.171-14.156,12.171a15.458,15.458,0,0,1-9.442-3.114,26.556,26.556,0,0,1-9.67,1.811,26.794,26.794,0,0,1-7.45-1.06,17.941,17.941,0,0,1-9.024,2.377,16.735,16.735,0,0,1-13.8-6.733,15.79,15.79,0,0,1-7.308,1.764c-7.811,0-14.142-5.44-14.142-12.153,0-.074.015-.16.015-.24a11.187,11.187,0,0,0-1.107,4.824c0,7.047,6.653,12.763,14.864,12.763a16.612,16.612,0,0,0,7.687-1.853,17.573,17.573,0,0,0,14.5,7.086,18.874,18.874,0,0,0,9.48-2.5,28.372,28.372,0,0,0,7.834,1.11,27.972,27.972,0,0,0,10.161-1.9,16.278,16.278,0,0,0,9.918,3.265c8.222,0,14.891-5.721,14.891-12.792a11.16,11.16,0,0,0-.263-2.344A12.236,12.236,0,0,0,539.172,8.8Z" transform="translate(-443.155 10.635)" fill="#e1f2f6"/>
      </g>
      <g id="Сгруппировать_960" data-name="Сгруппировать 960" transform="translate(35.965 40.479)">
        <g id="Сгруппировать_959" data-name="Сгруппировать 959">
          <path id="Контур_2201" data-name="Контур 2201" d="M766.485,12.762c0-12.311-11.618-22.3-25.951-22.3a29.193,29.193,0,0,0-12.566,2.795c-7.849-7.637-19.308-12.482-32.1-12.482a47.146,47.146,0,0,0-26.786,8.1A32.865,32.865,0,0,0,652.4-15.574c-13.7,0-25.195,8.054-28.5,18.941-12.833,1.32-22.8,10.7-22.8,22.087,0,12.3,11.6,22.258,25.913,22.258A29.009,29.009,0,0,0,640.4,44.487c5.147,7.378,14.534,12.34,25.282,12.34a32.859,32.859,0,0,0,16.531-4.353,49.244,49.244,0,0,0,13.652,1.938,48.567,48.567,0,0,0,17.717-3.321,28.336,28.336,0,0,0,17.295,5.7c14.337,0,25.955-9.984,25.955-22.3a19.453,19.453,0,0,0-.459-4.09C762.525,26.319,766.485,19.948,766.485,12.762Z" transform="translate(-600.04 20.286)" fill="#f6fbfc"/>
          <path id="Контур_2202" data-name="Контур 2202" d="M640.873,46.631a30.064,30.064,0,0,1-13.067,2.937h0c-14.776-.021-26.932-10.306-26.962-23.311h0c.021-11.843,10.118-21.443,23.06-23.06h0c3.735-11.07,15.465-19.024,29.3-19.024h0a33.842,33.842,0,0,1,16.631,4.261h0a48.278,48.278,0,0,1,26.841-7.916h0A47.127,47.127,0,0,1,728.977-7.2h0a30.329,30.329,0,0,1,12.361-2.59h0c14.8.021,26.987,10.327,27.012,23.357h0c0,7.357-3.952,13.869-10,18.118h0A19.777,19.777,0,0,1,758.7,35.3h0c-.042,13.021-12.228,23.327-27.02,23.361h0a29.437,29.437,0,0,1-17.466-5.573h0a49.591,49.591,0,0,1-17.537,3.183h0a50.092,50.092,0,0,1-13.514-1.859h0a33.939,33.939,0,0,1-16.668,4.274h0c-10.72,0-20.152-4.779-25.616-12.052Zm1.191-1.951c4.946,7.077,13.994,11.9,24.426,11.889h0a31.77,31.77,0,0,0,16-4.211h0l.393-.226.43.121a48.051,48.051,0,0,0,13.364,1.909h0A47.567,47.567,0,0,0,714,50.913h0l.56-.217.472.363a27.325,27.325,0,0,0,16.643,5.485h0c13.873-.017,24.877-9.65,24.906-21.247h0a18.683,18.683,0,0,0-.434-3.873h0l-.155-.7.6-.405c5.907-3.923,9.646-9.98,9.646-16.76h0c-.021-11.6-11.029-21.239-24.9-21.247h0A28.143,28.143,0,0,0,729.228-4.99h0l-.673.317-.526-.514c-7.641-7.44-18.836-12.182-31.357-12.182h0a46.186,46.186,0,0,0-26.189,7.912h0l-.551.389-.589-.351A31.735,31.735,0,0,0,653.2-13.713h0c-13.3-.008-24.355,7.824-27.492,18.193h0l-.2.664-.7.079C612.391,6.5,602.933,15.53,602.954,26.258h0c.021,11.58,11.012,21.2,24.852,21.2h0a27.925,27.925,0,0,0,12.913-3.108h0l.819-.422.526.756Z" transform="translate(-600.844 19.482)" fill="#c5e6ef"/>
        </g>
        <path id="Контур_2203" data-name="Контур 2203" d="M763.826.851c0-6.454-3.263-12.24-8.43-16.255a18.507,18.507,0,0,1,2.4,9.015c0,6.717-3.714,12.675-9.454,16.489a18.067,18.067,0,0,1,.426,3.822c0,11.513-10.857,20.85-24.259,20.85a26.511,26.511,0,0,1-16.171-5.331,45.431,45.431,0,0,1-16.556,3.108,45.853,45.853,0,0,1-12.766-1.821A30.694,30.694,0,0,1,663.565,34.8c-10.047,0-18.815-4.637-23.632-11.534a27.106,27.106,0,0,1-12.524,3.02c-13.381,0-24.226-9.316-24.226-20.812,0-.138.025-.276.025-.414a19.14,19.14,0,0,0-1.892,8.255c0,12.086,11.4,21.873,25.458,21.873a28.485,28.485,0,0,0,13.168-3.171c5.055,7.252,14.275,12.127,24.835,12.127a32.307,32.307,0,0,0,16.246-4.282,48.168,48.168,0,0,0,13.406,1.9A47.641,47.641,0,0,0,711.845,38.5a27.806,27.806,0,0,0,16.994,5.61c14.074,0,25.491-9.809,25.491-21.911a19.684,19.684,0,0,0-.439-4.023C759.924,14.173,763.826,7.907,763.826.851Z" transform="translate(-599.344 32.44)" fill="#e1f2f6"/>
      </g>
      <g id="Сгруппировать_962" data-name="Сгруппировать 962" transform="translate(534.829 5.437)" opacity="0.61">
        <g id="Сгруппировать_961" data-name="Сгруппировать 961">
          <path id="Контур_2204" data-name="Контур 2204" d="M643.25-2.557c0-7.186-6.787-13.02-15.154-13.02a17.045,17.045,0,0,0-7.337,1.637,26.838,26.838,0,0,0-18.738-7.29,27.56,27.56,0,0,0-15.636,4.73,19.13,19.13,0,0,0-9.735-2.6c-8,0-14.707,4.7-16.646,11.055-7.494.772-13.3,6.248-13.3,12.9,0,7.174,6.763,12.993,15.124,12.993a16.858,16.858,0,0,0,7.817-1.885,17.918,17.918,0,0,0,14.76,7.207,19.182,19.182,0,0,0,9.649-2.539,28.764,28.764,0,0,0,7.971,1.128,28.374,28.374,0,0,0,10.339-1.939,16.573,16.573,0,0,0,10.1,3.33c8.367,0,15.148-5.831,15.148-13.017a11.188,11.188,0,0,0-.266-2.389A12.48,12.48,0,0,0,643.25-2.557Z" transform="translate(-546.082 21.849)" fill="#f6fbfc"/>
          <path id="Контур_2205" data-name="Контур 2205" d="M569.864,17.159a17.642,17.642,0,0,1-7.63,1.714h0c-8.628-.009-15.725-6.014-15.743-13.609h0c.006-6.914,5.9-12.517,13.464-13.461h0c2.172-6.461,9.024-11.1,17.1-11.108h0a19.844,19.844,0,0,1,9.708,2.483h0a28.226,28.226,0,0,1,15.663-4.617h0a27.521,27.521,0,0,1,18.86,7.169h0a17.714,17.714,0,0,1,7.216-1.512h0c8.634.012,15.752,6.029,15.767,13.636h0a12.982,12.982,0,0,1-5.837,10.578h0a11.733,11.733,0,0,1,.2,2.11h0c-.018,7.607-7.133,13.618-15.767,13.636h0a17.183,17.183,0,0,1-10.2-3.256h0a28.77,28.77,0,0,1-10.241,1.862h0a29.113,29.113,0,0,1-7.888-1.086h0a19.855,19.855,0,0,1-9.732,2.5h0a18.594,18.594,0,0,1-14.947-7.035Zm.693-1.14a17.3,17.3,0,0,0,14.254,6.944h0a18.616,18.616,0,0,0,9.341-2.46h0l.222-.136.255.071a28.046,28.046,0,0,0,7.8,1.113h0a27.609,27.609,0,0,0,10.117-1.9h0l.326-.124.275.216a15.961,15.961,0,0,0,9.723,3.2h0c8.092,0,14.518-5.632,14.535-12.4h0a10.844,10.844,0,0,0-.255-2.258h0l-.086-.414.346-.234a11.836,11.836,0,0,0,5.623-9.782h0c-.012-6.775-6.435-12.4-14.529-12.4h0a16.427,16.427,0,0,0-7.071,1.569h0l-.391.189-.311-.308a26.222,26.222,0,0,0-18.3-7.106h0a26.964,26.964,0,0,0-15.3,4.62h0l-.32.228-.34-.2a18.488,18.488,0,0,0-9.415-2.51h0c-7.766,0-14.224,4.567-16.051,10.623h0l-.118.385-.408.047c-7.245.752-12.771,6.011-12.76,12.28h0c.018,6.763,6.429,12.372,14.512,12.375h0a16.27,16.27,0,0,0,7.53-1.814h0l.485-.249.308.444Z" transform="translate(-546.491 21.439)" fill="#c5e6ef"/>
        </g>
        <path id="Контур_2206" data-name="Контур 2206" d="M641.747-8.6a12.037,12.037,0,0,0-4.919-9.48,10.729,10.729,0,0,1,1.406,5.262,11.638,11.638,0,0,1-5.52,9.625,10.5,10.5,0,0,1,.249,2.232c0,6.722-6.343,12.174-14.16,12.174A15.445,15.445,0,0,1,609.365,8.1a26.6,26.6,0,0,1-9.673,1.814,26.851,26.851,0,0,1-7.447-1.057,18.026,18.026,0,0,1-9.024,2.377,16.747,16.747,0,0,1-13.8-6.736,15.809,15.809,0,0,1-7.311,1.761c-7.8,0-14.133-5.44-14.133-12.15,0-.074.009-.16.009-.243a11.185,11.185,0,0,0-1.11,4.821c0,7.053,6.663,12.771,14.864,12.771A16.632,16.632,0,0,0,569.429,9.6a17.594,17.594,0,0,0,14.506,7.08,18.809,18.809,0,0,0,9.477-2.5,28.189,28.189,0,0,0,7.829,1.11,27.914,27.914,0,0,0,10.164-1.9,16.229,16.229,0,0,0,9.915,3.271c8.225,0,14.9-5.727,14.9-12.792a11.8,11.8,0,0,0-.26-2.347A12.253,12.253,0,0,0,641.747-8.6Z" transform="translate(-545.733 28.026)" fill="#e1f2f6"/>
      </g>
      <g id="Сгруппировать_964" data-name="Сгруппировать 964" transform="translate(127.598 101.807)" opacity="0.61">
        <g id="Сгруппировать_963" data-name="Сгруппировать 963" transform="translate(0 0)">
          <path id="Контур_2207" data-name="Контур 2207" d="M480.014,25c0-5.286-4.987-9.569-11.135-9.569a12.54,12.54,0,0,0-5.393,1.2,19.733,19.733,0,0,0-13.772-5.357,20.262,20.262,0,0,0-11.493,3.475,14.094,14.094,0,0,0-7.154-1.906c-5.884,0-10.812,3.448-12.23,8.125-5.508.568-9.785,4.591-9.785,9.474,0,5.274,4.978,9.554,11.123,9.554a12.437,12.437,0,0,0,5.742-1.385A13.163,13.163,0,0,0,436.763,43.9a14.088,14.088,0,0,0,7.1-1.868,21.01,21.01,0,0,0,13.455-.592,12.144,12.144,0,0,0,7.42,2.445c6.144,0,11.132-4.283,11.132-9.566a8.272,8.272,0,0,0-.2-1.758A9.155,9.155,0,0,0,480.014,25Z" transform="translate(-408.604 -10.821)" fill="#f6fbfc"/>
          <path id="Контур_2208" data-name="Контур 2208" d="M426.072,39.484a12.878,12.878,0,0,1-5.6,1.258h0c-6.349-.006-11.561-4.422-11.573-10h0c.006-5.079,4.342-9.2,9.894-9.892h0c1.6-4.75,6.633-8.16,12.57-8.163h0a14.578,14.578,0,0,1,7.133,1.826h0a20.73,20.73,0,0,1,11.513-3.392h0a20.212,20.212,0,0,1,13.861,5.268h0a12.978,12.978,0,0,1,5.3-1.113h0c6.346.009,11.573,4.431,11.587,10.019h0a9.562,9.562,0,0,1-4.286,7.778h0a9.093,9.093,0,0,1,.145,1.548h0c-.015,5.588-5.242,10.013-11.59,10.022h0a12.615,12.615,0,0,1-7.491-2.391h0a21.25,21.25,0,0,1-7.527,1.37h0a21.312,21.312,0,0,1-5.8-.805h0a14.558,14.558,0,0,1-7.157,1.841h0a13.712,13.712,0,0,1-10.99-5.174Zm.515-.835a12.713,12.713,0,0,0,10.474,5.1h0a13.583,13.583,0,0,0,6.864-1.808h0l.169-.095.189.05a20.574,20.574,0,0,0,5.73.814h0a20.314,20.314,0,0,0,7.429-1.394h0l.243-.092.2.157a11.722,11.722,0,0,0,7.145,2.353h0c5.949,0,10.67-4.138,10.685-9.113h0a8.266,8.266,0,0,0-.19-1.666h0l-.065-.3.26-.172a8.7,8.7,0,0,0,4.135-7.189h0c-.012-4.975-4.736-9.11-10.682-9.116h0a12.078,12.078,0,0,0-5.194,1.157h0l-.287.133-.225-.219a19.3,19.3,0,0,0-13.455-5.227h0a19.855,19.855,0,0,0-11.241,3.395h0l-.231.169-.251-.151a13.645,13.645,0,0,0-6.923-1.847h0c-5.707,0-10.454,3.359-11.8,7.811h0l-.086.284-.3.036c-5.328.548-9.385,4.422-9.377,9.021h0c.012,4.969,4.727,9.1,10.667,9.1h0a11.935,11.935,0,0,0,5.532-1.341h0l.352-.181.228.329Z" transform="translate(-408.902 -11.121)" fill="#c5e6ef"/>
        </g>
        <path id="Контур_2209" data-name="Контур 2209" d="M478.907,20.561a8.846,8.846,0,0,0-3.62-6.97,7.891,7.891,0,0,1,1.036,3.865,8.568,8.568,0,0,1-4.061,7.077,7.654,7.654,0,0,1,.187,1.634c0,4.943-4.665,8.95-10.406,8.95a11.36,11.36,0,0,1-6.938-2.291A19.519,19.519,0,0,1,448,34.161a19.855,19.855,0,0,1-5.478-.778,13.185,13.185,0,0,1-6.624,1.743,12.288,12.288,0,0,1-10.14-4.952,11.6,11.6,0,0,1-5.375,1.3c-5.733,0-10.389-4-10.389-8.93,0-.059.009-.115.009-.175a8.179,8.179,0,0,0-.814,3.537c0,5.186,4.892,9.388,10.924,9.388a12.234,12.234,0,0,0,5.647-1.364,12.922,12.922,0,0,0,10.655,5.2,13.825,13.825,0,0,0,6.964-1.832,20.831,20.831,0,0,0,5.76.817,20.469,20.469,0,0,0,7.465-1.4,11.976,11.976,0,0,0,7.293,2.4c6.041,0,10.942-4.209,10.942-9.4a8.136,8.136,0,0,0-.2-1.726A8.993,8.993,0,0,0,478.907,20.561Z" transform="translate(-408.343 -6.28)" fill="#e1f2f6"/>
      </g>
    </g>
  </g>
</svg>
